{"glyphs":{"0":{"ha":833,"x_min":107,"x_max":726,"o":"m 642 68 q 600 27 642 68 q 417 -14 558 -14 q 191 67 275 -14 q 107 286 107 149 l 107 728 q 191 947 107 865 q 417 1028 275 1028 q 642 947 558 1028 q 726 728 726 865 l 726 286 q 642 68 726 150 m 288 155 q 313 130 288 155 q 417 104 338 104 q 545 155 496 104 q 594 286 594 206 l 594 728 q 546 860 594 810 q 417 910 497 910 q 288 860 336 910 q 239 728 239 810 l 239 286 q 288 155 239 206 m 479 448 q 467 436 479 448 q 417 424 456 424 q 355 447 378 424 q 332 511 332 471 q 355 574 332 550 q 417 597 378 597 q 479 574 456 597 q 503 511 503 550 q 479 448 503 472 z "},"1":{"ha":833,"x_min":122,"x_max":754,"o":"m 124 0 l 124 125 l 394 125 l 394 897 l 122 693 l 122 843 l 353 1014 l 532 1014 l 532 125 l 754 125 l 754 0 l 124 0 z "},"2":{"ha":833,"x_min":96,"x_max":733,"o":"m 124 0 l 124 132 l 451 486 q 581 731 581 624 q 534 858 581 811 q 408 906 488 906 q 281 857 328 906 q 233 725 233 808 l 96 725 q 183 946 99 864 q 408 1028 268 1028 q 635 948 551 1028 q 718 732 718 868 q 540 400 718 590 l 285 125 l 733 125 l 733 0 l 124 0 z "},"3":{"ha":833,"x_min":93,"x_max":715,"o":"m 629 67 q 586 26 629 67 q 403 -14 543 -14 q 178 66 263 -14 q 93 278 93 146 l 231 278 q 276 152 231 197 q 404 107 322 107 q 532 153 486 107 q 578 278 578 199 l 578 349 q 532 476 578 431 q 404 521 486 521 l 292 521 l 292 636 l 528 892 l 136 892 l 136 1014 l 682 1014 l 682 890 l 447 639 q 643 550 571 628 q 715 349 715 472 l 715 278 q 629 67 715 147 z "},"4":{"ha":833,"x_min":93,"x_max":688,"o":"m 550 0 l 550 217 l 93 217 l 93 426 l 464 1014 l 615 1014 l 229 397 l 229 340 l 550 340 l 550 583 l 688 583 l 688 0 l 550 0 z "},"5":{"ha":833,"x_min":113,"x_max":721,"o":"m 414 -14 q 206 51 286 -14 q 113 229 125 117 l 250 229 q 415 108 265 108 q 541 152 499 108 q 583 279 583 196 l 583 378 q 541 504 583 460 q 417 549 499 549 q 327 523 365 549 q 271 454 289 497 l 135 454 l 142 1014 l 685 1014 l 685 889 l 274 889 l 269 563 l 274 563 q 336 639 288 611 q 460 667 385 667 q 651 591 582 668 q 721 378 721 514 l 721 279 q 640 65 721 143 q 414 -14 558 -14 z "},"6":{"ha":833,"x_min":85,"x_max":749,"o":"m 418 -14 q 176 76 268 -14 q 85 314 85 167 q 178 599 85 439 l 414 1014 l 564 1014 l 288 543 l 293 539 q 471 624 350 624 q 672 539 594 624 q 749 315 749 454 q 658 76 749 167 q 418 -14 567 -14 m 276 163 q 302 135 276 163 q 417 107 329 107 q 558 163 504 107 q 611 313 611 219 q 558 462 611 406 q 417 518 504 518 q 276 462 329 518 q 222 313 222 406 q 276 163 222 219 z "},"7":{"ha":833,"x_min":106,"x_max":761,"o":"m 254 0 l 618 890 l 243 890 l 243 726 l 106 726 l 106 1014 l 761 1014 l 761 888 l 406 0 l 254 0 z "},"8":{"ha":833,"x_min":88,"x_max":746,"o":"m 656 60 q 610 23 656 60 q 417 -14 565 -14 q 178 60 268 -14 q 88 256 88 135 q 141 415 88 342 q 286 529 194 488 q 110 768 110 615 q 196 956 110 882 q 417 1029 282 1029 q 638 956 551 1029 q 724 768 724 882 q 547 529 724 617 q 692 413 639 486 q 746 256 746 340 q 656 60 746 135 m 378 596 l 417 581 l 450 594 q 551 664 513 619 q 589 761 589 708 q 541 867 589 826 q 417 908 493 908 q 292 867 340 908 q 244 761 244 826 q 281 663 244 707 q 378 596 318 618 m 276 153 q 302 130 276 153 q 417 107 329 107 q 558 153 504 107 q 611 272 611 199 q 574 378 611 331 q 474 453 538 426 l 417 475 l 357 451 q 258 378 294 426 q 222 274 222 331 q 276 153 222 199 z "},"9":{"ha":833,"x_min":85,"x_max":749,"o":"m 271 0 l 544 469 l 539 474 q 363 390 482 390 q 162 475 239 390 q 85 699 85 560 q 176 937 85 846 q 415 1028 268 1028 q 656 938 564 1028 q 749 701 749 847 q 654 415 749 582 l 424 0 l 271 0 m 276 551 q 302 523 276 551 q 417 494 329 494 q 558 551 504 494 q 611 701 611 608 q 558 851 611 794 q 417 907 504 907 q 276 851 329 907 q 222 701 222 794 q 276 551 222 608 z "},"\r":{"ha":833,"x_min":0,"x_max":0,"o":""}," ":{"ha":833,"x_min":0,"x_max":0,"o":""},"!":{"ha":833,"x_min":310,"x_max":524,"o":"m 367 306 l 338 842 l 338 1014 l 496 1014 l 496 842 l 467 306 l 367 306 m 396 -7 q 334 17 358 -7 q 310 79 310 40 q 334 140 310 117 q 396 164 358 164 l 438 164 q 501 140 478 164 q 524 79 524 117 q 500 17 524 42 q 438 -7 476 -7 l 396 -7 z "},"\"":{"ha":833,"x_min":200,"x_max":633,"o":"m 506 597 l 488 875 l 488 1014 l 633 1014 l 633 875 l 618 597 l 506 597 m 217 597 l 200 875 l 200 1014 l 346 1014 l 346 875 l 329 597 l 217 597 z "},"#":{"ha":833,"x_min":49,"x_max":785,"o":"m 114 0 l 165 285 l 49 285 l 49 382 l 182 382 l 228 632 l 97 632 l 97 729 l 244 729 l 297 1014 l 401 1014 l 349 729 l 564 729 l 617 1014 l 721 1014 l 668 729 l 785 729 l 785 632 l 651 632 l 606 382 l 736 382 l 736 285 l 589 285 l 536 0 l 433 0 l 485 285 l 269 285 l 217 0 l 114 0 m 286 382 l 501 382 l 547 632 l 332 632 l 286 382 z "},"$":{"ha":833,"x_min":94,"x_max":739,"o":"m 379 -194 l 379 -12 q 172 72 247 -3 q 94 267 97 146 l 232 267 q 271 162 232 203 q 379 111 310 121 l 379 457 l 346 467 q 179 574 238 499 q 121 754 121 650 q 190 941 121 868 q 379 1025 260 1014 l 379 1208 l 464 1208 l 464 1026 q 653 942 583 1015 q 725 756 724 869 l 588 756 q 556 855 588 817 q 464 903 524 893 l 464 575 l 517 558 q 681 450 622 526 q 739 267 739 374 q 664 76 739 151 q 464 -12 589 0 l 464 -194 l 379 -194 m 258 765 q 379 601 258 640 l 379 903 q 290 857 322 893 q 258 765 258 821 m 464 111 q 565 160 529 121 q 601 264 601 200 q 565 369 601 325 q 465 428 529 413 l 464 446 l 464 111 z "},"%":{"ha":833,"x_min":14,"x_max":819,"o":"m 358 606 q 332 581 358 606 q 217 556 306 556 q 74 606 128 556 q 21 743 21 657 l 21 833 q 74 970 21 919 q 217 1021 128 1021 q 358 970 306 1021 q 411 833 411 919 l 411 743 q 358 606 411 657 m 14 0 l 711 1014 l 819 1014 l 122 0 l 14 0 m 129 743 q 217 653 129 653 q 304 743 304 653 l 304 833 q 217 924 304 924 q 129 833 129 924 l 129 743 m 759 43 q 732 18 759 43 q 617 -7 706 -7 q 475 44 528 -7 q 422 181 422 94 l 422 271 q 475 408 422 357 q 617 458 528 458 q 759 408 706 458 q 813 271 813 358 l 813 181 q 759 43 813 93 m 529 181 q 617 92 529 92 q 704 181 704 92 l 704 271 q 617 361 704 361 q 529 271 529 361 l 529 181 z "},"&":{"ha":833,"x_min":72,"x_max":789,"o":"m 321 -14 q 138 49 204 -14 q 72 224 72 113 l 72 386 q 113 517 72 464 q 228 589 153 571 l 215 590 q 132 804 132 704 q 201 967 132 906 q 386 1028 271 1028 q 580 963 508 1028 q 651 786 651 897 l 518 786 q 483 878 518 844 q 386 911 447 911 q 298 881 331 911 q 265 799 265 850 q 324 646 265 725 l 550 332 l 643 500 l 783 500 l 628 222 l 789 0 l 643 0 l 561 114 q 321 -14 458 -14 m 329 106 q 416 134 374 106 q 486 214 458 163 l 286 493 q 207 386 207 476 l 207 224 q 240 137 207 168 q 329 106 272 106 z "},"'":{"ha":833,"x_min":338,"x_max":483,"o":"m 354 597 l 338 804 l 338 1014 l 483 1014 l 483 804 l 467 597 l 354 597 z "},"(":{"ha":833,"x_min":251,"x_max":674,"o":"m 674 -167 q 363 27 474 -115 q 251 375 251 169 l 251 625 q 365 973 251 828 q 674 1167 478 1118 l 674 1035 q 466 894 543 1004 q 389 625 389 783 l 389 375 q 465 110 389 219 q 674 -31 542 1 l 674 -167 z "},")":{"ha":833,"x_min":160,"x_max":583,"o":"m 160 -167 l 160 -31 q 369 110 292 1 q 446 375 446 219 l 446 625 q 369 894 446 783 q 160 1035 292 1004 l 160 1167 q 469 972 356 1118 q 583 625 583 826 l 583 375 q 472 27 583 169 q 160 -167 360 -115 z "},"*":{"ha":833,"x_min":47,"x_max":786,"o":"m 254 128 l 147 203 l 218 304 q 364 449 264 368 l 360 457 q 161 492 226 467 l 47 533 l 92 657 l 207 615 q 383 511 282 588 l 390 517 q 351 724 351 647 l 351 847 l 482 847 l 482 724 q 443 517 482 647 l 449 511 q 626 615 551 588 l 742 657 l 786 533 l 671 492 q 474 457 604 467 l 468 447 q 613 304 567 371 l 685 203 l 578 128 l 506 229 q 421 417 460 296 l 411 417 q 325 229 365 286 l 254 128 z "},"+":{"ha":833,"x_min":89,"x_max":746,"o":"m 349 131 l 349 397 l 89 397 l 89 521 l 349 521 l 349 786 l 485 786 l 485 521 l 746 521 l 746 397 l 485 397 l 485 131 l 349 131 z "},",":{"ha":833,"x_min":285,"x_max":519,"o":"m 285 -222 l 360 210 l 519 210 l 419 -222 l 285 -222 z "},"-":{"ha":833,"x_min":194,"x_max":639,"o":"m 194 397 l 194 521 l 639 521 l 639 397 l 194 397 z "},".":{"ha":833,"x_min":297,"x_max":536,"o":"m 504 17 q 488 2 504 17 q 417 -14 472 -14 q 329 17 361 -14 q 297 103 297 49 q 329 191 297 158 q 417 224 361 224 q 504 191 472 224 q 536 103 536 158 q 504 17 536 49 z "},"/":{"ha":833,"x_min":99,"x_max":735,"o":"m 99 -153 l 590 1153 l 735 1153 l 243 -153 l 99 -153 z "},":":{"ha":833,"x_min":297,"x_max":536,"o":"m 503 593 q 487 578 503 593 q 417 564 471 564 q 330 593 363 564 q 297 671 297 622 q 331 748 297 718 q 417 778 364 778 q 503 749 471 778 q 536 671 536 719 q 503 593 536 622 m 417 -14 q 331 16 364 -14 q 297 93 297 46 q 331 172 297 142 q 417 201 364 201 q 503 172 471 201 q 536 93 536 142 q 503 15 536 44 q 417 -14 471 -14 z "},";":{"ha":833,"x_min":278,"x_max":538,"o":"m 403 564 q 326 594 356 564 q 296 671 296 624 q 326 747 296 717 q 403 778 357 778 l 431 778 q 507 747 476 778 q 538 671 538 717 q 508 594 538 624 q 431 564 478 564 l 403 564 m 278 -222 l 353 210 l 513 210 l 413 -222 l 278 -222 z "},"<":{"ha":833,"x_min":115,"x_max":718,"o":"m 718 88 l 115 385 l 115 532 l 718 829 l 718 699 l 294 493 q 208 461 249 471 q 294 428 249 451 l 718 222 l 718 88 z "},"=":{"ha":833,"x_min":117,"x_max":717,"o":"m 117 564 l 117 688 l 717 688 l 717 564 l 117 564 m 117 229 l 117 353 l 717 353 l 717 229 l 117 229 z "},">":{"ha":833,"x_min":115,"x_max":718,"o":"m 115 88 l 115 218 l 539 422 q 625 456 590 447 q 539 489 585 465 l 115 694 l 115 829 l 718 532 l 718 385 l 115 88 z "},"?":{"ha":833,"x_min":175,"x_max":679,"o":"m 281 289 l 279 546 l 358 546 q 492 592 443 546 q 542 715 542 638 q 492 839 542 793 q 357 885 442 885 l 175 885 l 175 1014 l 356 1014 q 591 933 503 1014 q 679 715 679 851 q 605 514 679 593 q 413 429 531 435 l 413 289 l 281 289 m 324 -7 q 262 17 286 -7 q 238 79 238 40 q 262 140 238 117 q 324 164 286 164 l 365 164 q 429 140 406 164 q 453 79 453 117 q 428 17 453 42 q 365 -7 404 -7 l 324 -7 z "},"@":{"ha":833,"x_min":58,"x_max":782,"o":"m 451 -250 q 165 -141 271 -250 q 58 153 58 -32 l 58 625 q 160 920 58 813 q 438 1028 261 1028 q 690 937 597 1028 q 782 689 782 846 l 782 90 l 665 90 l 665 183 l 661 183 q 616 106 656 135 q 514 76 576 76 q 378 132 425 76 q 331 294 331 188 l 331 458 q 378 620 331 564 q 514 676 425 676 q 616 647 576 676 q 661 569 656 618 l 667 569 l 663 681 l 663 689 q 604 863 663 803 q 436 924 546 924 q 246 845 314 924 q 178 625 178 767 l 178 153 q 251 -61 178 17 q 451 -139 324 -139 l 549 -139 l 549 -250 l 451 -250 m 449 294 q 556 168 449 168 q 663 306 663 168 l 663 460 q 556 583 663 583 q 449 458 449 583 l 449 294 z "},"A":{"ha":833,"x_min":64,"x_max":769,"o":"m 64 0 l 326 1014 l 508 1014 l 769 0 l 629 0 l 565 264 l 268 264 l 204 0 l 64 0 m 296 378 l 538 378 l 465 681 q 417 901 426 836 q 369 682 407 840 l 296 378 z "},"B":{"ha":833,"x_min":124,"x_max":743,"o":"m 124 0 l 124 1014 l 417 1014 q 638 944 557 1014 q 719 751 719 874 q 678 613 719 669 q 564 536 638 556 q 695 447 647 514 q 743 283 743 381 q 660 76 743 153 q 436 0 578 0 l 124 0 m 258 586 l 415 586 q 538 627 493 586 q 582 739 582 668 q 538 852 582 811 q 417 893 493 893 l 258 893 l 258 586 m 258 121 l 424 121 q 557 166 508 121 q 606 289 606 211 q 556 419 606 369 q 424 469 507 469 l 258 469 l 258 121 z "},"C":{"ha":833,"x_min":117,"x_max":726,"o":"m 422 -14 q 199 65 281 -14 q 117 281 117 143 l 117 735 q 199 949 117 871 q 422 1028 281 1028 q 644 949 561 1028 q 726 735 726 869 l 589 735 q 545 861 589 817 q 422 906 501 906 q 299 861 343 906 q 254 735 254 817 l 254 281 q 299 153 254 197 q 422 108 343 108 q 545 153 501 108 q 589 281 589 197 l 726 281 q 644 66 726 146 q 422 -14 561 -14 z "},"D":{"ha":833,"x_min":122,"x_max":719,"o":"m 122 0 l 122 1014 l 394 1014 q 631 931 542 1014 q 719 707 719 847 l 719 308 q 631 84 719 168 q 394 0 543 0 l 122 0 m 260 122 l 394 122 q 532 172 482 122 q 582 308 582 222 l 582 707 q 532 842 582 793 q 394 892 482 892 l 260 892 l 260 122 z "},"E":{"ha":833,"x_min":135,"x_max":725,"o":"m 135 0 l 135 1014 l 725 1014 l 725 890 l 271 890 l 271 589 l 676 589 l 676 469 l 271 469 l 271 124 l 725 124 l 725 0 l 135 0 z "},"F":{"ha":833,"x_min":126,"x_max":732,"o":"m 126 0 l 126 1014 l 732 1014 l 732 888 l 261 888 l 261 568 l 696 568 l 696 443 l 264 443 l 264 0 l 126 0 z "},"G":{"ha":833,"x_min":117,"x_max":726,"o":"m 422 -14 q 199 65 281 -14 q 117 281 117 143 l 117 735 q 199 949 117 871 q 422 1028 281 1028 q 644 949 561 1028 q 726 735 726 869 l 589 735 q 545 861 589 817 q 422 906 501 906 q 299 861 343 906 q 254 735 254 817 l 254 281 q 299 153 254 197 q 422 108 343 108 q 545 153 501 108 q 589 281 589 197 l 589 399 l 392 399 l 392 522 l 726 522 l 726 281 q 644 66 726 146 q 422 -14 561 -14 z "},"H":{"ha":833,"x_min":124,"x_max":710,"o":"m 124 0 l 124 1014 l 261 1014 l 261 588 l 572 588 l 572 1014 l 710 1014 l 710 0 l 572 0 l 572 463 l 261 463 l 261 0 l 124 0 z "},"I":{"ha":833,"x_min":140,"x_max":693,"o":"m 140 0 l 140 125 l 347 125 l 347 889 l 140 889 l 140 1014 l 693 1014 l 693 889 l 486 889 l 486 125 l 693 125 l 693 0 l 140 0 z "},"J":{"ha":833,"x_min":57,"x_max":693,"o":"m 608 69 q 565 27 608 69 q 375 -14 522 -14 q 142 69 228 -14 q 57 294 57 151 l 194 294 q 242 157 194 206 q 375 108 289 108 q 508 157 460 108 q 556 293 556 206 l 556 889 l 271 889 l 271 1014 l 693 1014 l 693 293 q 608 69 693 151 z "},"K":{"ha":833,"x_min":122,"x_max":781,"o":"m 122 0 l 122 1014 l 260 1014 l 260 585 l 401 585 l 618 1014 l 768 1014 l 522 528 l 781 0 l 625 0 l 399 464 l 260 464 l 260 0 l 122 0 z "},"L":{"ha":833,"x_min":178,"x_max":767,"o":"m 178 0 l 178 1014 l 315 1014 l 315 125 l 767 125 l 767 0 l 178 0 z "},"M":{"ha":833,"x_min":99,"x_max":735,"o":"m 99 0 l 99 1014 l 274 1014 l 379 688 q 419 535 394 639 q 458 689 433 610 l 560 1014 l 735 1014 l 735 0 l 603 0 l 603 465 q 639 942 603 674 l 481 443 l 353 443 l 193 939 q 231 465 231 676 l 231 0 l 99 0 z "},"N":{"ha":833,"x_min":119,"x_max":715,"o":"m 119 0 l 119 1014 l 297 1014 l 600 158 q 585 468 585 321 l 585 1014 l 715 1014 l 715 0 l 536 0 l 236 856 q 249 551 249 696 l 249 0 l 119 0 z "},"O":{"ha":833,"x_min":117,"x_max":717,"o":"m 636 65 q 596 25 636 65 q 417 -14 556 -14 q 197 65 278 -14 q 117 281 117 143 l 117 735 q 197 949 117 871 q 417 1028 278 1028 q 636 949 556 1028 q 717 735 717 871 l 717 281 q 636 65 717 143 m 297 153 q 318 131 297 153 q 417 108 339 108 q 537 153 494 108 q 579 281 579 197 l 579 735 q 537 861 579 817 q 417 906 494 906 q 297 861 339 906 q 254 735 254 817 l 254 281 q 297 153 254 197 z "},"P":{"ha":833,"x_min":122,"x_max":768,"o":"m 122 0 l 122 1014 l 451 1014 q 682 932 596 1014 q 768 711 768 850 q 682 492 768 574 q 451 410 596 410 l 260 410 l 260 0 l 122 0 m 260 532 l 451 532 q 579 581 532 532 q 626 711 626 629 q 579 842 626 793 q 451 892 532 892 l 260 892 l 260 532 z "},"Q":{"ha":833,"x_min":107,"x_max":738,"o":"m 582 -250 l 438 -12 q 417 -14 432 -14 q 191 68 275 -14 q 107 286 107 150 l 107 728 q 191 947 107 865 q 417 1028 275 1028 q 642 946 558 1028 q 726 728 726 864 l 726 286 q 686 124 726 193 q 574 19 646 54 l 738 -250 l 582 -250 m 291 156 q 314 132 291 156 q 417 108 338 108 q 542 156 496 108 q 589 286 589 204 l 589 728 q 542 858 589 810 q 417 907 496 907 q 291 858 338 907 q 244 728 244 810 l 244 286 q 291 156 244 204 z "},"R":{"ha":833,"x_min":122,"x_max":761,"o":"m 122 0 l 122 1014 l 438 1014 q 662 933 576 1014 q 747 719 747 851 q 695 544 747 618 q 551 440 643 469 l 761 0 l 601 0 l 413 424 l 260 424 l 260 0 l 122 0 m 260 546 l 438 546 q 560 593 514 546 q 606 718 606 640 q 560 844 606 797 q 438 892 514 892 l 260 892 l 260 546 z "},"S":{"ha":833,"x_min":94,"x_max":739,"o":"m 421 -14 q 183 63 272 -14 q 94 268 94 139 l 232 268 q 284 152 232 196 q 422 108 336 108 q 554 152 506 108 q 603 268 603 196 q 572 369 603 326 q 489 428 542 413 l 346 471 q 180 578 239 503 q 121 754 121 653 q 203 953 121 879 q 424 1028 285 1028 q 643 953 561 1028 q 725 756 725 879 l 588 756 q 543 866 588 825 q 424 907 499 907 q 301 866 347 907 q 256 757 256 825 q 286 664 256 703 q 374 608 317 625 l 521 563 q 681 453 622 531 q 739 269 739 375 q 652 63 739 140 q 421 -14 565 -14 z "},"T":{"ha":833,"x_min":74,"x_max":760,"o":"m 349 0 l 349 889 l 74 889 l 74 1014 l 760 1014 l 760 889 l 486 889 l 486 0 l 349 0 z "},"U":{"ha":833,"x_min":119,"x_max":715,"o":"m 417 -14 q 197 65 275 -14 q 119 281 119 143 l 119 1014 l 257 1014 l 257 281 q 297 153 257 199 q 417 108 338 108 q 536 153 494 108 q 578 281 578 199 l 578 1014 l 715 1014 l 715 281 q 638 64 715 142 q 417 -14 560 -14 z "},"V":{"ha":833,"x_min":64,"x_max":769,"o":"m 324 0 l 64 1014 l 206 1014 l 374 331 q 419 113 389 271 q 465 332 433 196 l 628 1014 l 769 1014 l 508 0 l 324 0 z "},"W":{"ha":833,"x_min":32,"x_max":801,"o":"m 144 0 l 32 1014 l 158 1014 l 232 275 q 243 97 242 138 q 261 275 257 236 l 353 1014 l 486 1014 l 571 275 q 590 97 583 175 q 604 275 597 196 l 679 1014 l 801 1014 l 685 0 l 519 0 l 436 750 q 419 921 425 851 q 412 846 418 907 q 401 750 406 785 l 311 0 l 144 0 z "},"X":{"ha":833,"x_min":51,"x_max":782,"o":"m 51 0 l 340 515 l 67 1014 l 224 1014 l 374 725 q 390 693 381 711 q 408 657 399 675 q 419 633 417 639 q 464 725 435 669 l 615 1014 l 767 1014 l 493 522 l 782 0 l 626 0 l 460 311 q 415 407 425 379 q 369 313 389 347 l 203 0 l 51 0 z "},"Y":{"ha":833,"x_min":44,"x_max":789,"o":"m 349 0 l 349 376 l 44 1014 l 188 1014 l 378 614 q 418 507 410 544 q 461 614 433 557 l 647 1014 l 789 1014 l 486 376 l 486 0 l 349 0 z "},"Z":{"ha":833,"x_min":117,"x_max":718,"o":"m 117 0 l 117 135 l 560 889 l 124 889 l 124 1014 l 703 1014 l 703 879 l 258 125 l 718 125 l 718 0 l 117 0 z "},"[":{"ha":833,"x_min":278,"x_max":631,"o":"m 278 -153 l 278 1153 l 631 1153 l 631 1029 l 415 1029 l 415 -29 l 631 -29 l 631 -153 l 278 -153 z "},"\\":{"ha":833,"x_min":99,"x_max":735,"o":"m 590 -153 l 99 1153 l 243 1153 l 735 -153 l 590 -153 z "},"]":{"ha":833,"x_min":203,"x_max":556,"o":"m 203 -153 l 203 -29 l 418 -29 l 418 1029 l 203 1029 l 203 1153 l 556 1153 l 556 -153 l 203 -153 z "},"^":{"ha":833,"x_min":107,"x_max":726,"o":"m 107 472 l 353 1014 l 483 1014 l 726 472 l 601 472 l 453 821 q 421 915 429 876 q 385 821 396 843 l 232 472 l 107 472 z "},"_":{"ha":833,"x_min":83,"x_max":750,"o":"m 83 -153 l 83 -35 l 750 -35 l 750 -153 l 83 -153 z "},"`":{"ha":833,"x_min":218,"x_max":522,"o":"m 379 896 l 218 1090 l 371 1090 l 522 896 l 379 896 z "},"a":{"ha":833,"x_min":88,"x_max":714,"o":"m 346 -14 q 156 47 225 -14 q 88 215 88 108 q 159 385 88 324 q 354 447 231 447 l 576 447 l 576 519 q 534 623 576 586 q 419 660 492 660 q 310 630 353 660 q 260 557 267 600 l 125 557 q 218 717 136 656 q 424 778 300 778 q 635 710 557 778 q 714 524 714 642 l 714 0 l 579 0 l 579 142 l 578 142 q 506 28 568 69 q 346 -14 444 -14 m 383 93 q 522 135 468 93 q 576 244 576 178 l 576 349 l 357 349 q 260 315 296 349 q 225 225 225 282 q 267 128 225 163 q 383 93 308 93 z "},"b":{"ha":833,"x_min":122,"x_max":721,"o":"m 467 -14 q 325 28 381 -14 q 260 146 269 71 l 258 146 l 258 0 l 122 0 l 122 1014 l 260 1014 l 260 794 l 257 618 l 260 618 q 326 735 271 692 q 467 778 382 778 q 652 701 583 778 q 721 492 721 624 l 721 272 q 651 63 721 140 q 467 -14 582 -14 m 419 106 q 540 151 496 106 q 583 281 583 197 l 583 485 q 540 613 583 568 q 419 658 496 658 q 302 613 344 658 q 260 485 260 567 l 260 281 q 302 151 260 197 q 419 106 344 106 z "},"c":{"ha":833,"x_min":113,"x_max":725,"o":"m 422 -14 q 197 65 281 -14 q 113 281 113 144 l 113 485 q 197 699 113 621 q 422 778 281 778 q 639 706 557 778 q 725 511 721 635 l 589 511 q 540 618 585 579 q 422 657 496 657 q 296 612 342 657 q 250 485 250 567 l 250 281 q 296 153 250 199 q 422 108 342 108 q 540 147 496 108 q 589 253 585 185 l 725 253 q 639 58 721 129 q 422 -14 557 -14 z "},"d":{"ha":833,"x_min":113,"x_max":711,"o":"m 367 -14 q 182 63 251 -14 q 113 272 113 140 l 113 492 q 181 701 113 624 q 367 778 250 778 q 505 736 450 778 q 574 621 560 694 l 576 621 l 574 794 l 574 1014 l 711 1014 l 711 0 l 575 0 l 575 144 l 574 144 q 506 28 560 69 q 367 -14 451 -14 m 414 106 q 531 152 488 106 q 574 281 574 199 l 574 483 q 531 612 574 565 q 414 658 488 658 q 294 613 338 658 q 250 485 250 568 l 250 281 q 294 151 250 197 q 414 106 338 106 z "},"e":{"ha":833,"x_min":113,"x_max":721,"o":"m 417 -14 q 196 67 279 -14 q 113 281 113 147 l 113 485 q 196 697 113 617 q 417 778 279 778 q 638 697 556 778 q 721 485 721 617 l 721 349 l 247 349 l 247 281 q 291 146 247 192 q 417 100 335 100 q 581 197 560 100 l 717 197 q 621 44 703 101 q 417 -14 539 -14 m 247 485 l 247 447 l 588 447 l 588 485 q 544 619 588 572 q 417 665 500 665 q 291 619 335 665 q 247 485 247 572 z "},"f":{"ha":833,"x_min":81,"x_max":746,"o":"m 300 0 l 300 561 l 81 561 l 81 686 l 300 686 l 300 814 q 360 960 300 907 q 522 1014 419 1014 l 746 1014 l 746 890 l 522 890 q 460 870 482 890 q 438 813 438 850 l 438 686 l 746 686 l 746 561 l 438 561 l 438 0 l 300 0 z "},"g":{"ha":833,"x_min":117,"x_max":710,"o":"m 221 -250 l 221 -128 l 460 -128 q 574 -19 574 -128 l 574 68 l 576 207 l 574 207 q 511 90 565 133 q 371 47 457 47 q 185 125 253 47 q 117 335 117 203 l 117 492 q 185 701 117 624 q 371 778 253 778 q 511 735 457 778 q 574 618 565 693 l 575 618 l 574 764 l 710 764 l 710 -21 q 643 -189 710 -128 q 460 -250 576 -250 l 221 -250 m 414 167 q 531 213 488 167 q 574 342 574 260 l 574 485 q 531 613 574 567 q 414 658 489 658 q 296 613 338 658 q 254 485 254 568 l 254 342 q 296 212 254 257 q 414 167 338 167 z "},"h":{"ha":833,"x_min":122,"x_max":714,"o":"m 122 0 l 122 1014 l 260 1014 l 260 764 l 258 618 l 261 618 q 324 736 271 694 q 464 778 376 778 q 646 706 578 778 q 714 511 714 633 l 714 0 l 576 0 l 576 496 q 535 617 576 574 q 421 661 493 661 q 303 615 346 661 q 260 485 260 568 l 260 0 l 122 0 z "},"i":{"ha":833,"x_min":115,"x_max":772,"o":"m 514 923 q 500 911 514 923 q 439 899 486 899 q 364 923 392 899 q 336 989 336 947 q 363 1057 336 1032 q 439 1082 390 1082 q 514 1057 486 1082 q 542 989 542 1032 q 514 923 542 947 m 115 0 l 115 125 l 383 125 l 383 639 l 143 639 l 143 764 l 521 764 l 521 125 l 772 125 l 772 0 l 115 0 z "},"j":{"ha":833,"x_min":96,"x_max":639,"o":"m 612 923 q 598 911 612 923 q 538 899 585 899 q 463 923 490 899 q 435 989 435 947 q 462 1057 435 1032 q 538 1082 489 1082 q 612 1057 585 1082 q 639 989 639 1032 q 612 923 639 947 m 96 -250 l 96 -124 l 301 -124 q 428 -79 383 -124 q 474 46 474 -35 l 474 639 l 124 639 l 124 764 l 611 764 l 611 44 q 528 -170 611 -90 q 304 -250 444 -250 l 96 -250 z "},"k":{"ha":833,"x_min":126,"x_max":778,"o":"m 126 0 l 126 1014 l 264 1014 l 264 453 l 406 453 l 618 764 l 774 764 l 524 399 l 778 0 l 619 0 l 406 335 l 264 335 l 264 0 l 126 0 z "},"l":{"ha":833,"x_min":42,"x_max":768,"o":"m 532 0 q 365 61 428 0 q 301 224 301 122 l 301 889 l 42 889 l 42 1014 l 439 1014 l 439 225 q 465 152 439 179 q 535 125 490 125 l 768 125 l 768 0 l 532 0 z "},"m":{"ha":833,"x_min":79,"x_max":754,"o":"m 79 0 l 79 764 l 197 764 l 197 669 l 206 669 q 249 748 214 718 q 333 778 283 778 q 413 749 379 778 q 461 669 446 719 l 468 669 q 513 748 478 718 q 599 778 547 778 q 711 723 668 778 q 754 581 754 668 l 754 0 l 629 0 l 629 579 q 551 674 629 674 q 492 649 513 674 q 471 579 471 624 l 471 0 l 363 0 l 363 579 q 342 649 363 624 q 282 674 321 674 q 204 579 204 674 l 204 0 l 79 0 z "},"n":{"ha":833,"x_min":122,"x_max":714,"o":"m 122 0 l 122 764 l 258 764 l 258 618 l 261 618 q 324 736 271 694 q 464 778 376 778 q 646 706 578 778 q 714 511 714 633 l 714 0 l 576 0 l 576 496 q 535 616 576 574 q 421 658 493 658 q 303 613 346 658 q 260 485 260 568 l 260 0 l 122 0 z "},"o":{"ha":833,"x_min":113,"x_max":721,"o":"m 639 67 q 598 28 639 67 q 417 -11 557 -11 q 194 67 276 -11 q 113 282 113 146 l 113 482 q 194 697 113 618 q 417 775 276 775 q 639 697 557 775 q 721 483 721 618 l 721 282 q 639 67 721 146 m 294 154 q 316 132 294 154 q 417 110 338 110 q 540 154 496 110 q 583 282 583 199 l 583 482 q 540 610 583 565 q 417 654 496 654 q 294 610 338 654 q 250 482 250 565 l 250 282 q 294 154 250 199 z "},"p":{"ha":833,"x_min":124,"x_max":722,"o":"m 124 -250 l 124 764 l 260 764 l 260 621 l 261 621 q 330 736 275 694 q 469 778 385 778 q 653 701 585 778 q 722 492 722 624 l 722 274 q 653 64 722 142 q 469 -14 585 -14 q 331 28 386 -14 q 261 144 275 71 l 258 144 l 261 -29 l 261 -250 l 124 -250 m 422 106 q 542 151 499 106 q 585 281 585 197 l 585 485 q 542 613 585 568 q 422 658 499 658 q 304 612 347 658 q 261 483 261 565 l 261 281 q 304 152 261 199 q 422 106 347 106 z "},"q":{"ha":833,"x_min":117,"x_max":711,"o":"m 574 -250 l 574 -29 l 576 144 l 574 144 q 505 28 560 71 q 367 -14 450 -14 q 184 63 251 -14 q 117 274 117 140 l 117 492 q 184 701 117 624 q 367 778 251 778 q 506 736 451 778 q 574 621 560 694 l 575 621 l 575 764 l 711 764 l 711 -250 l 574 -250 m 414 106 q 531 152 488 106 q 574 281 574 199 l 574 483 q 531 612 574 565 q 414 658 488 658 q 296 613 338 658 q 254 485 254 568 l 254 281 q 296 151 254 196 q 414 106 338 106 z "},"r":{"ha":833,"x_min":146,"x_max":749,"o":"m 146 0 l 146 764 l 282 764 l 282 618 l 285 618 q 348 736 294 694 q 489 778 401 778 q 678 701 607 778 q 749 496 749 625 l 749 440 l 610 440 l 610 485 q 567 613 610 568 q 443 658 524 658 q 283 482 283 658 l 283 0 l 146 0 z "},"s":{"ha":833,"x_min":117,"x_max":729,"o":"m 392 -11 q 193 45 269 -11 q 117 196 117 101 l 257 196 q 295 131 257 154 q 394 107 333 107 l 453 107 q 594 211 594 107 q 467 322 594 300 l 363 338 q 191 411 247 357 q 135 558 135 465 q 204 719 135 664 q 403 775 274 775 l 456 775 q 647 722 575 775 q 719 581 719 669 l 579 581 q 545 636 579 615 q 453 657 511 657 l 400 657 q 269 558 269 657 q 383 460 269 479 l 488 443 q 671 370 613 424 q 729 217 729 317 q 658 49 729 108 q 450 -11 588 -11 l 392 -11 z "},"t":{"ha":833,"x_min":72,"x_max":725,"o":"m 500 0 q 344 57 403 0 q 286 208 286 114 l 286 639 l 72 639 l 72 764 l 286 764 l 286 979 l 424 979 l 424 764 l 725 764 l 725 639 l 424 639 l 424 210 q 445 148 424 171 q 503 125 467 125 l 711 125 l 711 0 l 500 0 z "},"u":{"ha":833,"x_min":119,"x_max":714,"o":"m 633 65 q 592 26 633 65 q 415 -14 551 -14 q 199 66 279 -14 q 119 281 119 146 l 119 764 l 257 764 l 257 281 q 299 152 257 197 q 415 107 340 107 q 533 152 490 107 q 576 281 576 197 l 576 764 l 714 764 l 714 281 q 633 65 714 144 z "},"v":{"ha":833,"x_min":64,"x_max":771,"o":"m 328 0 l 64 764 l 206 764 l 378 263 q 394 206 386 236 q 410 146 403 175 q 419 108 417 117 q 429 146 422 117 q 444 206 436 175 q 461 263 451 236 l 628 764 l 771 764 l 506 0 l 328 0 z "},"w":{"ha":833,"x_min":43,"x_max":790,"o":"m 164 0 l 43 764 l 160 764 l 233 242 q 247 104 242 178 l 253 104 q 271 242 258 176 l 351 764 l 482 764 l 563 242 q 581 104 575 172 l 586 104 q 603 242 599 208 l 679 764 l 790 764 l 664 0 l 517 0 l 438 514 q 418 658 418 657 l 413 658 q 394 514 407 590 l 313 0 l 164 0 z "},"x":{"ha":833,"x_min":64,"x_max":769,"o":"m 64 0 l 335 393 l 82 764 l 242 764 l 385 540 q 418 476 403 511 q 450 540 431 511 l 594 764 l 753 764 l 500 392 l 769 0 l 608 0 l 453 240 q 418 308 450 244 q 381 240 394 261 l 224 0 l 64 0 z "},"y":{"ha":833,"x_min":63,"x_max":771,"o":"m 244 -250 l 356 46 l 63 764 l 213 764 l 390 313 q 425 192 410 258 q 461 313 442 263 l 626 764 l 771 764 l 388 -250 l 244 -250 z "},"z":{"ha":833,"x_min":121,"x_max":713,"o":"m 121 0 l 121 133 l 542 640 l 132 640 l 132 764 l 697 764 l 697 631 l 269 124 l 713 124 l 713 0 l 121 0 z "},"{":{"ha":833,"x_min":103,"x_max":704,"o":"m 633 -153 q 437 -90 507 -153 q 376 82 367 -26 l 397 306 q 376 408 404 378 q 267 438 347 438 l 103 438 l 103 561 l 267 561 q 376 592 347 561 q 397 694 404 622 l 376 919 q 438 1090 367 1028 q 633 1153 508 1153 l 704 1153 l 704 1029 l 639 1029 q 543 1000 576 1029 q 514 915 510 971 l 535 690 q 503 565 542 614 q 393 506 465 517 q 503 438 464 492 q 535 310 542 385 l 514 85 q 542 0 508 29 q 639 -29 575 -29 l 704 -29 l 704 -153 l 633 -153 z "},"|":{"ha":833,"x_min":349,"x_max":486,"o":"m 349 -153 l 349 1153 l 486 1153 l 486 -153 l 349 -153 z "},"}":{"ha":833,"x_min":131,"x_max":732,"o":"m 131 -153 l 131 -29 l 194 -29 q 292 0 258 -29 q 319 85 325 29 l 299 310 q 331 440 292 386 q 440 506 369 493 q 330 565 368 517 q 299 690 292 614 l 319 915 q 290 1000 324 971 q 194 1029 257 1029 l 131 1029 l 131 1153 l 201 1153 q 396 1090 325 1153 q 457 919 467 1028 l 436 694 q 458 592 429 622 q 567 561 486 561 l 732 561 l 732 438 l 567 438 q 458 408 486 438 q 436 306 429 378 l 457 82 q 397 -90 467 -26 q 201 -153 326 -153 l 131 -153 z "},"~":{"ha":833,"x_min":92,"x_max":743,"o":"m 92 354 l 92 454 q 142 587 92 536 q 276 638 193 638 q 364 619 325 638 q 425 573 403 600 q 467 519 447 546 q 508 473 486 492 q 556 454 531 454 q 617 526 617 454 l 617 625 l 743 625 l 743 525 q 692 392 743 443 q 557 342 640 342 q 470 360 508 342 q 409 406 432 379 q 367 460 386 433 q 326 506 349 488 q 279 525 304 525 q 217 453 217 525 l 217 354 l 92 354 z "}," ":{"ha":833,"x_min":0,"x_max":0,"o":""},"¡":{"ha":833,"x_min":310,"x_max":524,"o":"m 401 601 q 335 625 360 601 q 310 688 310 649 q 335 749 310 726 q 401 772 360 772 l 432 772 q 499 750 474 772 q 524 689 524 728 q 499 625 524 649 q 432 601 474 601 l 401 601 m 338 -250 l 338 -69 l 367 460 l 467 460 l 496 -69 l 496 -250 l 338 -250 z "},"¢":{"ha":833,"x_min":113,"x_max":725,"o":"m 379 -194 l 379 -12 q 184 77 256 0 q 113 281 113 154 l 113 483 q 184 687 113 610 q 379 776 256 764 l 379 958 l 464 958 l 464 776 q 651 695 582 765 q 725 511 721 625 l 589 511 q 464 653 581 631 l 464 111 q 589 253 581 133 l 725 253 q 651 69 721 139 q 464 -12 582 -1 l 464 -194 l 379 -194 m 250 281 q 379 111 250 136 l 379 653 q 250 485 250 628 l 250 281 z "},"£":{"ha":833,"x_min":103,"x_max":743,"o":"m 104 0 l 104 151 q 208 251 161 193 q 256 357 256 310 q 250 419 256 393 l 103 419 l 103 539 l 204 539 q 179 578 197 550 q 153 621 161 606 q 133 661 144 636 q 117 713 122 686 q 113 768 113 739 q 195 957 113 886 q 417 1028 278 1028 q 637 956 556 1028 q 721 760 718 885 l 578 760 q 532 867 576 826 q 415 907 488 907 q 294 868 338 907 q 251 760 251 829 q 267 684 251 718 q 311 608 282 650 q 354 539 340 567 l 604 539 l 604 419 l 388 419 q 390 369 390 389 q 340 220 390 286 q 229 124 290 154 l 743 124 l 743 0 l 104 0 z "},"¤":{"ha":833,"x_min":58,"x_max":776,"o":"m 688 157 l 567 278 q 418 238 503 238 q 268 278 333 238 l 149 158 l 61 246 l 178 364 q 132 518 132 432 q 178 674 132 604 l 58 793 l 147 882 l 269 760 q 418 799 336 799 q 571 756 504 799 l 688 874 l 775 786 l 660 671 q 701 518 701 600 q 658 364 701 436 l 776 246 l 688 157 m 418 339 q 543 390 493 339 q 593 518 593 442 q 543 646 593 594 q 418 697 493 697 q 291 646 342 697 q 240 518 240 594 q 291 390 240 442 q 418 339 342 339 z "},"¥":{"ha":833,"x_min":44,"x_max":789,"o":"m 83 163 l 83 274 l 349 274 l 349 374 l 83 374 l 83 483 l 297 483 l 44 1014 l 188 1014 l 378 614 q 418 507 410 544 q 461 614 433 557 l 647 1014 l 789 1014 l 536 483 l 750 483 l 750 374 l 486 374 l 486 274 l 750 274 l 750 163 l 486 163 l 486 0 l 349 0 l 349 163 l 83 163 z "},"¦":{"ha":833,"x_min":349,"x_max":486,"o":"m 349 625 l 349 1153 l 486 1153 l 486 625 l 349 625 m 349 -153 l 349 375 l 486 375 l 486 -153 l 349 -153 z "},"§":{"ha":833,"x_min":100,"x_max":733,"o":"m 396 -214 q 197 -156 278 -214 q 100 0 115 -97 l 243 0 q 298 -69 256 -43 q 396 -96 340 -96 l 438 -96 q 554 -65 513 -96 q 596 19 596 -33 q 460 142 596 114 l 332 169 q 172 250 232 189 q 113 393 113 311 q 164 528 113 472 q 294 590 215 583 l 294 600 q 172 652 226 601 q 118 801 118 703 q 193 967 118 906 q 400 1028 268 1028 l 442 1028 q 633 972 556 1028 q 724 825 710 917 l 581 825 q 533 886 571 863 q 442 910 496 910 l 400 910 q 294 881 332 910 q 256 801 256 851 q 290 727 256 758 q 385 683 324 696 l 511 656 q 672 574 614 635 q 731 429 731 514 q 679 294 731 347 q 544 239 628 240 l 544 229 q 674 171 615 224 q 733 22 733 118 q 655 -151 733 -87 q 438 -214 576 -214 l 396 -214 m 456 261 q 554 294 515 249 q 593 413 593 339 q 563 497 593 461 q 485 543 533 532 l 386 564 q 288 533 326 576 q 250 418 250 490 q 278 328 250 365 q 354 282 307 290 l 456 261 z "},"¨":{"ha":833,"x_min":168,"x_max":665,"o":"m 574 899 q 506 923 531 899 q 481 989 481 947 q 506 1057 481 1032 q 574 1082 531 1082 q 640 1057 615 1082 q 665 989 665 1032 q 640 923 665 947 q 574 899 615 899 m 260 899 q 193 923 218 899 q 168 989 168 947 q 193 1057 168 1032 q 260 1082 218 1082 q 328 1057 303 1082 q 353 989 353 1032 q 328 923 353 947 q 260 899 303 899 z "},"©":{"ha":833,"x_min":63,"x_max":771,"o":"m 674 244 q 625 199 674 244 q 417 153 576 153 q 160 244 257 153 q 63 486 63 336 l 63 694 q 160 936 63 844 q 417 1028 257 1028 q 674 936 576 1028 q 771 694 771 844 l 771 486 q 674 244 771 336 m 417 222 q 618 294 542 222 q 694 486 694 367 l 694 694 q 618 886 694 814 q 417 958 542 958 q 216 885 293 958 q 139 694 139 813 l 139 486 q 216 295 139 368 q 417 222 293 222 m 424 340 q 297 385 344 340 q 249 503 249 429 l 249 679 q 297 796 249 751 q 424 840 344 840 q 550 796 501 840 q 599 679 599 751 l 504 679 q 482 738 504 715 q 424 760 460 760 q 365 738 388 760 q 343 679 343 715 l 343 503 q 365 443 343 465 q 424 421 388 421 q 482 443 460 421 q 504 503 504 465 l 599 503 q 550 385 599 431 q 424 340 501 340 z "},"ª":{"ha":833,"x_min":242,"x_max":586,"o":"m 379 625 q 279 658 317 625 q 242 744 242 690 q 281 831 242 799 q 389 864 321 864 l 510 864 l 510 903 q 487 951 510 933 q 424 968 464 968 q 365 953 389 968 q 338 915 342 939 l 263 915 q 312 998 269 968 q 424 1028 354 1028 q 542 994 499 1028 q 586 903 586 961 l 586 632 l 514 632 l 514 708 l 510 708 q 460 647 494 669 q 379 625 425 625 m 399 682 q 480 706 450 682 q 510 771 510 729 l 510 806 l 389 806 q 317 746 317 806 q 339 699 317 715 q 399 682 361 682 z "},"«":{"ha":833,"x_min":39,"x_max":794,"o":"m 638 56 l 365 389 l 638 722 l 794 722 l 517 392 l 794 56 l 638 56 m 311 56 l 39 389 l 310 722 l 468 722 l 189 392 l 468 56 l 311 56 z "},"¬":{"ha":833,"x_min":97,"x_max":736,"o":"m 604 279 l 604 460 l 97 460 l 97 583 l 736 583 l 736 279 l 604 279 z "},"­":{"ha":833,"x_min":194,"x_max":639,"o":"m 194 397 l 194 521 l 639 521 l 639 397 l 194 397 z "},"®":{"ha":833,"x_min":63,"x_max":771,"o":"m 674 244 q 625 199 674 244 q 417 153 576 153 q 160 244 257 153 q 63 486 63 336 l 63 694 q 160 936 63 844 q 417 1028 257 1028 q 674 936 576 1028 q 771 694 771 844 l 771 486 q 674 244 771 336 m 139 486 q 216 295 139 368 q 417 222 293 222 q 618 294 542 222 q 694 486 694 367 l 694 694 q 618 886 694 814 q 417 958 542 958 q 216 885 293 958 q 139 694 139 813 l 139 486 m 263 347 l 263 833 l 422 833 q 543 794 499 833 q 588 686 588 754 q 504 556 588 593 l 596 347 l 503 347 l 421 540 l 350 540 l 350 347 l 263 347 m 350 614 l 422 614 q 478 633 458 614 q 499 688 499 653 q 478 742 499 722 q 422 763 458 763 l 350 763 l 350 614 z "},"¯":{"ha":833,"x_min":190,"x_max":643,"o":"m 190 928 l 190 1039 l 643 1039 l 643 928 l 190 928 z "},"°":{"ha":833,"x_min":208,"x_max":625,"o":"m 568 681 q 540 653 568 681 q 417 625 511 625 q 265 681 322 625 q 208 826 208 736 q 265 972 208 917 q 417 1028 322 1028 q 568 972 511 1028 q 625 826 625 917 q 568 681 625 736 m 415 699 q 505 734 471 699 q 539 826 539 769 q 505 920 539 885 q 415 956 471 956 q 328 920 361 956 q 294 826 294 885 q 328 734 294 769 q 415 699 361 699 z "},"±":{"ha":833,"x_min":89,"x_max":746,"o":"m 96 0 l 96 106 l 350 106 l 350 403 l 89 403 l 89 526 l 350 526 l 350 792 l 485 792 l 485 526 l 746 526 l 746 403 l 485 403 l 485 106 l 738 106 l 738 0 l 96 0 z "},"²":{"ha":833,"x_min":208,"x_max":635,"o":"m 228 563 l 228 686 l 456 853 q 519 967 519 899 q 491 1046 519 1017 q 415 1075 463 1075 q 338 1046 367 1075 q 310 967 310 1017 l 208 967 q 267 1113 211 1058 q 415 1167 324 1167 q 565 1113 510 1167 q 621 969 621 1060 q 590 869 621 919 q 508 782 560 818 l 335 656 l 635 656 l 635 563 l 228 563 z "},"³":{"ha":833,"x_min":186,"x_max":603,"o":"m 547 601 q 518 575 547 601 q 394 549 490 549 q 242 601 299 549 q 186 744 186 654 l 288 744 q 316 668 288 696 q 394 640 344 640 q 470 669 442 640 q 499 744 499 697 q 471 820 499 792 q 396 849 443 849 l 354 849 l 354 942 l 481 1061 l 226 1061 l 226 1154 l 565 1154 l 565 1042 l 443 928 q 560 868 518 917 q 603 744 603 819 q 547 601 603 654 z "},"´":{"ha":833,"x_min":317,"x_max":611,"o":"m 317 896 l 463 1090 l 611 1090 l 456 896 l 317 896 z "},"µ":{"ha":833,"x_min":124,"x_max":711,"o":"m 124 -250 l 124 764 l 261 764 l 261 281 q 301 151 261 197 q 415 106 342 106 q 532 151 490 106 q 574 281 574 197 l 574 764 l 711 764 l 711 0 l 576 0 l 576 146 l 574 146 q 414 -14 560 -14 q 302 27 338 -14 q 261 146 267 68 l 258 146 l 261 -29 l 261 -250 l 124 -250 z "},"¶":{"ha":833,"x_min":88,"x_max":707,"o":"m 351 -250 l 351 431 q 160 496 232 431 q 88 667 88 561 l 88 778 q 160 949 88 883 q 351 1014 232 1014 l 468 1014 l 468 -250 l 351 -250 m 589 -250 l 589 1014 l 707 1014 l 707 -250 l 589 -250 z "},"·":{"ha":833,"x_min":297,"x_max":536,"o":"m 504 391 q 488 375 504 391 q 417 360 472 360 q 329 391 361 360 q 297 476 297 422 q 329 565 297 532 q 417 597 361 597 q 504 565 472 597 q 536 476 536 532 q 504 391 536 422 z "},"¸":{"ha":833,"x_min":282,"x_max":576,"o":"m 282 -286 l 282 -207 l 381 -207 q 431 -192 411 -207 q 450 -157 450 -176 q 410 -113 450 -131 q 303 -96 371 -96 l 351 35 l 433 35 l 404 -50 q 523 -87 469 -56 q 576 -169 576 -119 q 528 -252 576 -218 q 406 -286 481 -286 l 282 -286 z "},"¹":{"ha":833,"x_min":214,"x_max":642,"o":"m 214 563 l 214 656 l 396 656 l 396 1061 l 226 940 l 226 1054 l 361 1153 l 499 1153 l 499 656 l 642 656 l 642 563 l 214 563 z "},"º":{"ha":833,"x_min":253,"x_max":581,"o":"m 535 660 q 513 640 535 660 q 417 619 490 619 q 298 660 343 619 q 253 768 253 701 l 253 874 q 298 981 253 940 q 417 1022 343 1022 q 535 981 490 1022 q 581 874 581 940 l 581 768 q 535 660 581 701 m 417 681 q 481 705 457 681 q 506 768 506 729 l 506 874 q 481 936 506 913 q 417 960 457 960 q 353 936 378 960 q 329 874 329 913 l 329 768 q 353 704 329 728 q 417 681 378 681 z "},"»":{"ha":833,"x_min":39,"x_max":794,"o":"m 367 56 l 640 390 l 365 722 l 522 722 l 794 389 l 524 56 l 367 56 m 40 56 l 313 390 l 39 722 l 196 722 l 468 389 l 196 56 l 40 56 z "},"¼":{"ha":833,"x_min":43,"x_max":751,"o":"m 121 0 l 399 563 l 43 563 l 43 638 l 206 638 l 206 954 q 160 901 185 924 l 74 828 l 74 931 l 171 1014 l 296 1014 l 296 638 l 429 638 l 429 625 l 621 1014 l 713 1014 l 213 0 l 121 0 m 663 0 l 663 96 l 421 96 l 421 211 l 596 451 l 699 451 l 511 192 l 511 169 l 663 169 l 663 289 l 751 289 l 751 0 l 663 0 z "},"½":{"ha":833,"x_min":43,"x_max":794,"o":"m 121 0 l 399 563 l 43 563 l 43 638 l 206 638 l 206 956 q 160 901 188 925 l 74 828 l 74 931 l 171 1014 l 296 1014 l 296 638 l 435 638 l 621 1014 l 713 1014 l 213 0 l 121 0 m 436 0 l 436 94 l 608 192 q 699 300 699 244 q 675 362 699 339 q 613 385 651 385 q 550 362 574 385 q 526 300 526 339 l 436 300 q 488 415 439 372 q 613 458 536 458 q 740 416 692 458 q 788 304 788 374 q 667 146 788 215 l 544 78 l 544 64 q 646 75 600 75 l 794 75 l 794 0 l 436 0 z "},"¾":{"ha":833,"x_min":35,"x_max":751,"o":"m 344 596 q 319 576 344 596 q 214 556 294 556 q 84 596 133 556 q 35 701 35 636 l 124 701 q 149 649 124 669 q 214 629 174 629 q 278 649 254 629 q 303 703 303 669 q 278 756 303 735 q 215 776 254 776 l 174 776 l 174 857 l 282 942 l 68 942 l 68 1014 l 371 1014 l 371 936 l 254 846 q 355 799 317 838 q 393 703 393 761 q 344 596 393 636 m 121 0 l 621 1014 l 713 1014 l 213 0 l 121 0 m 663 0 l 663 96 l 421 96 l 421 211 l 596 451 l 699 451 l 511 192 l 511 169 l 663 169 l 663 289 l 751 289 l 751 0 l 663 0 z "},"¿":{"ha":833,"x_min":147,"x_max":650,"o":"m 467 600 q 399 624 425 600 q 374 688 374 649 q 399 748 374 725 q 467 771 425 771 l 496 771 q 563 749 538 771 q 589 688 589 726 q 563 624 589 649 q 496 600 538 600 l 467 600 m 471 -236 q 234 -158 321 -236 q 147 56 147 -79 q 221 252 147 175 q 414 335 294 329 l 414 475 l 546 475 l 547 218 l 467 218 q 333 175 382 218 q 285 56 285 132 q 333 -64 285 -21 q 468 -107 382 -107 l 650 -107 l 650 -236 l 471 -236 z "},"À":{"ha":833,"x_min":64,"x_max":769,"o":"m 365 1125 l 204 1319 l 357 1319 l 508 1125 l 365 1125 m 64 0 l 326 1014 l 508 1014 l 769 0 l 629 0 l 565 264 l 268 264 l 204 0 l 64 0 m 296 378 l 538 378 l 465 681 q 417 901 426 836 q 369 682 407 840 l 296 378 z "},"Á":{"ha":833,"x_min":64,"x_max":769,"o":"m 331 1125 l 476 1319 l 625 1319 l 469 1125 l 331 1125 m 64 0 l 326 1014 l 508 1014 l 769 0 l 629 0 l 565 264 l 268 264 l 204 0 l 64 0 m 296 378 l 538 378 l 465 681 q 417 901 426 836 q 369 682 407 840 l 296 378 z "},"Â":{"ha":833,"x_min":64,"x_max":769,"o":"m 160 1125 l 353 1319 l 479 1319 l 674 1125 l 528 1125 l 417 1232 l 308 1125 l 160 1125 m 64 0 l 326 1014 l 508 1014 l 769 0 l 629 0 l 565 264 l 268 264 l 204 0 l 64 0 m 296 378 l 538 378 l 465 681 q 417 901 426 836 q 369 682 407 840 l 296 378 z "},"Ã":{"ha":833,"x_min":64,"x_max":769,"o":"m 514 1129 q 432 1153 465 1129 q 374 1200 399 1176 q 326 1224 350 1224 q 285 1176 285 1224 l 285 1136 l 190 1136 l 190 1179 q 226 1278 190 1242 q 319 1315 261 1315 q 401 1292 368 1315 q 459 1244 435 1268 q 507 1221 483 1221 q 549 1268 549 1221 l 549 1308 l 643 1308 l 643 1267 q 608 1166 643 1203 q 514 1129 572 1129 m 64 0 l 326 1014 l 508 1014 l 769 0 l 629 0 l 565 264 l 268 264 l 204 0 l 64 0 m 296 378 l 538 378 l 465 681 q 417 901 426 836 q 369 682 407 840 l 296 378 z "},"Ä":{"ha":833,"x_min":64,"x_max":769,"o":"m 574 1132 q 506 1156 531 1132 q 481 1222 481 1181 q 506 1290 481 1265 q 574 1315 531 1315 q 640 1290 615 1315 q 665 1222 665 1265 q 640 1156 665 1181 q 574 1132 615 1132 m 260 1132 q 193 1156 218 1132 q 168 1222 168 1181 q 193 1290 168 1265 q 260 1315 218 1315 q 328 1290 303 1315 q 353 1222 353 1265 q 328 1156 353 1181 q 260 1132 303 1132 m 64 0 l 326 1014 l 508 1014 l 769 0 l 629 0 l 565 264 l 268 264 l 204 0 l 64 0 m 296 378 l 538 378 l 465 681 q 417 901 426 836 q 369 682 407 840 l 296 378 z "},"Å":{"ha":833,"x_min":64,"x_max":769,"o":"m 540 1106 q 517 1083 540 1106 q 417 1061 493 1061 q 293 1106 340 1061 q 246 1222 246 1150 q 293 1339 246 1294 q 417 1383 340 1383 q 540 1339 493 1383 q 588 1222 588 1294 q 540 1106 588 1150 m 356 1161 q 368 1150 356 1161 q 417 1139 379 1139 q 477 1161 454 1139 q 500 1222 500 1183 q 477 1284 500 1261 q 417 1307 454 1307 q 356 1284 379 1307 q 333 1222 333 1261 q 356 1161 333 1183 m 64 0 l 326 1014 l 508 1014 l 769 0 l 629 0 l 565 264 l 268 264 l 204 0 l 64 0 m 296 378 l 538 378 l 465 681 q 417 901 426 836 q 369 682 407 840 l 296 378 z "},"Æ":{"ha":833,"x_min":36,"x_max":794,"o":"m 36 0 l 235 1014 l 794 1014 l 794 892 l 544 892 l 544 586 l 760 586 l 760 463 l 544 463 l 544 124 l 794 124 l 794 0 l 417 0 l 417 274 l 225 274 l 172 0 l 36 0 m 246 385 l 417 385 l 417 892 l 340 892 l 246 385 z "},"Ç":{"ha":833,"x_min":117,"x_max":726,"o":"m 290 -286 l 290 -207 l 389 -207 q 439 -192 419 -207 q 458 -157 458 -176 q 418 -113 458 -131 q 310 -96 378 -96 l 343 -7 q 177 90 238 14 q 117 281 117 165 l 117 735 q 199 949 117 871 q 422 1028 281 1028 q 644 949 561 1028 q 726 735 726 869 l 589 735 q 545 861 589 817 q 422 906 501 906 q 299 861 343 906 q 254 735 254 817 l 254 281 q 299 153 254 197 q 422 108 343 108 q 545 153 501 108 q 589 281 589 197 l 726 281 q 644 66 726 146 q 425 -14 563 -14 l 413 -50 q 530 -87 476 -56 q 583 -169 583 -119 q 535 -252 583 -218 q 413 -286 488 -286 l 290 -286 z "},"È":{"ha":833,"x_min":135,"x_max":725,"o":"m 393 1125 l 232 1319 l 385 1319 l 536 1125 l 393 1125 m 135 0 l 135 1014 l 725 1014 l 725 890 l 271 890 l 271 589 l 676 589 l 676 469 l 271 469 l 271 124 l 725 124 l 725 0 l 135 0 z "},"É":{"ha":833,"x_min":135,"x_max":725,"o":"m 358 1125 l 504 1319 l 653 1319 l 497 1125 l 358 1125 m 135 0 l 135 1014 l 725 1014 l 725 890 l 271 890 l 271 589 l 676 589 l 676 469 l 271 469 l 271 124 l 725 124 l 725 0 l 135 0 z "},"Ê":{"ha":833,"x_min":135,"x_max":725,"o":"m 188 1125 l 381 1319 l 507 1319 l 701 1125 l 556 1125 l 444 1232 l 336 1125 l 188 1125 m 135 0 l 135 1014 l 725 1014 l 725 890 l 271 890 l 271 589 l 676 589 l 676 469 l 271 469 l 271 124 l 725 124 l 725 0 l 135 0 z "},"Ë":{"ha":833,"x_min":135,"x_max":725,"o":"m 601 1132 q 533 1156 558 1132 q 508 1222 508 1181 q 533 1290 508 1265 q 601 1315 558 1315 q 668 1290 643 1315 q 693 1222 693 1265 q 668 1156 693 1181 q 601 1132 643 1132 m 288 1132 q 221 1156 246 1132 q 196 1222 196 1181 q 221 1290 196 1265 q 288 1315 246 1315 q 356 1290 331 1315 q 381 1222 381 1265 q 356 1156 381 1181 q 288 1132 331 1132 m 135 0 l 135 1014 l 725 1014 l 725 890 l 271 890 l 271 589 l 676 589 l 676 469 l 271 469 l 271 124 l 725 124 l 725 0 l 135 0 z "},"Ì":{"ha":833,"x_min":140,"x_max":693,"o":"m 365 1125 l 204 1319 l 357 1319 l 508 1125 l 365 1125 m 140 0 l 140 125 l 347 125 l 347 889 l 140 889 l 140 1014 l 693 1014 l 693 889 l 486 889 l 486 125 l 693 125 l 693 0 l 140 0 z "},"Í":{"ha":833,"x_min":140,"x_max":693,"o":"m 331 1125 l 476 1319 l 625 1319 l 469 1125 l 331 1125 m 140 0 l 140 125 l 347 125 l 347 889 l 140 889 l 140 1014 l 693 1014 l 693 889 l 486 889 l 486 125 l 693 125 l 693 0 l 140 0 z "},"Î":{"ha":833,"x_min":140,"x_max":693,"o":"m 160 1125 l 353 1319 l 479 1319 l 674 1125 l 528 1125 l 417 1232 l 308 1125 l 160 1125 m 140 0 l 140 125 l 347 125 l 347 889 l 140 889 l 140 1014 l 693 1014 l 693 889 l 486 889 l 486 125 l 693 125 l 693 0 l 140 0 z "},"Ï":{"ha":833,"x_min":140,"x_max":693,"o":"m 574 1132 q 506 1156 531 1132 q 481 1222 481 1181 q 506 1290 481 1265 q 574 1315 531 1315 q 640 1290 615 1315 q 665 1222 665 1265 q 640 1156 665 1181 q 574 1132 615 1132 m 260 1132 q 193 1156 218 1132 q 168 1222 168 1181 q 193 1290 168 1265 q 260 1315 218 1315 q 328 1290 303 1315 q 353 1222 353 1265 q 328 1156 353 1181 q 260 1132 303 1132 m 140 0 l 140 125 l 347 125 l 347 889 l 140 889 l 140 1014 l 693 1014 l 693 889 l 486 889 l 486 125 l 693 125 l 693 0 l 140 0 z "},"Ð":{"ha":833,"x_min":14,"x_max":719,"o":"m 122 0 l 122 464 l 14 464 l 14 572 l 122 572 l 122 1014 l 394 1014 q 631 931 542 1014 q 719 707 719 847 l 719 308 q 631 84 719 168 q 394 0 543 0 l 122 0 m 260 122 l 394 122 q 532 172 482 122 q 582 308 582 222 l 582 707 q 532 842 582 793 q 394 892 482 892 l 260 892 l 260 572 l 403 572 l 403 464 l 260 464 l 260 122 z "},"Ñ":{"ha":833,"x_min":119,"x_max":715,"o":"m 514 1129 q 432 1153 465 1129 q 374 1200 399 1176 q 326 1224 350 1224 q 285 1176 285 1224 l 285 1136 l 190 1136 l 190 1179 q 226 1278 190 1242 q 319 1315 261 1315 q 401 1292 368 1315 q 459 1244 435 1268 q 507 1221 483 1221 q 549 1268 549 1221 l 549 1308 l 643 1308 l 643 1267 q 608 1166 643 1203 q 514 1129 572 1129 m 119 0 l 119 1014 l 297 1014 l 600 158 q 585 468 585 321 l 585 1014 l 715 1014 l 715 0 l 536 0 l 236 856 q 249 551 249 696 l 249 0 l 119 0 z "},"Ò":{"ha":833,"x_min":117,"x_max":717,"o":"m 365 1125 l 204 1319 l 357 1319 l 508 1125 l 365 1125 m 636 65 q 596 25 636 65 q 417 -14 556 -14 q 197 65 278 -14 q 117 281 117 143 l 117 735 q 197 949 117 871 q 417 1028 278 1028 q 636 949 556 1028 q 717 735 717 871 l 717 281 q 636 65 717 143 m 297 153 q 318 131 297 153 q 417 108 339 108 q 537 153 494 108 q 579 281 579 197 l 579 735 q 537 861 579 817 q 417 906 494 906 q 297 861 339 906 q 254 735 254 817 l 254 281 q 297 153 254 197 z "},"Ó":{"ha":833,"x_min":117,"x_max":717,"o":"m 331 1125 l 476 1319 l 625 1319 l 469 1125 l 331 1125 m 636 65 q 596 25 636 65 q 417 -14 556 -14 q 197 65 278 -14 q 117 281 117 143 l 117 735 q 197 949 117 871 q 417 1028 278 1028 q 636 949 556 1028 q 717 735 717 871 l 717 281 q 636 65 717 143 m 297 153 q 318 131 297 153 q 417 108 339 108 q 537 153 494 108 q 579 281 579 197 l 579 735 q 537 861 579 817 q 417 906 494 906 q 297 861 339 906 q 254 735 254 817 l 254 281 q 297 153 254 197 z "},"Ô":{"ha":833,"x_min":117,"x_max":717,"o":"m 160 1125 l 353 1319 l 479 1319 l 674 1125 l 528 1125 l 417 1232 l 308 1125 l 160 1125 m 636 65 q 596 25 636 65 q 417 -14 556 -14 q 197 65 278 -14 q 117 281 117 143 l 117 735 q 197 949 117 871 q 417 1028 278 1028 q 636 949 556 1028 q 717 735 717 871 l 717 281 q 636 65 717 143 m 297 153 q 318 131 297 153 q 417 108 339 108 q 537 153 494 108 q 579 281 579 197 l 579 735 q 537 861 579 817 q 417 906 494 906 q 297 861 339 906 q 254 735 254 817 l 254 281 q 297 153 254 197 z "},"Õ":{"ha":833,"x_min":117,"x_max":717,"o":"m 514 1129 q 432 1153 465 1129 q 374 1200 399 1176 q 326 1224 350 1224 q 285 1176 285 1224 l 285 1136 l 190 1136 l 190 1179 q 226 1278 190 1242 q 319 1315 261 1315 q 401 1292 368 1315 q 459 1244 435 1268 q 507 1221 483 1221 q 549 1268 549 1221 l 549 1308 l 643 1308 l 643 1267 q 608 1166 643 1203 q 514 1129 572 1129 m 636 65 q 596 25 636 65 q 417 -14 556 -14 q 197 65 278 -14 q 117 281 117 143 l 117 735 q 197 949 117 871 q 417 1028 278 1028 q 636 949 556 1028 q 717 735 717 871 l 717 281 q 636 65 717 143 m 297 153 q 318 131 297 153 q 417 108 339 108 q 537 153 494 108 q 579 281 579 197 l 579 735 q 537 861 579 817 q 417 906 494 906 q 297 861 339 906 q 254 735 254 817 l 254 281 q 297 153 254 197 z "},"Ö":{"ha":833,"x_min":117,"x_max":717,"o":"m 574 1132 q 506 1156 531 1132 q 481 1222 481 1181 q 506 1290 481 1265 q 574 1315 531 1315 q 640 1290 615 1315 q 665 1222 665 1265 q 640 1156 665 1181 q 574 1132 615 1132 m 260 1132 q 193 1156 218 1132 q 168 1222 168 1181 q 193 1290 168 1265 q 260 1315 218 1315 q 328 1290 303 1315 q 353 1222 353 1265 q 328 1156 353 1181 q 260 1132 303 1132 m 636 65 q 596 25 636 65 q 417 -14 556 -14 q 197 65 278 -14 q 117 281 117 143 l 117 735 q 197 949 117 871 q 417 1028 278 1028 q 636 949 556 1028 q 717 735 717 871 l 717 281 q 636 65 717 143 m 297 153 q 318 131 297 153 q 417 108 339 108 q 537 153 494 108 q 579 281 579 197 l 579 735 q 537 861 579 817 q 417 906 494 906 q 297 861 339 906 q 254 735 254 817 l 254 281 q 297 153 254 197 z "},"×":{"ha":833,"x_min":140,"x_max":692,"o":"m 222 182 l 140 264 l 332 456 l 140 649 l 222 731 l 414 539 l 611 735 l 692 651 l 496 456 l 689 264 l 606 182 l 414 374 l 222 182 z "},"Ø":{"ha":833,"x_min":44,"x_max":789,"o":"m 44 -56 l 150 129 q 117 281 117 194 l 117 735 q 197 949 117 871 q 417 1028 278 1028 q 621 964 542 1028 l 665 1042 l 789 1042 l 692 869 q 717 735 717 811 l 717 281 q 636 65 717 143 q 417 -14 556 -14 q 224 42 300 -14 l 168 -56 l 44 -56 m 253 735 l 253 313 l 553 843 q 417 906 510 906 q 296 861 339 906 q 253 735 253 817 m 417 108 q 538 153 494 108 q 581 281 581 197 l 581 674 l 290 160 q 417 108 333 108 z "},"Ù":{"ha":833,"x_min":119,"x_max":715,"o":"m 365 1125 l 204 1319 l 357 1319 l 508 1125 l 365 1125 m 417 -14 q 197 65 275 -14 q 119 281 119 143 l 119 1014 l 257 1014 l 257 281 q 297 153 257 199 q 417 108 338 108 q 536 153 494 108 q 578 281 578 199 l 578 1014 l 715 1014 l 715 281 q 638 64 715 142 q 417 -14 560 -14 z "},"Ú":{"ha":833,"x_min":119,"x_max":715,"o":"m 331 1125 l 476 1319 l 625 1319 l 469 1125 l 331 1125 m 417 -14 q 197 65 275 -14 q 119 281 119 143 l 119 1014 l 257 1014 l 257 281 q 297 153 257 199 q 417 108 338 108 q 536 153 494 108 q 578 281 578 199 l 578 1014 l 715 1014 l 715 281 q 638 64 715 142 q 417 -14 560 -14 z "},"Û":{"ha":833,"x_min":119,"x_max":715,"o":"m 160 1125 l 353 1319 l 479 1319 l 674 1125 l 528 1125 l 417 1232 l 308 1125 l 160 1125 m 417 -14 q 197 65 275 -14 q 119 281 119 143 l 119 1014 l 257 1014 l 257 281 q 297 153 257 199 q 417 108 338 108 q 536 153 494 108 q 578 281 578 199 l 578 1014 l 715 1014 l 715 281 q 638 64 715 142 q 417 -14 560 -14 z "},"Ü":{"ha":833,"x_min":119,"x_max":715,"o":"m 574 1132 q 506 1156 531 1132 q 481 1222 481 1181 q 506 1290 481 1265 q 574 1315 531 1315 q 640 1290 615 1315 q 665 1222 665 1265 q 640 1156 665 1181 q 574 1132 615 1132 m 260 1132 q 193 1156 218 1132 q 168 1222 168 1181 q 193 1290 168 1265 q 260 1315 218 1315 q 328 1290 303 1315 q 353 1222 353 1265 q 328 1156 353 1181 q 260 1132 303 1132 m 417 -14 q 197 65 275 -14 q 119 281 119 143 l 119 1014 l 257 1014 l 257 281 q 297 153 257 199 q 417 108 338 108 q 536 153 494 108 q 578 281 578 199 l 578 1014 l 715 1014 l 715 281 q 638 64 715 142 q 417 -14 560 -14 z "},"Ý":{"ha":833,"x_min":44,"x_max":789,"o":"m 331 1125 l 476 1319 l 625 1319 l 469 1125 l 331 1125 m 349 0 l 349 376 l 44 1014 l 188 1014 l 378 614 q 418 507 410 544 q 461 614 433 557 l 647 1014 l 789 1014 l 486 376 l 486 0 l 349 0 z "},"Þ":{"ha":833,"x_min":121,"x_max":768,"o":"m 121 0 l 121 1014 l 258 1014 l 258 808 l 464 808 q 685 732 603 808 q 768 528 768 656 q 686 323 768 399 q 464 247 604 247 l 258 247 l 258 0 l 121 0 m 258 368 l 458 368 q 582 410 538 368 q 626 528 626 453 q 581 646 626 603 q 458 689 536 689 l 258 689 l 258 368 z "},"ß":{"ha":833,"x_min":121,"x_max":743,"o":"m 121 0 l 121 738 q 203 949 121 869 q 419 1028 285 1028 q 641 959 558 1028 q 724 768 724 890 q 681 624 724 683 q 561 542 638 564 q 694 453 646 519 q 743 289 743 386 q 658 81 743 161 q 438 0 574 0 l 349 0 l 349 122 l 424 122 q 551 169 504 122 q 599 296 599 217 q 552 417 599 374 q 424 461 506 461 l 363 461 l 363 576 l 421 576 q 538 622 494 576 q 581 740 581 668 q 538 862 581 818 q 419 906 494 906 q 300 860 344 906 q 256 738 256 815 l 256 0 l 121 0 z "},"à":{"ha":833,"x_min":88,"x_max":714,"o":"m 372 896 l 211 1090 l 364 1090 l 515 896 l 372 896 m 346 -14 q 156 47 225 -14 q 88 215 88 108 q 159 385 88 324 q 354 447 231 447 l 576 447 l 576 519 q 534 623 576 586 q 419 660 492 660 q 310 630 353 660 q 260 557 267 600 l 125 557 q 218 717 136 656 q 424 778 300 778 q 635 710 557 778 q 714 524 714 642 l 714 0 l 579 0 l 579 142 l 578 142 q 506 28 568 69 q 346 -14 444 -14 m 383 93 q 522 135 468 93 q 576 244 576 178 l 576 349 l 357 349 q 260 315 296 349 q 225 225 225 282 q 267 128 225 163 q 383 93 308 93 z "},"á":{"ha":833,"x_min":88,"x_max":714,"o":"m 338 896 l 483 1090 l 632 1090 l 476 896 l 338 896 m 346 -14 q 156 47 225 -14 q 88 215 88 108 q 159 385 88 324 q 354 447 231 447 l 576 447 l 576 519 q 534 623 576 586 q 419 660 492 660 q 310 630 353 660 q 260 557 267 600 l 125 557 q 218 717 136 656 q 424 778 300 778 q 635 710 557 778 q 714 524 714 642 l 714 0 l 579 0 l 579 142 l 578 142 q 506 28 568 69 q 346 -14 444 -14 m 383 93 q 522 135 468 93 q 576 244 576 178 l 576 349 l 357 349 q 260 315 296 349 q 225 225 225 282 q 267 128 225 163 q 383 93 308 93 z "},"â":{"ha":833,"x_min":88,"x_max":714,"o":"m 167 896 l 360 1090 l 486 1090 l 681 896 l 535 896 l 424 1003 l 315 896 l 167 896 m 346 -14 q 156 47 225 -14 q 88 215 88 108 q 159 385 88 324 q 354 447 231 447 l 576 447 l 576 519 q 534 623 576 586 q 419 660 492 660 q 310 630 353 660 q 260 557 267 600 l 125 557 q 218 717 136 656 q 424 778 300 778 q 635 710 557 778 q 714 524 714 642 l 714 0 l 579 0 l 579 142 l 578 142 q 506 28 568 69 q 346 -14 444 -14 m 383 93 q 522 135 468 93 q 576 244 576 178 l 576 349 l 357 349 q 260 315 296 349 q 225 225 225 282 q 267 128 225 163 q 383 93 308 93 z "},"ã":{"ha":833,"x_min":88,"x_max":714,"o":"m 521 900 q 439 924 472 900 q 381 971 406 947 q 333 994 357 994 q 292 947 292 994 l 292 907 l 197 907 l 197 950 q 233 1049 197 1013 q 326 1086 268 1086 q 408 1063 375 1086 q 466 1015 442 1039 q 514 992 490 992 q 556 1039 556 992 l 556 1079 l 650 1079 l 650 1038 q 615 937 650 974 q 521 900 579 900 m 346 -14 q 156 47 225 -14 q 88 215 88 108 q 159 385 88 324 q 354 447 231 447 l 576 447 l 576 519 q 534 623 576 586 q 419 660 492 660 q 310 630 353 660 q 260 557 267 600 l 125 557 q 218 717 136 656 q 424 778 300 778 q 635 710 557 778 q 714 524 714 642 l 714 0 l 579 0 l 579 142 l 578 142 q 506 28 568 69 q 346 -14 444 -14 m 383 93 q 522 135 468 93 q 576 244 576 178 l 576 349 l 357 349 q 260 315 296 349 q 225 225 225 282 q 267 128 225 163 q 383 93 308 93 z "},"ä":{"ha":833,"x_min":88,"x_max":714,"o":"m 581 899 q 513 923 538 899 q 488 989 488 947 q 513 1057 488 1032 q 581 1082 538 1082 q 647 1057 622 1082 q 672 989 672 1032 q 647 923 672 947 q 581 899 622 899 m 267 899 q 200 923 225 899 q 175 989 175 947 q 200 1057 175 1032 q 267 1082 225 1082 q 335 1057 310 1082 q 360 989 360 1032 q 335 923 360 947 q 267 899 310 899 m 346 -14 q 156 47 225 -14 q 88 215 88 108 q 159 385 88 324 q 354 447 231 447 l 576 447 l 576 519 q 534 623 576 586 q 419 660 492 660 q 310 630 353 660 q 260 557 267 600 l 125 557 q 218 717 136 656 q 424 778 300 778 q 635 710 557 778 q 714 524 714 642 l 714 0 l 579 0 l 579 142 l 578 142 q 506 28 568 69 q 346 -14 444 -14 m 383 93 q 522 135 468 93 q 576 244 576 178 l 576 349 l 357 349 q 260 315 296 349 q 225 225 225 282 q 267 128 225 163 q 383 93 308 93 z "},"å":{"ha":833,"x_min":88,"x_max":714,"o":"m 548 888 q 525 865 548 888 q 424 843 501 843 q 299 888 346 843 q 253 1004 253 932 q 300 1121 253 1076 q 424 1165 347 1165 q 547 1121 500 1165 q 594 1004 594 1076 q 548 888 594 932 m 363 942 q 375 931 363 942 q 424 919 386 919 q 484 942 461 919 q 507 1004 507 965 q 484 1065 507 1042 q 424 1089 461 1089 q 363 1065 386 1089 q 340 1004 340 1042 q 363 942 340 965 m 346 -14 q 156 47 225 -14 q 88 215 88 108 q 159 385 88 324 q 354 447 231 447 l 576 447 l 576 519 q 534 623 576 586 q 419 660 492 660 q 310 630 353 660 q 260 557 267 600 l 125 557 q 218 717 136 656 q 424 778 300 778 q 635 710 557 778 q 714 524 714 642 l 714 0 l 579 0 l 579 142 l 578 142 q 506 28 568 69 q 346 -14 444 -14 m 383 93 q 522 135 468 93 q 576 244 576 178 l 576 349 l 357 349 q 260 315 296 349 q 225 225 225 282 q 267 128 225 163 q 383 93 308 93 z "},"æ":{"ha":833,"x_min":49,"x_max":785,"o":"m 236 -14 q 99 40 150 -14 q 49 183 49 93 l 49 264 q 108 401 49 350 q 264 453 167 453 l 360 453 l 360 557 q 272 667 360 667 q 210 643 233 667 q 188 579 188 619 l 63 579 q 114 723 63 668 q 250 778 165 778 q 367 744 324 778 q 417 668 410 710 l 424 668 q 472 744 431 710 q 583 778 514 778 q 731 719 676 778 q 785 558 785 660 l 785 353 l 479 353 l 479 207 q 503 127 479 157 q 568 97 528 97 q 636 120 611 97 q 661 183 661 143 l 785 183 q 729 40 785 94 q 583 -14 674 -14 q 471 20 513 -14 q 424 96 429 54 l 417 96 q 363 20 410 54 q 236 -14 317 -14 m 479 453 l 661 453 l 661 558 q 636 638 661 608 q 568 667 611 667 q 503 638 526 667 q 479 558 479 608 l 479 453 m 265 97 q 334 127 308 97 q 360 207 360 157 l 360 353 l 267 353 q 202 329 225 353 q 179 264 179 306 l 179 183 q 202 120 179 143 q 265 97 225 97 z "},"ç":{"ha":833,"x_min":113,"x_max":725,"o":"m 288 -286 l 288 -207 l 386 -207 q 436 -192 417 -207 q 456 -157 456 -176 q 415 -113 456 -131 q 307 -96 375 -96 l 340 -6 q 173 90 233 15 q 113 281 113 165 l 113 485 q 197 699 113 621 q 422 778 281 778 q 639 706 557 778 q 725 511 721 635 l 589 511 q 540 618 585 579 q 422 657 496 657 q 296 612 342 657 q 250 485 250 567 l 250 281 q 296 153 250 199 q 422 108 342 108 q 540 147 496 108 q 589 253 585 185 l 725 253 q 639 58 721 129 q 422 -14 557 -14 l 410 -50 q 527 -87 474 -56 q 581 -169 581 -119 q 533 -252 581 -218 q 410 -286 485 -286 l 288 -286 z "},"è":{"ha":833,"x_min":113,"x_max":721,"o":"m 365 896 l 204 1090 l 357 1090 l 508 896 l 365 896 m 417 -14 q 196 67 279 -14 q 113 281 113 147 l 113 485 q 196 697 113 617 q 417 778 279 778 q 638 697 556 778 q 721 485 721 617 l 721 349 l 247 349 l 247 281 q 291 146 247 192 q 417 100 335 100 q 581 197 560 100 l 717 197 q 621 44 703 101 q 417 -14 539 -14 m 247 485 l 247 447 l 588 447 l 588 485 q 544 619 588 572 q 417 665 500 665 q 291 619 335 665 q 247 485 247 572 z "},"é":{"ha":833,"x_min":113,"x_max":721,"o":"m 331 896 l 476 1090 l 625 1090 l 469 896 l 331 896 m 417 -14 q 196 67 279 -14 q 113 281 113 147 l 113 485 q 196 697 113 617 q 417 778 279 778 q 638 697 556 778 q 721 485 721 617 l 721 349 l 247 349 l 247 281 q 291 146 247 192 q 417 100 335 100 q 581 197 560 100 l 717 197 q 621 44 703 101 q 417 -14 539 -14 m 247 485 l 247 447 l 588 447 l 588 485 q 544 619 588 572 q 417 665 500 665 q 291 619 335 665 q 247 485 247 572 z "},"ê":{"ha":833,"x_min":113,"x_max":721,"o":"m 160 896 l 353 1090 l 479 1090 l 674 896 l 528 896 l 417 1003 l 308 896 l 160 896 m 417 -14 q 196 67 279 -14 q 113 281 113 147 l 113 485 q 196 697 113 617 q 417 778 279 778 q 638 697 556 778 q 721 485 721 617 l 721 349 l 247 349 l 247 281 q 291 146 247 192 q 417 100 335 100 q 581 197 560 100 l 717 197 q 621 44 703 101 q 417 -14 539 -14 m 247 485 l 247 447 l 588 447 l 588 485 q 544 619 588 572 q 417 665 500 665 q 291 619 335 665 q 247 485 247 572 z "},"ë":{"ha":833,"x_min":113,"x_max":721,"o":"m 574 899 q 506 923 531 899 q 481 989 481 947 q 506 1057 481 1032 q 574 1082 531 1082 q 640 1057 615 1082 q 665 989 665 1032 q 640 923 665 947 q 574 899 615 899 m 260 899 q 193 923 218 899 q 168 989 168 947 q 193 1057 168 1032 q 260 1082 218 1082 q 328 1057 303 1082 q 353 989 353 1032 q 328 923 353 947 q 260 899 303 899 m 417 -14 q 196 67 279 -14 q 113 281 113 147 l 113 485 q 196 697 113 617 q 417 778 279 778 q 638 697 556 778 q 721 485 721 617 l 721 349 l 247 349 l 247 281 q 291 146 247 192 q 417 100 335 100 q 581 197 560 100 l 717 197 q 621 44 703 101 q 417 -14 539 -14 m 247 485 l 247 447 l 588 447 l 588 485 q 544 619 588 572 q 417 665 500 665 q 291 619 335 665 q 247 485 247 572 z "},"ì":{"ha":833,"x_min":115,"x_max":772,"o":"m 386 896 l 226 1090 l 379 1090 l 531 896 l 386 896 m 115 0 l 115 125 l 383 125 l 383 639 l 143 639 l 143 764 l 521 764 l 521 125 l 772 125 l 772 0 l 115 0 z "},"í":{"ha":833,"x_min":115,"x_max":772,"o":"m 351 896 l 499 1090 l 647 1090 l 492 896 l 351 896 m 115 0 l 115 125 l 383 125 l 383 639 l 143 639 l 143 764 l 521 764 l 521 125 l 772 125 l 772 0 l 115 0 z "},"î":{"ha":833,"x_min":115,"x_max":772,"o":"m 182 896 l 375 1090 l 501 1090 l 694 896 l 550 896 l 438 1003 l 329 896 l 182 896 m 115 0 l 115 125 l 383 125 l 383 639 l 143 639 l 143 764 l 521 764 l 521 125 l 772 125 l 772 0 l 115 0 z "},"ï":{"ha":833,"x_min":115,"x_max":772,"o":"m 594 899 q 528 923 553 899 q 503 989 503 947 q 528 1057 503 1032 q 594 1082 553 1082 q 663 1057 638 1082 q 688 989 688 1032 q 663 923 688 947 q 594 899 638 899 m 282 899 q 215 923 240 899 q 190 989 190 947 q 215 1057 190 1032 q 282 1082 240 1082 q 350 1057 325 1082 q 375 989 375 1032 q 350 923 375 947 q 282 899 325 899 m 115 0 l 115 125 l 383 125 l 383 639 l 143 639 l 143 764 l 521 764 l 521 125 l 772 125 l 772 0 l 115 0 z "},"ð":{"ha":833,"x_min":92,"x_max":743,"o":"m 415 -11 q 181 75 269 -11 q 92 303 92 161 q 172 526 92 442 q 382 610 251 610 q 483 584 439 610 q 547 526 528 558 l 564 526 q 472 668 543 576 l 385 790 l 160 689 l 160 806 l 321 878 l 222 1014 l 379 1014 l 438 929 l 647 1024 l 647 907 l 501 842 l 604 694 q 743 315 743 499 q 653 78 743 168 q 415 -11 564 -11 m 415 108 q 553 162 501 108 q 606 303 606 215 q 553 444 606 390 q 415 497 501 497 q 281 444 332 497 q 229 303 229 390 q 281 162 229 215 q 415 108 332 108 z "},"ñ":{"ha":833,"x_min":122,"x_max":714,"o":"m 521 900 q 439 924 472 900 q 381 971 406 947 q 333 994 357 994 q 292 947 292 994 l 292 907 l 197 907 l 197 950 q 233 1049 197 1013 q 326 1086 268 1086 q 408 1063 375 1086 q 466 1015 442 1039 q 514 992 490 992 q 556 1039 556 992 l 556 1079 l 650 1079 l 650 1038 q 615 937 650 974 q 521 900 579 900 m 122 0 l 122 764 l 258 764 l 258 618 l 261 618 q 324 736 271 694 q 464 778 376 778 q 646 706 578 778 q 714 511 714 633 l 714 0 l 576 0 l 576 496 q 535 616 576 574 q 421 658 493 658 q 303 613 346 658 q 260 485 260 568 l 260 0 l 122 0 z "},"ò":{"ha":833,"x_min":113,"x_max":721,"o":"m 365 896 l 204 1090 l 357 1090 l 508 896 l 365 896 m 639 67 q 598 28 639 67 q 417 -11 557 -11 q 194 67 276 -11 q 113 282 113 146 l 113 482 q 194 697 113 618 q 417 775 276 775 q 639 697 557 775 q 721 483 721 618 l 721 282 q 639 67 721 146 m 294 154 q 316 132 294 154 q 417 110 338 110 q 540 154 496 110 q 583 282 583 199 l 583 482 q 540 610 583 565 q 417 654 496 654 q 294 610 338 654 q 250 482 250 565 l 250 282 q 294 154 250 199 z "},"ó":{"ha":833,"x_min":113,"x_max":721,"o":"m 331 896 l 476 1090 l 625 1090 l 469 896 l 331 896 m 639 67 q 598 28 639 67 q 417 -11 557 -11 q 194 67 276 -11 q 113 282 113 146 l 113 482 q 194 697 113 618 q 417 775 276 775 q 639 697 557 775 q 721 483 721 618 l 721 282 q 639 67 721 146 m 294 154 q 316 132 294 154 q 417 110 338 110 q 540 154 496 110 q 583 282 583 199 l 583 482 q 540 610 583 565 q 417 654 496 654 q 294 610 338 654 q 250 482 250 565 l 250 282 q 294 154 250 199 z "},"ô":{"ha":833,"x_min":113,"x_max":721,"o":"m 160 896 l 353 1090 l 479 1090 l 674 896 l 528 896 l 417 1003 l 308 896 l 160 896 m 639 67 q 598 28 639 67 q 417 -11 557 -11 q 194 67 276 -11 q 113 282 113 146 l 113 482 q 194 697 113 618 q 417 775 276 775 q 639 697 557 775 q 721 483 721 618 l 721 282 q 639 67 721 146 m 294 154 q 316 132 294 154 q 417 110 338 110 q 540 154 496 110 q 583 282 583 199 l 583 482 q 540 610 583 565 q 417 654 496 654 q 294 610 338 654 q 250 482 250 565 l 250 282 q 294 154 250 199 z "},"õ":{"ha":833,"x_min":113,"x_max":721,"o":"m 514 900 q 432 924 465 900 q 374 971 399 947 q 326 994 350 994 q 285 947 285 994 l 285 907 l 190 907 l 190 950 q 226 1049 190 1013 q 319 1086 261 1086 q 401 1063 368 1086 q 459 1015 435 1039 q 507 992 483 992 q 549 1039 549 992 l 549 1079 l 643 1079 l 643 1038 q 608 937 643 974 q 514 900 572 900 m 639 67 q 598 28 639 67 q 417 -11 557 -11 q 194 67 276 -11 q 113 282 113 146 l 113 482 q 194 697 113 618 q 417 775 276 775 q 639 697 557 775 q 721 483 721 618 l 721 282 q 639 67 721 146 m 294 154 q 316 132 294 154 q 417 110 338 110 q 540 154 496 110 q 583 282 583 199 l 583 482 q 540 610 583 565 q 417 654 496 654 q 294 610 338 654 q 250 482 250 565 l 250 282 q 294 154 250 199 z "},"ö":{"ha":833,"x_min":113,"x_max":721,"o":"m 574 899 q 506 923 531 899 q 481 989 481 947 q 506 1057 481 1032 q 574 1082 531 1082 q 640 1057 615 1082 q 665 989 665 1032 q 640 923 665 947 q 574 899 615 899 m 260 899 q 193 923 218 899 q 168 989 168 947 q 193 1057 168 1032 q 260 1082 218 1082 q 328 1057 303 1082 q 353 989 353 1032 q 328 923 353 947 q 260 899 303 899 m 639 67 q 598 28 639 67 q 417 -11 557 -11 q 194 67 276 -11 q 113 282 113 146 l 113 482 q 194 697 113 618 q 417 775 276 775 q 639 697 557 775 q 721 483 721 618 l 721 282 q 639 67 721 146 m 294 154 q 316 132 294 154 q 417 110 338 110 q 540 154 496 110 q 583 282 583 199 l 583 482 q 540 610 583 565 q 417 654 496 654 q 294 610 338 654 q 250 482 250 565 l 250 282 q 294 154 250 199 z "},"÷":{"ha":833,"x_min":139,"x_max":694,"o":"m 417 639 q 331 669 364 639 q 297 746 297 699 q 331 824 297 794 q 417 854 364 854 q 503 824 471 854 q 536 746 536 794 q 503 668 536 697 q 417 639 471 639 m 139 403 l 139 521 l 694 521 l 694 403 l 139 403 m 417 69 q 331 99 364 69 q 297 176 297 129 q 331 253 297 224 q 417 283 364 283 q 503 254 471 283 q 536 176 536 225 q 503 99 536 128 q 417 69 471 69 z "},"ø":{"ha":833,"x_min":47,"x_max":788,"o":"m 47 -42 l 157 115 q 117 281 117 183 l 117 485 q 197 699 117 621 q 417 778 278 778 q 594 732 522 778 l 656 819 l 788 819 l 671 657 q 717 485 717 588 l 717 281 q 636 65 717 143 q 417 -14 556 -14 q 232 36 308 -14 l 176 -42 l 47 -42 m 246 281 q 249 244 246 267 l 521 629 q 417 657 478 657 q 291 611 336 657 q 246 485 246 565 l 246 281 m 417 108 q 542 153 497 108 q 588 281 588 199 l 588 483 q 583 532 588 508 l 306 140 q 417 108 349 108 z "},"ù":{"ha":833,"x_min":119,"x_max":714,"o":"m 365 896 l 204 1090 l 357 1090 l 508 896 l 365 896 m 633 65 q 592 26 633 65 q 415 -14 551 -14 q 199 66 279 -14 q 119 281 119 146 l 119 764 l 257 764 l 257 281 q 299 152 257 197 q 415 107 340 107 q 533 152 490 107 q 576 281 576 197 l 576 764 l 714 764 l 714 281 q 633 65 714 144 z "},"ú":{"ha":833,"x_min":119,"x_max":714,"o":"m 331 896 l 476 1090 l 625 1090 l 469 896 l 331 896 m 633 65 q 592 26 633 65 q 415 -14 551 -14 q 199 66 279 -14 q 119 281 119 146 l 119 764 l 257 764 l 257 281 q 299 152 257 197 q 415 107 340 107 q 533 152 490 107 q 576 281 576 197 l 576 764 l 714 764 l 714 281 q 633 65 714 144 z "},"û":{"ha":833,"x_min":119,"x_max":714,"o":"m 160 896 l 353 1090 l 479 1090 l 674 896 l 528 896 l 417 1003 l 308 896 l 160 896 m 633 65 q 592 26 633 65 q 415 -14 551 -14 q 199 66 279 -14 q 119 281 119 146 l 119 764 l 257 764 l 257 281 q 299 152 257 197 q 415 107 340 107 q 533 152 490 107 q 576 281 576 197 l 576 764 l 714 764 l 714 281 q 633 65 714 144 z "},"ü":{"ha":833,"x_min":119,"x_max":714,"o":"m 574 899 q 506 923 531 899 q 481 989 481 947 q 506 1057 481 1032 q 574 1082 531 1082 q 640 1057 615 1082 q 665 989 665 1032 q 640 923 665 947 q 574 899 615 899 m 260 899 q 193 923 218 899 q 168 989 168 947 q 193 1057 168 1032 q 260 1082 218 1082 q 328 1057 303 1082 q 353 989 353 1032 q 328 923 353 947 q 260 899 303 899 m 633 65 q 592 26 633 65 q 415 -14 551 -14 q 199 66 279 -14 q 119 281 119 146 l 119 764 l 257 764 l 257 281 q 299 152 257 197 q 415 107 340 107 q 533 152 490 107 q 576 281 576 197 l 576 764 l 714 764 l 714 281 q 633 65 714 144 z "},"ý":{"ha":833,"x_min":63,"x_max":771,"o":"m 331 896 l 476 1090 l 625 1090 l 469 896 l 331 896 m 244 -250 l 356 46 l 63 764 l 213 764 l 390 313 q 425 192 410 258 q 461 313 442 263 l 626 764 l 771 764 l 388 -250 l 244 -250 z "},"þ":{"ha":833,"x_min":117,"x_max":715,"o":"m 117 -236 l 117 1014 l 254 1014 l 254 794 l 250 618 l 254 618 q 321 735 265 692 q 461 778 376 778 q 647 701 578 778 q 715 492 715 624 l 715 272 q 646 63 715 140 q 461 -14 576 -14 q 319 28 375 -14 q 254 146 264 71 l 253 146 l 253 -236 l 117 -236 m 414 106 q 534 151 490 106 q 578 281 578 197 l 578 485 q 534 613 578 568 q 414 658 490 658 q 297 613 339 658 q 254 485 254 567 l 254 281 q 297 151 254 197 q 414 106 339 106 z "},"ÿ":{"ha":833,"x_min":63,"x_max":771,"o":"m 574 899 q 506 923 531 899 q 481 989 481 947 q 506 1057 481 1032 q 574 1082 531 1082 q 640 1057 615 1082 q 665 989 665 1032 q 640 923 665 947 q 574 899 615 899 m 260 899 q 193 923 218 899 q 168 989 168 947 q 193 1057 168 1032 q 260 1082 218 1082 q 328 1057 303 1082 q 353 989 353 1032 q 328 923 353 947 q 260 899 303 899 m 244 -250 l 356 46 l 63 764 l 213 764 l 390 313 q 425 192 410 258 q 461 313 442 263 l 626 764 l 771 764 l 388 -250 l 244 -250 z "},"Ā":{"ha":833,"x_min":64,"x_max":769,"o":"m 190 1163 l 190 1274 l 643 1274 l 643 1163 l 190 1163 m 64 0 l 326 1014 l 508 1014 l 769 0 l 629 0 l 565 264 l 268 264 l 204 0 l 64 0 m 296 378 l 538 378 l 465 681 q 417 901 426 836 q 369 682 407 840 l 296 378 z "},"ā":{"ha":833,"x_min":88,"x_max":714,"o":"m 197 928 l 197 1039 l 650 1039 l 650 928 l 197 928 m 346 -14 q 156 47 225 -14 q 88 215 88 108 q 159 385 88 324 q 354 447 231 447 l 576 447 l 576 519 q 534 623 576 586 q 419 660 492 660 q 310 630 353 660 q 260 557 267 600 l 125 557 q 218 717 136 656 q 424 778 300 778 q 635 710 557 778 q 714 524 714 642 l 714 0 l 579 0 l 579 142 l 578 142 q 506 28 568 69 q 346 -14 444 -14 m 383 93 q 522 135 468 93 q 576 244 576 178 l 576 349 l 357 349 q 260 315 296 349 q 225 225 225 282 q 267 128 225 163 q 383 93 308 93 z "},"Ă":{"ha":833,"x_min":64,"x_max":769,"o":"m 581 1173 q 550 1145 581 1173 q 417 1117 518 1117 q 252 1173 315 1117 q 189 1319 189 1229 l 297 1319 q 330 1236 297 1268 q 415 1204 363 1204 q 503 1236 469 1204 q 536 1319 536 1268 l 644 1319 q 581 1173 644 1229 m 64 0 l 326 1014 l 508 1014 l 769 0 l 629 0 l 565 264 l 268 264 l 204 0 l 64 0 m 296 378 l 538 378 l 465 681 q 417 901 426 836 q 369 682 407 840 l 296 378 z "},"ă":{"ha":833,"x_min":88,"x_max":714,"o":"m 588 944 q 557 916 588 944 q 424 888 525 888 q 259 944 322 888 q 196 1090 196 1000 l 304 1090 q 337 1007 304 1039 q 422 975 369 975 q 510 1007 476 975 q 543 1090 543 1039 l 651 1090 q 588 944 651 1000 m 346 -14 q 156 47 225 -14 q 88 215 88 108 q 159 385 88 324 q 354 447 231 447 l 576 447 l 576 519 q 534 623 576 586 q 419 660 492 660 q 310 630 353 660 q 260 557 267 600 l 125 557 q 218 717 136 656 q 424 778 300 778 q 635 710 557 778 q 714 524 714 642 l 714 0 l 579 0 l 579 142 l 578 142 q 506 28 568 69 q 346 -14 444 -14 m 383 93 q 522 135 468 93 q 576 244 576 178 l 576 349 l 357 349 q 260 315 296 349 q 225 225 225 282 q 267 128 225 163 q 383 93 308 93 z "},"Ą":{"ha":833,"x_min":64,"x_max":810,"o":"m 64 0 l 326 1014 l 508 1014 l 769 0 l 738 0 l 735 -3 q 650 -126 650 -72 q 670 -176 650 -157 q 725 -194 690 -194 l 810 -194 l 810 -286 l 696 -286 q 571 -249 618 -286 q 524 -154 524 -212 q 629 1 524 -72 l 565 264 l 268 264 l 204 0 l 64 0 m 296 378 l 538 378 l 465 681 q 417 901 426 836 q 369 682 407 840 l 296 378 z "},"ą":{"ha":833,"x_min":88,"x_max":785,"o":"m 346 -14 q 156 47 225 -14 q 88 215 88 108 q 159 385 88 324 q 354 447 231 447 l 576 447 l 576 519 q 534 623 576 586 q 419 660 492 660 q 310 630 353 660 q 260 557 267 600 l 125 557 q 218 717 136 656 q 424 778 300 778 q 635 710 557 778 q 714 524 714 642 l 714 0 q 625 -126 625 -75 q 646 -175 625 -156 q 700 -194 667 -194 l 785 -194 l 785 -286 l 671 -286 q 547 -249 593 -286 q 500 -154 500 -212 q 603 0 500 -74 l 579 0 l 579 142 l 578 142 q 506 28 568 69 q 346 -14 444 -14 m 383 93 q 522 135 468 93 q 576 244 576 178 l 576 349 l 357 349 q 260 315 296 349 q 225 225 225 282 q 267 128 225 163 q 383 93 308 93 z "},"Ć":{"ha":833,"x_min":117,"x_max":726,"o":"m 338 1125 l 483 1319 l 632 1319 l 476 1125 l 338 1125 m 422 -14 q 199 65 281 -14 q 117 281 117 143 l 117 735 q 199 949 117 871 q 422 1028 281 1028 q 644 949 561 1028 q 726 735 726 869 l 589 735 q 545 861 589 817 q 422 906 501 906 q 299 861 343 906 q 254 735 254 817 l 254 281 q 299 153 254 197 q 422 108 343 108 q 545 153 501 108 q 589 281 589 197 l 726 281 q 644 66 726 146 q 422 -14 561 -14 z "},"ć":{"ha":833,"x_min":113,"x_max":725,"o":"m 335 896 l 482 1090 l 631 1090 l 475 896 l 335 896 m 422 -14 q 197 65 281 -14 q 113 281 113 144 l 113 485 q 197 699 113 621 q 422 778 281 778 q 639 706 557 778 q 725 511 721 635 l 589 511 q 540 618 585 579 q 422 657 496 657 q 296 612 342 657 q 250 485 250 567 l 250 281 q 296 153 250 199 q 422 108 342 108 q 540 147 496 108 q 589 253 585 185 l 725 253 q 639 58 721 129 q 422 -14 557 -14 z "},"Ĉ":{"ha":833,"x_min":117,"x_max":726,"o":"m 167 1125 l 360 1319 l 486 1319 l 681 1125 l 535 1125 l 424 1232 l 315 1125 l 167 1125 m 422 -14 q 199 65 281 -14 q 117 281 117 143 l 117 735 q 199 949 117 871 q 422 1028 281 1028 q 644 949 561 1028 q 726 735 726 869 l 589 735 q 545 861 589 817 q 422 906 501 906 q 299 861 343 906 q 254 735 254 817 l 254 281 q 299 153 254 197 q 422 108 343 108 q 545 153 501 108 q 589 281 589 197 l 726 281 q 644 66 726 146 q 422 -14 561 -14 z "},"ĉ":{"ha":833,"x_min":113,"x_max":725,"o":"m 165 896 l 358 1090 l 485 1090 l 678 896 l 533 896 l 422 1003 l 314 896 l 165 896 m 422 -14 q 197 65 281 -14 q 113 281 113 144 l 113 485 q 197 699 113 621 q 422 778 281 778 q 639 706 557 778 q 725 511 721 635 l 589 511 q 540 618 585 579 q 422 657 496 657 q 296 612 342 657 q 250 485 250 567 l 250 281 q 296 153 250 199 q 422 108 342 108 q 540 147 496 108 q 589 253 585 185 l 725 253 q 639 58 721 129 q 422 -14 557 -14 z "},"Ċ":{"ha":833,"x_min":117,"x_max":726,"o":"m 499 1156 q 485 1143 499 1156 q 424 1131 471 1131 q 349 1156 376 1131 q 321 1222 321 1181 q 349 1289 321 1264 q 424 1314 376 1314 q 499 1289 471 1314 q 526 1222 526 1264 q 499 1156 526 1181 m 422 -14 q 199 65 281 -14 q 117 281 117 143 l 117 735 q 199 949 117 871 q 422 1028 281 1028 q 644 949 561 1028 q 726 735 726 869 l 589 735 q 545 861 589 817 q 422 906 501 906 q 299 861 343 906 q 254 735 254 817 l 254 281 q 299 153 254 197 q 422 108 343 108 q 545 153 501 108 q 589 281 589 197 l 726 281 q 644 66 726 146 q 422 -14 561 -14 z "},"ċ":{"ha":833,"x_min":113,"x_max":725,"o":"m 497 923 q 483 911 497 923 q 422 899 469 899 q 347 923 375 899 q 319 989 319 947 q 347 1057 319 1032 q 422 1082 374 1082 q 498 1057 471 1082 q 525 989 525 1032 q 497 923 525 947 m 422 -14 q 197 65 281 -14 q 113 281 113 144 l 113 485 q 197 699 113 621 q 422 778 281 778 q 639 706 557 778 q 725 511 721 635 l 589 511 q 540 618 585 579 q 422 657 496 657 q 296 612 342 657 q 250 485 250 567 l 250 281 q 296 153 250 199 q 422 108 342 108 q 540 147 496 108 q 589 253 585 185 l 725 253 q 639 58 721 129 q 422 -14 557 -14 z "},"Č":{"ha":833,"x_min":117,"x_max":726,"o":"m 361 1125 l 167 1319 l 313 1319 l 424 1213 l 532 1319 l 681 1319 l 488 1125 l 361 1125 m 422 -14 q 199 65 281 -14 q 117 281 117 143 l 117 735 q 199 949 117 871 q 422 1028 281 1028 q 644 949 561 1028 q 726 735 726 869 l 589 735 q 545 861 589 817 q 422 906 501 906 q 299 861 343 906 q 254 735 254 817 l 254 281 q 299 153 254 197 q 422 108 343 108 q 545 153 501 108 q 589 281 589 197 l 726 281 q 644 66 726 146 q 422 -14 561 -14 z "},"č":{"ha":833,"x_min":113,"x_max":725,"o":"m 360 896 l 165 1090 l 311 1090 l 422 983 l 531 1090 l 678 1090 l 486 896 l 360 896 m 422 -14 q 197 65 281 -14 q 113 281 113 144 l 113 485 q 197 699 113 621 q 422 778 281 778 q 639 706 557 778 q 725 511 721 635 l 589 511 q 540 618 585 579 q 422 657 496 657 q 296 612 342 657 q 250 485 250 567 l 250 281 q 296 153 250 199 q 422 108 342 108 q 540 147 496 108 q 589 253 585 185 l 725 253 q 639 58 721 129 q 422 -14 557 -14 z "},"Ď":{"ha":833,"x_min":122,"x_max":719,"o":"m 354 1125 l 160 1319 l 306 1319 l 417 1213 l 525 1319 l 674 1319 l 481 1125 l 354 1125 m 122 0 l 122 1014 l 394 1014 q 631 931 542 1014 q 719 707 719 847 l 719 308 q 631 84 719 168 q 394 0 543 0 l 122 0 m 260 122 l 394 122 q 532 172 482 122 q 582 308 582 222 l 582 707 q 532 842 582 793 q 394 892 482 892 l 260 892 l 260 122 z "},"ď":{"ha":833,"x_min":83,"x_max":836,"o":"m 707 764 l 707 1014 l 836 1014 l 822 764 l 707 764 m 311 -14 q 144 62 206 -14 q 83 265 83 138 l 83 499 q 144 702 83 626 q 311 778 206 778 q 438 735 389 778 q 496 618 486 693 l 500 618 l 496 794 l 496 1014 l 632 1014 l 632 0 l 497 0 l 497 146 l 496 146 q 438 28 486 71 q 311 -14 389 -14 m 358 103 q 459 148 422 103 q 496 274 496 193 l 496 492 q 460 617 496 572 q 358 661 424 661 q 256 617 293 661 q 218 492 218 572 l 218 274 q 256 148 218 193 q 358 103 293 103 z "},"Đ":{"ha":833,"x_min":14,"x_max":719,"o":"m 122 0 l 122 464 l 14 464 l 14 572 l 122 572 l 122 1014 l 394 1014 q 631 931 542 1014 q 719 707 719 847 l 719 308 q 631 84 719 168 q 394 0 543 0 l 122 0 m 260 122 l 394 122 q 532 172 482 122 q 582 308 582 222 l 582 707 q 532 842 582 793 q 394 892 482 892 l 260 892 l 260 572 l 403 572 l 403 464 l 260 464 l 260 122 z "},"đ":{"ha":833,"x_min":119,"x_max":833,"o":"m 367 -14 q 186 63 253 -14 q 119 272 119 140 l 119 408 q 185 618 119 542 q 367 694 251 694 q 506 651 451 694 q 569 535 560 608 l 575 535 l 571 711 l 571 789 l 346 789 l 346 896 l 571 896 l 571 1014 l 708 1014 l 708 896 l 833 896 l 833 789 l 708 789 l 708 0 l 572 0 l 572 146 l 569 146 q 506 28 560 71 q 367 -14 453 -14 m 414 106 q 529 151 488 106 q 571 281 571 197 l 571 401 q 529 529 571 483 q 414 575 488 575 q 297 530 338 575 q 257 401 257 485 l 257 281 q 297 151 257 196 q 414 106 338 106 z "},"Ē":{"ha":833,"x_min":135,"x_max":725,"o":"m 218 1163 l 218 1274 l 671 1274 l 671 1163 l 218 1163 m 135 0 l 135 1014 l 725 1014 l 725 890 l 271 890 l 271 589 l 676 589 l 676 469 l 271 469 l 271 124 l 725 124 l 725 0 l 135 0 z "},"ē":{"ha":833,"x_min":113,"x_max":721,"o":"m 190 928 l 190 1039 l 643 1039 l 643 928 l 190 928 m 417 -14 q 196 67 279 -14 q 113 281 113 147 l 113 485 q 196 697 113 617 q 417 778 279 778 q 638 697 556 778 q 721 485 721 617 l 721 349 l 247 349 l 247 281 q 291 146 247 192 q 417 100 335 100 q 581 197 560 100 l 717 197 q 621 44 703 101 q 417 -14 539 -14 m 247 485 l 247 447 l 588 447 l 588 485 q 544 619 588 572 q 417 665 500 665 q 291 619 335 665 q 247 485 247 572 z "},"Ĕ":{"ha":833,"x_min":135,"x_max":725,"o":"m 609 1173 q 577 1145 609 1173 q 444 1117 546 1117 q 280 1173 343 1117 q 217 1319 217 1229 l 325 1319 q 358 1236 325 1268 q 443 1204 390 1204 q 531 1236 497 1204 q 564 1319 564 1268 l 672 1319 q 609 1173 672 1229 m 135 0 l 135 1014 l 725 1014 l 725 890 l 271 890 l 271 589 l 676 589 l 676 469 l 271 469 l 271 124 l 725 124 l 725 0 l 135 0 z "},"ĕ":{"ha":833,"x_min":113,"x_max":721,"o":"m 581 944 q 550 916 581 944 q 417 888 518 888 q 252 944 315 888 q 189 1090 189 1000 l 297 1090 q 330 1007 297 1039 q 415 975 363 975 q 503 1007 469 975 q 536 1090 536 1039 l 644 1090 q 581 944 644 1000 m 417 -14 q 196 67 279 -14 q 113 281 113 147 l 113 485 q 196 697 113 617 q 417 778 279 778 q 638 697 556 778 q 721 485 721 617 l 721 349 l 247 349 l 247 281 q 291 146 247 192 q 417 100 335 100 q 581 197 560 100 l 717 197 q 621 44 703 101 q 417 -14 539 -14 m 247 485 l 247 447 l 588 447 l 588 485 q 544 619 588 572 q 417 665 500 665 q 291 619 335 665 q 247 485 247 572 z "},"Ė":{"ha":833,"x_min":135,"x_max":725,"o":"m 519 1156 q 506 1143 519 1156 q 444 1131 492 1131 q 369 1156 397 1131 q 342 1222 342 1181 q 369 1289 342 1264 q 444 1314 397 1314 q 519 1289 492 1314 q 547 1222 547 1264 q 519 1156 547 1181 m 135 0 l 135 1014 l 725 1014 l 725 890 l 271 890 l 271 589 l 676 589 l 676 469 l 271 469 l 271 124 l 725 124 l 725 0 l 135 0 z "},"ė":{"ha":833,"x_min":113,"x_max":721,"o":"m 492 923 q 478 911 492 923 q 417 899 464 899 q 342 923 369 899 q 314 989 314 947 q 341 1057 314 1032 q 417 1082 368 1082 q 492 1057 465 1082 q 519 989 519 1032 q 492 923 519 947 m 417 -14 q 196 67 279 -14 q 113 281 113 147 l 113 485 q 196 697 113 617 q 417 778 279 778 q 638 697 556 778 q 721 485 721 617 l 721 349 l 247 349 l 247 281 q 291 146 247 192 q 417 100 335 100 q 581 197 560 100 l 717 197 q 621 44 703 101 q 417 -14 539 -14 m 247 485 l 247 447 l 588 447 l 588 485 q 544 619 588 572 q 417 665 500 665 q 291 619 335 665 q 247 485 247 572 z "},"Ę":{"ha":833,"x_min":135,"x_max":731,"o":"m 135 0 l 135 1014 l 725 1014 l 725 890 l 271 890 l 271 589 l 676 589 l 676 469 l 271 469 l 271 124 l 725 124 l 725 0 l 658 0 l 656 -3 q 571 -126 571 -74 q 592 -175 571 -156 q 646 -194 613 -194 l 731 -194 l 731 -286 l 617 -286 q 492 -249 539 -286 q 446 -154 446 -212 q 549 0 446 -74 l 135 0 z "},"ę":{"ha":833,"x_min":117,"x_max":717,"o":"m 515 -286 q 391 -249 438 -286 q 344 -154 344 -212 q 438 -8 344 -82 q 417 -14 429 -14 q 198 67 279 -14 q 117 281 117 147 l 117 485 q 198 698 117 618 q 417 778 279 778 q 635 698 554 778 q 717 485 717 618 l 717 349 l 250 349 l 250 281 q 417 100 250 100 q 576 197 556 100 l 714 197 q 583 22 697 81 l 554 -3 q 471 -126 471 -72 q 491 -175 471 -156 q 544 -194 511 -194 l 631 -194 l 631 -286 l 515 -286 m 250 485 l 250 447 l 583 447 l 583 485 q 417 665 583 665 q 292 619 335 665 q 250 485 250 572 z "},"Ě":{"ha":833,"x_min":135,"x_max":725,"o":"m 382 1125 l 188 1319 l 333 1319 l 444 1213 l 553 1319 l 701 1319 l 508 1125 l 382 1125 m 135 0 l 135 1014 l 725 1014 l 725 890 l 271 890 l 271 589 l 676 589 l 676 469 l 271 469 l 271 124 l 725 124 l 725 0 l 135 0 z "},"ě":{"ha":833,"x_min":113,"x_max":721,"o":"m 354 896 l 160 1090 l 306 1090 l 417 983 l 525 1090 l 674 1090 l 481 896 l 354 896 m 417 -14 q 196 67 279 -14 q 113 281 113 147 l 113 485 q 196 697 113 617 q 417 778 279 778 q 638 697 556 778 q 721 485 721 617 l 721 349 l 247 349 l 247 281 q 291 146 247 192 q 417 100 335 100 q 581 197 560 100 l 717 197 q 621 44 703 101 q 417 -14 539 -14 m 247 485 l 247 447 l 588 447 l 588 485 q 544 619 588 572 q 417 665 500 665 q 291 619 335 665 q 247 485 247 572 z "},"Ĝ":{"ha":833,"x_min":117,"x_max":726,"o":"m 160 1125 l 353 1319 l 479 1319 l 674 1125 l 528 1125 l 417 1232 l 308 1125 l 160 1125 m 422 -14 q 199 65 281 -14 q 117 281 117 143 l 117 735 q 199 949 117 871 q 422 1028 281 1028 q 644 949 561 1028 q 726 735 726 869 l 589 735 q 545 861 589 817 q 422 906 501 906 q 299 861 343 906 q 254 735 254 817 l 254 281 q 299 153 254 197 q 422 108 343 108 q 545 153 501 108 q 589 281 589 197 l 589 399 l 392 399 l 392 522 l 726 522 l 726 281 q 644 66 726 146 q 422 -14 561 -14 z "},"ĝ":{"ha":833,"x_min":117,"x_max":710,"o":"m 156 896 l 349 1090 l 475 1090 l 669 896 l 524 896 l 413 1003 l 304 896 l 156 896 m 221 -250 l 221 -128 l 460 -128 q 574 -19 574 -128 l 574 68 l 576 207 l 574 207 q 511 90 565 133 q 371 47 457 47 q 185 125 253 47 q 117 335 117 203 l 117 492 q 185 701 117 624 q 371 778 253 778 q 511 735 457 778 q 574 618 565 693 l 575 618 l 574 764 l 710 764 l 710 -21 q 643 -189 710 -128 q 460 -250 576 -250 l 221 -250 m 414 167 q 531 213 488 167 q 574 342 574 260 l 574 485 q 531 613 574 567 q 414 658 489 658 q 296 613 338 658 q 254 485 254 568 l 254 342 q 296 212 254 257 q 414 167 338 167 z "},"Ğ":{"ha":833,"x_min":117,"x_max":726,"o":"m 581 1173 q 550 1145 581 1173 q 417 1117 518 1117 q 252 1173 315 1117 q 189 1319 189 1229 l 297 1319 q 330 1236 297 1268 q 415 1204 363 1204 q 503 1236 469 1204 q 536 1319 536 1268 l 644 1319 q 581 1173 644 1229 m 422 -14 q 199 65 281 -14 q 117 281 117 143 l 117 735 q 199 949 117 871 q 422 1028 281 1028 q 644 949 561 1028 q 726 735 726 869 l 589 735 q 545 861 589 817 q 422 906 501 906 q 299 861 343 906 q 254 735 254 817 l 254 281 q 299 153 254 197 q 422 108 343 108 q 545 153 501 108 q 589 281 589 197 l 589 399 l 392 399 l 392 522 l 726 522 l 726 281 q 644 66 726 146 q 422 -14 561 -14 z "},"ğ":{"ha":833,"x_min":117,"x_max":710,"o":"m 577 944 q 545 916 577 944 q 413 888 514 888 q 248 944 311 888 q 185 1090 185 1000 l 293 1090 q 326 1007 293 1039 q 411 975 358 975 q 499 1007 465 975 q 532 1090 532 1039 l 640 1090 q 577 944 640 1000 m 221 -250 l 221 -128 l 460 -128 q 574 -19 574 -128 l 574 68 l 576 207 l 574 207 q 511 90 565 133 q 371 47 457 47 q 185 125 253 47 q 117 335 117 203 l 117 492 q 185 701 117 624 q 371 778 253 778 q 511 735 457 778 q 574 618 565 693 l 575 618 l 574 764 l 710 764 l 710 -21 q 643 -189 710 -128 q 460 -250 576 -250 l 221 -250 m 414 167 q 531 213 488 167 q 574 342 574 260 l 574 485 q 531 613 574 567 q 414 658 489 658 q 296 613 338 658 q 254 485 254 568 l 254 342 q 296 212 254 257 q 414 167 338 167 z "},"Ġ":{"ha":833,"x_min":117,"x_max":726,"o":"m 492 1156 q 478 1143 492 1156 q 417 1131 464 1131 q 342 1156 369 1131 q 314 1222 314 1181 q 342 1289 314 1264 q 417 1314 369 1314 q 492 1289 464 1314 q 519 1222 519 1264 q 492 1156 519 1181 m 422 -14 q 199 65 281 -14 q 117 281 117 143 l 117 735 q 199 949 117 871 q 422 1028 281 1028 q 644 949 561 1028 q 726 735 726 869 l 589 735 q 545 861 589 817 q 422 906 501 906 q 299 861 343 906 q 254 735 254 817 l 254 281 q 299 153 254 197 q 422 108 343 108 q 545 153 501 108 q 589 281 589 197 l 589 399 l 392 399 l 392 522 l 726 522 l 726 281 q 644 66 726 146 q 422 -14 561 -14 z "},"ġ":{"ha":833,"x_min":117,"x_max":710,"o":"m 488 923 q 474 911 488 923 q 413 899 460 899 q 338 923 365 899 q 310 989 310 947 q 337 1057 310 1032 q 413 1082 364 1082 q 488 1057 461 1082 q 515 989 515 1032 q 488 923 515 947 m 221 -250 l 221 -128 l 460 -128 q 574 -19 574 -128 l 574 68 l 576 207 l 574 207 q 511 90 565 133 q 371 47 457 47 q 185 125 253 47 q 117 335 117 203 l 117 492 q 185 701 117 624 q 371 778 253 778 q 511 735 457 778 q 574 618 565 693 l 575 618 l 574 764 l 710 764 l 710 -21 q 643 -189 710 -128 q 460 -250 576 -250 l 221 -250 m 414 167 q 531 213 488 167 q 574 342 574 260 l 574 485 q 531 613 574 567 q 414 658 489 658 q 296 613 338 658 q 254 485 254 568 l 254 342 q 296 212 254 257 q 414 167 338 167 z "},"Ģ":{"ha":833,"x_min":117,"x_max":726,"o":"m 422 -14 q 199 65 281 -14 q 117 281 117 143 l 117 735 q 199 949 117 871 q 422 1028 281 1028 q 644 949 561 1028 q 726 735 726 869 l 589 735 q 545 861 589 817 q 422 906 501 906 q 299 861 343 906 q 254 735 254 817 l 254 281 q 299 153 254 197 q 422 108 343 108 q 545 153 501 108 q 589 281 589 197 l 589 399 l 392 399 l 392 522 l 726 522 l 726 281 q 644 66 726 146 q 422 -14 561 -14 m 267 -333 l 399 -132 l 554 -132 l 406 -333 l 267 -333 z "},"ģ":{"ha":833,"x_min":117,"x_max":710,"o":"m 578 1222 l 467 896 l 283 896 l 464 1222 l 578 1222 m 221 -250 l 221 -128 l 460 -128 q 574 -19 574 -128 l 574 68 l 576 207 l 574 207 q 511 90 565 133 q 371 47 457 47 q 185 125 253 47 q 117 335 117 203 l 117 492 q 185 701 117 624 q 371 778 253 778 q 511 735 457 778 q 574 618 565 693 l 575 618 l 574 764 l 710 764 l 710 -21 q 643 -189 710 -128 q 460 -250 576 -250 l 221 -250 m 414 167 q 531 213 488 167 q 574 342 574 260 l 574 485 q 531 613 574 567 q 414 658 489 658 q 296 613 338 658 q 254 485 254 568 l 254 342 q 296 212 254 257 q 414 167 338 167 z "},"Ĥ":{"ha":833,"x_min":124,"x_max":710,"o":"m 160 1125 l 353 1319 l 479 1319 l 674 1125 l 528 1125 l 417 1232 l 308 1125 l 160 1125 m 124 0 l 124 1014 l 261 1014 l 261 588 l 572 588 l 572 1014 l 710 1014 l 710 0 l 572 0 l 572 463 l 261 463 l 261 0 l 124 0 z "},"ĥ":{"ha":833,"x_min":-17,"x_max":714,"o":"m -17 1122 l 175 1317 l 303 1317 l 496 1122 l 351 1122 l 239 1229 l 131 1122 l -17 1122 m 122 0 l 122 1014 l 260 1014 l 260 764 l 258 618 l 261 618 q 324 736 271 694 q 464 778 376 778 q 646 706 578 778 q 714 511 714 633 l 714 0 l 576 0 l 576 496 q 535 617 576 574 q 421 661 493 661 q 303 615 346 661 q 260 485 260 568 l 260 0 l 122 0 z "},"Ħ":{"ha":833,"x_min":14,"x_max":819,"o":"m 124 0 l 124 729 l 14 729 l 14 838 l 124 838 l 124 1014 l 261 1014 l 261 838 l 572 838 l 572 1014 l 710 1014 l 710 838 l 819 838 l 819 729 l 710 729 l 710 0 l 572 0 l 572 463 l 261 463 l 261 0 l 124 0 m 261 588 l 572 588 l 572 729 l 261 729 l 261 588 z "},"ħ":{"ha":833,"x_min":0,"x_max":714,"o":"m 0 789 l 0 896 l 122 896 l 122 1014 l 260 1014 l 260 896 l 489 896 l 489 789 l 260 789 l 260 681 l 258 535 l 261 535 q 324 653 271 611 q 464 694 376 694 q 646 622 578 694 q 714 428 714 550 l 714 0 l 576 0 l 576 413 q 535 534 576 490 q 421 578 493 578 q 303 531 346 578 q 260 401 260 485 l 260 0 l 122 0 l 122 789 l 0 789 z "},"Ĩ":{"ha":833,"x_min":140,"x_max":693,"o":"m 514 1129 q 432 1153 465 1129 q 374 1200 399 1176 q 326 1224 350 1224 q 285 1176 285 1224 l 285 1136 l 190 1136 l 190 1179 q 226 1278 190 1242 q 319 1315 261 1315 q 401 1292 368 1315 q 459 1244 435 1268 q 507 1221 483 1221 q 549 1268 549 1221 l 549 1308 l 643 1308 l 643 1267 q 608 1166 643 1203 q 514 1129 572 1129 m 140 0 l 140 125 l 347 125 l 347 889 l 140 889 l 140 1014 l 693 1014 l 693 889 l 486 889 l 486 125 l 693 125 l 693 0 l 140 0 z "},"ĩ":{"ha":833,"x_min":115,"x_max":772,"o":"m 536 900 q 454 924 488 900 q 397 971 421 947 q 349 994 372 994 q 307 947 307 994 l 307 907 l 213 907 l 213 950 q 248 1049 213 1013 q 342 1086 283 1086 q 424 1063 390 1086 q 481 1015 457 1039 q 529 992 506 992 q 571 1039 571 992 l 571 1079 l 665 1079 l 665 1038 q 630 937 665 974 q 536 900 594 900 m 115 0 l 115 125 l 383 125 l 383 639 l 143 639 l 143 764 l 521 764 l 521 125 l 772 125 l 772 0 l 115 0 z "},"Ī":{"ha":833,"x_min":140,"x_max":693,"o":"m 190 1163 l 190 1274 l 643 1274 l 643 1163 l 190 1163 m 140 0 l 140 125 l 347 125 l 347 889 l 140 889 l 140 1014 l 693 1014 l 693 889 l 486 889 l 486 125 l 693 125 l 693 0 l 140 0 z "},"ī":{"ha":833,"x_min":115,"x_max":772,"o":"m 213 928 l 213 1039 l 665 1039 l 665 928 l 213 928 m 115 0 l 115 125 l 383 125 l 383 639 l 143 639 l 143 764 l 521 764 l 521 125 l 772 125 l 772 0 l 115 0 z "},"Ĭ":{"ha":833,"x_min":140,"x_max":693,"o":"m 581 1173 q 550 1145 581 1173 q 417 1117 518 1117 q 252 1173 315 1117 q 189 1319 189 1229 l 297 1319 q 330 1236 297 1268 q 415 1204 363 1204 q 503 1236 469 1204 q 536 1319 536 1268 l 644 1319 q 581 1173 644 1229 m 140 0 l 140 125 l 347 125 l 347 889 l 140 889 l 140 1014 l 693 1014 l 693 889 l 486 889 l 486 125 l 693 125 l 693 0 l 140 0 z "},"ĭ":{"ha":833,"x_min":115,"x_max":772,"o":"m 603 944 q 572 916 603 944 q 439 888 540 888 q 274 944 338 888 q 211 1090 211 1000 l 319 1090 q 352 1007 319 1039 q 438 975 385 975 q 525 1007 492 975 q 558 1090 558 1039 l 667 1090 q 603 944 667 1000 m 115 0 l 115 125 l 383 125 l 383 639 l 143 639 l 143 764 l 521 764 l 521 125 l 772 125 l 772 0 l 115 0 z "},"Į":{"ha":833,"x_min":140,"x_max":693,"o":"m 140 0 l 140 125 l 347 125 l 347 889 l 140 889 l 140 1014 l 693 1014 l 693 889 l 486 889 l 486 125 l 693 125 l 693 0 l 467 0 l 463 -3 q 379 -126 379 -72 q 399 -176 379 -157 q 454 -194 419 -194 l 539 -194 l 539 -286 l 424 -286 q 299 -249 346 -286 q 253 -154 253 -212 q 356 0 253 -74 l 140 0 z "},"į":{"ha":833,"x_min":115,"x_max":772,"o":"m 514 923 q 500 911 514 923 q 439 899 486 899 q 364 923 392 899 q 336 989 336 947 q 363 1057 336 1032 q 439 1082 390 1082 q 514 1057 486 1082 q 542 989 542 1032 q 514 923 542 947 m 115 0 l 115 125 l 383 125 l 383 639 l 143 639 l 143 764 l 521 764 l 521 125 l 772 125 l 772 0 l 488 0 l 485 -3 q 401 -126 401 -72 q 422 -175 401 -156 q 475 -194 442 -194 l 561 -194 l 561 -286 l 446 -286 q 322 -249 368 -286 q 275 -154 275 -212 q 378 0 275 -74 l 115 0 z "},"İ":{"ha":833,"x_min":140,"x_max":693,"o":"m 492 1156 q 478 1143 492 1156 q 417 1131 464 1131 q 342 1156 369 1131 q 314 1222 314 1181 q 342 1289 314 1264 q 417 1314 369 1314 q 492 1289 464 1314 q 519 1222 519 1264 q 492 1156 519 1181 m 140 0 l 140 125 l 347 125 l 347 889 l 140 889 l 140 1014 l 693 1014 l 693 889 l 486 889 l 486 125 l 693 125 l 693 0 l 140 0 z "},"ı":{"ha":833,"x_min":115,"x_max":772,"o":"m 115 0 l 115 125 l 383 125 l 383 639 l 143 639 l 143 764 l 521 764 l 521 125 l 772 125 l 772 0 l 115 0 z "},"Ĵ":{"ha":833,"x_min":57,"x_max":757,"o":"m 243 1125 l 436 1319 l 563 1319 l 757 1125 l 611 1125 l 500 1232 l 392 1125 l 243 1125 m 608 69 q 565 27 608 69 q 375 -14 522 -14 q 142 69 228 -14 q 57 294 57 151 l 194 294 q 242 157 194 206 q 375 108 289 108 q 508 157 460 108 q 556 293 556 206 l 556 889 l 271 889 l 271 1014 l 693 1014 l 693 293 q 608 69 693 151 z "},"ĵ":{"ha":833,"x_min":96,"x_max":793,"o":"m 281 896 l 472 1090 l 600 1090 l 793 896 l 649 896 l 536 1003 l 428 896 l 281 896 m 96 -250 l 96 -124 l 301 -124 q 428 -79 383 -124 q 474 46 474 -35 l 474 639 l 124 639 l 124 764 l 611 764 l 611 44 q 528 -170 611 -90 q 304 -250 444 -250 l 96 -250 z "},"Ķ":{"ha":833,"x_min":122,"x_max":781,"o":"m 122 0 l 122 1014 l 260 1014 l 260 585 l 401 585 l 618 1014 l 768 1014 l 522 528 l 781 0 l 625 0 l 399 464 l 260 464 l 260 0 l 122 0 m 261 -333 l 393 -132 l 549 -132 l 400 -333 l 261 -333 z "},"ķ":{"ha":833,"x_min":126,"x_max":778,"o":"m 126 0 l 126 1014 l 264 1014 l 264 453 l 406 453 l 618 764 l 774 764 l 524 399 l 778 0 l 619 0 l 406 335 l 264 335 l 264 0 l 126 0 m 261 -333 l 393 -132 l 549 -132 l 400 -333 l 261 -333 z "},"ĸ":{"ha":833,"x_min":126,"x_max":778,"o":"m 126 0 l 126 764 l 264 764 l 264 453 l 404 453 l 618 764 l 774 764 l 524 399 l 778 0 l 618 0 l 406 335 l 264 335 l 264 0 l 126 0 z "},"Ĺ":{"ha":833,"x_min":160,"x_max":767,"o":"m 160 1125 l 307 1319 l 454 1319 l 299 1125 l 160 1125 m 178 0 l 178 1014 l 315 1014 l 315 125 l 767 125 l 767 0 l 178 0 z "},"ĺ":{"ha":833,"x_min":42,"x_max":768,"o":"m 265 1125 l 411 1319 l 560 1319 l 404 1125 l 265 1125 m 532 0 q 365 61 428 0 q 301 224 301 122 l 301 889 l 42 889 l 42 1014 l 439 1014 l 439 225 q 465 152 439 179 q 535 125 490 125 l 768 125 l 768 0 l 532 0 z "},"Ļ":{"ha":833,"x_min":178,"x_max":767,"o":"m 178 0 l 178 1014 l 315 1014 l 315 125 l 767 125 l 767 0 l 178 0 m 317 -333 l 449 -132 l 604 -132 l 456 -333 l 317 -333 z "},"ļ":{"ha":833,"x_min":42,"x_max":768,"o":"m 532 0 q 365 61 428 0 q 301 224 301 122 l 301 889 l 42 889 l 42 1014 l 439 1014 l 439 225 q 465 152 439 179 q 535 125 490 125 l 768 125 l 768 0 l 532 0 m 289 -333 l 421 -132 l 576 -132 l 428 -333 l 289 -333 z "},"Ľ":{"ha":833,"x_min":178,"x_max":976,"o":"m 833 1014 l 847 1264 l 976 1264 l 949 1014 l 833 1014 m 178 0 l 178 1014 l 315 1014 l 315 125 l 767 125 l 767 0 l 178 0 z "},"ľ":{"ha":833,"x_min":42,"x_max":976,"o":"m 833 1014 l 847 1264 l 976 1264 l 949 1014 l 833 1014 m 532 0 q 365 61 428 0 q 301 224 301 122 l 301 889 l 42 889 l 42 1014 l 439 1014 l 439 225 q 465 152 439 179 q 535 125 490 125 l 768 125 l 768 0 l 532 0 z "},"Ŀ":{"ha":833,"x_min":178,"x_max":767,"o":"m 178 0 l 178 1014 l 315 1014 l 315 125 l 767 125 l 767 0 l 178 0 m 624 368 q 536 399 568 368 q 504 485 504 431 q 536 573 504 540 q 624 606 568 606 q 710 573 678 606 q 742 485 742 540 q 710 399 742 431 q 624 368 678 368 z "},"ŀ":{"ha":833,"x_min":14,"x_max":883,"o":"m 504 0 q 337 61 400 0 q 274 224 274 122 l 274 889 l 14 889 l 14 1014 l 411 1014 l 411 225 q 437 152 411 179 q 507 125 463 125 l 740 125 l 740 0 l 504 0 m 764 368 q 678 399 710 368 q 646 485 646 431 q 678 573 646 540 q 764 606 710 606 q 851 573 819 606 q 883 485 883 540 q 851 399 883 431 q 764 368 819 368 z "},"Ł":{"ha":833,"x_min":28,"x_max":768,"o":"m 179 0 l 179 418 l 28 319 l 28 443 l 179 542 l 179 1014 l 317 1014 l 317 631 l 544 778 l 544 654 l 317 507 l 317 125 l 768 125 l 768 0 l 179 0 z "},"ł":{"ha":833,"x_min":42,"x_max":768,"o":"m 139 319 l 139 443 l 301 549 l 301 889 l 42 889 l 42 1014 l 439 1014 l 439 638 l 656 778 l 656 654 l 439 514 l 439 225 q 465 152 439 179 q 535 125 490 125 l 768 125 l 768 0 l 532 0 q 365 61 428 0 q 301 224 301 122 l 301 425 l 139 319 z "},"Ń":{"ha":833,"x_min":119,"x_max":715,"o":"m 331 1125 l 476 1319 l 625 1319 l 469 1125 l 331 1125 m 119 0 l 119 1014 l 297 1014 l 600 158 q 585 468 585 321 l 585 1014 l 715 1014 l 715 0 l 536 0 l 236 856 q 249 551 249 696 l 249 0 l 119 0 z "},"ń":{"ha":833,"x_min":122,"x_max":714,"o":"m 338 896 l 483 1090 l 632 1090 l 476 896 l 338 896 m 122 0 l 122 764 l 258 764 l 258 618 l 261 618 q 324 736 271 694 q 464 778 376 778 q 646 706 578 778 q 714 511 714 633 l 714 0 l 576 0 l 576 496 q 535 616 576 574 q 421 658 493 658 q 303 613 346 658 q 260 485 260 568 l 260 0 l 122 0 z "},"Ņ":{"ha":833,"x_min":119,"x_max":715,"o":"m 119 0 l 119 1014 l 297 1014 l 600 158 q 585 468 585 321 l 585 1014 l 715 1014 l 715 0 l 536 0 l 236 856 q 249 551 249 696 l 249 0 l 119 0 m 261 -333 l 393 -132 l 549 -132 l 400 -333 l 261 -333 z "},"ņ":{"ha":833,"x_min":122,"x_max":714,"o":"m 122 0 l 122 764 l 258 764 l 258 618 l 261 618 q 324 736 271 694 q 464 778 376 778 q 646 706 578 778 q 714 511 714 633 l 714 0 l 576 0 l 576 496 q 535 616 576 574 q 421 658 493 658 q 303 613 346 658 q 260 485 260 568 l 260 0 l 122 0 m 261 -333 l 393 -132 l 549 -132 l 400 -333 l 261 -333 z "},"Ň":{"ha":833,"x_min":119,"x_max":715,"o":"m 354 1125 l 160 1319 l 306 1319 l 417 1213 l 525 1319 l 674 1319 l 481 1125 l 354 1125 m 119 0 l 119 1014 l 297 1014 l 600 158 q 585 468 585 321 l 585 1014 l 715 1014 l 715 0 l 536 0 l 236 856 q 249 551 249 696 l 249 0 l 119 0 z "},"ň":{"ha":833,"x_min":122,"x_max":714,"o":"m 361 896 l 167 1090 l 313 1090 l 424 983 l 532 1090 l 681 1090 l 488 896 l 361 896 m 122 0 l 122 764 l 258 764 l 258 618 l 261 618 q 324 736 271 694 q 464 778 376 778 q 646 706 578 778 q 714 511 714 633 l 714 0 l 576 0 l 576 496 q 535 616 576 574 q 421 658 493 658 q 303 613 346 658 q 260 485 260 568 l 260 0 l 122 0 z "},"ŉ":{"ha":833,"x_min":-17,"x_max":714,"o":"m -17 896 l 115 1097 l 271 1097 l 122 896 l -17 896 m 122 0 l 122 764 l 258 764 l 258 618 l 261 618 q 324 736 271 694 q 464 778 376 778 q 646 706 578 778 q 714 511 714 633 l 714 0 l 576 0 l 576 496 q 535 616 576 574 q 421 658 493 658 q 303 613 346 658 q 260 485 260 568 l 260 0 l 122 0 z "},"Ŋ":{"ha":833,"x_min":119,"x_max":715,"o":"m 336 -250 l 336 -124 l 425 -124 q 537 -83 496 -124 q 578 26 578 -43 l 236 856 q 249 551 249 696 l 249 0 l 119 0 l 119 1014 l 297 1014 l 600 268 q 585 578 585 431 l 585 1014 l 715 1014 l 715 24 q 635 -175 715 -100 q 422 -250 554 -250 l 336 -250 z "},"ŋ":{"ha":833,"x_min":125,"x_max":711,"o":"m 335 -250 l 335 -124 l 421 -124 q 533 -83 492 -124 q 574 26 574 -43 l 574 496 q 533 617 574 574 q 421 661 493 661 q 304 615 346 661 q 263 485 263 568 l 263 0 l 125 0 l 125 764 l 261 764 l 261 618 l 263 618 q 324 736 272 694 q 464 778 376 778 q 644 706 578 778 q 711 511 711 633 l 711 24 q 631 -175 711 -100 q 419 -250 551 -250 l 335 -250 z "},"Ō":{"ha":833,"x_min":117,"x_max":717,"o":"m 190 1163 l 190 1274 l 643 1274 l 643 1163 l 190 1163 m 636 65 q 596 25 636 65 q 417 -14 556 -14 q 197 65 278 -14 q 117 281 117 143 l 117 735 q 197 949 117 871 q 417 1028 278 1028 q 636 949 556 1028 q 717 735 717 871 l 717 281 q 636 65 717 143 m 297 153 q 318 131 297 153 q 417 108 339 108 q 537 153 494 108 q 579 281 579 197 l 579 735 q 537 861 579 817 q 417 906 494 906 q 297 861 339 906 q 254 735 254 817 l 254 281 q 297 153 254 197 z "},"ō":{"ha":833,"x_min":113,"x_max":721,"o":"m 190 928 l 190 1039 l 643 1039 l 643 928 l 190 928 m 639 67 q 598 28 639 67 q 417 -11 557 -11 q 194 67 276 -11 q 113 282 113 146 l 113 482 q 194 697 113 618 q 417 775 276 775 q 639 697 557 775 q 721 483 721 618 l 721 282 q 639 67 721 146 m 294 154 q 316 132 294 154 q 417 110 338 110 q 540 154 496 110 q 583 282 583 199 l 583 482 q 540 610 583 565 q 417 654 496 654 q 294 610 338 654 q 250 482 250 565 l 250 282 q 294 154 250 199 z "},"Ŏ":{"ha":833,"x_min":117,"x_max":717,"o":"m 581 1173 q 550 1145 581 1173 q 417 1117 518 1117 q 252 1173 315 1117 q 189 1319 189 1229 l 297 1319 q 330 1236 297 1268 q 415 1204 363 1204 q 503 1236 469 1204 q 536 1319 536 1268 l 644 1319 q 581 1173 644 1229 m 636 65 q 596 25 636 65 q 417 -14 556 -14 q 197 65 278 -14 q 117 281 117 143 l 117 735 q 197 949 117 871 q 417 1028 278 1028 q 636 949 556 1028 q 717 735 717 871 l 717 281 q 636 65 717 143 m 297 153 q 318 131 297 153 q 417 108 339 108 q 537 153 494 108 q 579 281 579 197 l 579 735 q 537 861 579 817 q 417 906 494 906 q 297 861 339 906 q 254 735 254 817 l 254 281 q 297 153 254 197 z "},"ŏ":{"ha":833,"x_min":113,"x_max":721,"o":"m 581 944 q 550 916 581 944 q 417 888 518 888 q 252 944 315 888 q 189 1090 189 1000 l 297 1090 q 330 1007 297 1039 q 415 975 363 975 q 503 1007 469 975 q 536 1090 536 1039 l 644 1090 q 581 944 644 1000 m 639 67 q 598 28 639 67 q 417 -11 557 -11 q 194 67 276 -11 q 113 282 113 146 l 113 482 q 194 697 113 618 q 417 775 276 775 q 639 697 557 775 q 721 483 721 618 l 721 282 q 639 67 721 146 m 294 154 q 316 132 294 154 q 417 110 338 110 q 540 154 496 110 q 583 282 583 199 l 583 482 q 540 610 583 565 q 417 654 496 654 q 294 610 338 654 q 250 482 250 565 l 250 282 q 294 154 250 199 z "},"Ő":{"ha":833,"x_min":117,"x_max":742,"o":"m 451 1125 l 604 1319 l 742 1319 l 582 1125 l 451 1125 m 196 1125 l 347 1319 l 486 1319 l 326 1125 l 196 1125 m 636 65 q 596 25 636 65 q 417 -14 556 -14 q 197 65 278 -14 q 117 281 117 143 l 117 735 q 197 949 117 871 q 417 1028 278 1028 q 636 949 556 1028 q 717 735 717 871 l 717 281 q 636 65 717 143 m 297 153 q 318 131 297 153 q 417 108 339 108 q 537 153 494 108 q 579 281 579 197 l 579 735 q 537 861 579 817 q 417 906 494 906 q 297 861 339 906 q 254 735 254 817 l 254 281 q 297 153 254 197 z "},"ő":{"ha":833,"x_min":113,"x_max":742,"o":"m 451 896 l 604 1090 l 742 1090 l 582 896 l 451 896 m 196 896 l 347 1090 l 486 1090 l 326 896 l 196 896 m 639 67 q 598 28 639 67 q 417 -11 557 -11 q 194 67 276 -11 q 113 282 113 146 l 113 482 q 194 697 113 618 q 417 775 276 775 q 639 697 557 775 q 721 483 721 618 l 721 282 q 639 67 721 146 m 294 154 q 316 132 294 154 q 417 110 338 110 q 540 154 496 110 q 583 282 583 199 l 583 482 q 540 610 583 565 q 417 654 496 654 q 294 610 338 654 q 250 482 250 565 l 250 282 q 294 154 250 199 z "},"Œ":{"ha":833,"x_min":54,"x_max":800,"o":"m 267 -12 q 111 58 168 -12 q 54 253 54 129 l 54 763 q 111 957 54 886 q 267 1028 168 1028 q 372 989 332 1028 q 419 903 413 950 l 426 903 l 426 1014 l 800 1014 l 800 892 l 557 892 l 557 585 l 765 585 l 765 461 l 557 461 l 557 124 l 800 124 l 800 0 l 426 0 l 426 113 l 419 113 q 372 26 413 65 q 267 -12 332 -12 m 220 147 q 236 128 220 147 q 307 108 251 108 q 394 147 363 108 q 425 253 425 185 l 425 763 q 394 869 425 831 q 307 907 363 907 q 220 868 251 907 q 189 763 189 829 l 189 253 q 220 147 189 186 z "},"œ":{"ha":833,"x_min":49,"x_max":785,"o":"m 250 -14 q 103 46 157 -14 q 49 207 49 106 l 49 558 q 103 718 49 658 q 250 778 157 778 q 367 744 325 778 q 414 668 408 710 l 419 668 q 466 744 425 710 q 583 778 507 778 q 731 718 676 778 q 785 558 785 658 l 785 347 l 479 347 l 479 207 q 503 126 479 156 q 568 97 528 97 q 627 119 603 97 q 657 176 651 140 l 781 176 q 716 38 769 89 q 583 -14 663 -14 q 466 20 507 -14 q 419 96 425 54 l 414 96 q 367 20 408 54 q 250 -14 325 -14 m 265 97 q 330 126 306 97 q 354 207 354 156 l 354 558 q 330 638 354 608 q 265 667 306 667 q 198 638 222 667 q 174 558 174 608 l 174 207 q 198 126 174 156 q 265 97 222 97 m 479 450 l 661 450 l 661 558 q 636 638 661 608 q 568 667 611 667 q 503 638 528 667 q 479 558 479 608 l 479 450 z "},"Ŕ":{"ha":833,"x_min":122,"x_max":761,"o":"m 331 1125 l 476 1319 l 625 1319 l 469 1125 l 331 1125 m 122 0 l 122 1014 l 438 1014 q 662 933 576 1014 q 747 719 747 851 q 695 544 747 618 q 551 440 643 469 l 761 0 l 601 0 l 413 424 l 260 424 l 260 0 l 122 0 m 260 546 l 438 546 q 560 593 514 546 q 606 718 606 640 q 560 844 606 797 q 438 892 514 892 l 260 892 l 260 546 z "},"ŕ":{"ha":833,"x_min":146,"x_max":749,"o":"m 358 896 l 504 1090 l 653 1090 l 497 896 l 358 896 m 146 0 l 146 764 l 282 764 l 282 618 l 285 618 q 348 736 294 694 q 489 778 401 778 q 678 701 607 778 q 749 496 749 625 l 749 440 l 610 440 l 610 485 q 567 613 610 568 q 443 658 524 658 q 283 482 283 658 l 283 0 l 146 0 z "},"Ŗ":{"ha":833,"x_min":122,"x_max":761,"o":"m 122 0 l 122 1014 l 438 1014 q 662 933 576 1014 q 747 719 747 851 q 695 544 747 618 q 551 440 643 469 l 761 0 l 601 0 l 413 424 l 260 424 l 260 0 l 122 0 m 260 546 l 438 546 q 560 593 514 546 q 606 718 606 640 q 560 844 606 797 q 438 892 514 892 l 260 892 l 260 546 m 261 -333 l 393 -132 l 549 -132 l 400 -333 l 261 -333 z "},"ŗ":{"ha":833,"x_min":46,"x_max":749,"o":"m 146 0 l 146 764 l 282 764 l 282 618 l 285 618 q 348 736 294 694 q 489 778 401 778 q 678 701 607 778 q 749 496 749 625 l 749 440 l 610 440 l 610 485 q 567 613 610 568 q 443 658 524 658 q 283 482 283 658 l 283 0 l 146 0 m 46 -333 l 178 -132 l 333 -132 l 185 -333 l 46 -333 z "},"Ř":{"ha":833,"x_min":122,"x_max":761,"o":"m 354 1125 l 160 1319 l 306 1319 l 417 1213 l 525 1319 l 674 1319 l 481 1125 l 354 1125 m 122 0 l 122 1014 l 438 1014 q 662 933 576 1014 q 747 719 747 851 q 695 544 747 618 q 551 440 643 469 l 761 0 l 601 0 l 413 424 l 260 424 l 260 0 l 122 0 m 260 546 l 438 546 q 560 593 514 546 q 606 718 606 640 q 560 844 606 797 q 438 892 514 892 l 260 892 l 260 546 z "},"ř":{"ha":833,"x_min":146,"x_max":749,"o":"m 382 896 l 188 1090 l 333 1090 l 444 983 l 553 1090 l 701 1090 l 508 896 l 382 896 m 146 0 l 146 764 l 282 764 l 282 618 l 285 618 q 348 736 294 694 q 489 778 401 778 q 678 701 607 778 q 749 496 749 625 l 749 440 l 610 440 l 610 485 q 567 613 610 568 q 443 658 524 658 q 283 482 283 658 l 283 0 l 146 0 z "},"Ś":{"ha":833,"x_min":94,"x_max":739,"o":"m 331 1125 l 476 1319 l 625 1319 l 469 1125 l 331 1125 m 421 -14 q 183 63 272 -14 q 94 268 94 139 l 232 268 q 284 152 232 196 q 422 108 336 108 q 554 152 506 108 q 603 268 603 196 q 572 369 603 326 q 489 428 542 413 l 346 471 q 180 578 239 503 q 121 754 121 653 q 203 953 121 879 q 424 1028 285 1028 q 643 953 561 1028 q 725 756 725 879 l 588 756 q 543 866 588 825 q 424 907 499 907 q 301 866 347 907 q 256 757 256 825 q 286 664 256 703 q 374 608 317 625 l 521 563 q 681 453 622 531 q 739 269 739 375 q 652 63 739 140 q 421 -14 565 -14 z "},"ś":{"ha":833,"x_min":117,"x_max":729,"o":"m 331 896 l 476 1090 l 625 1090 l 469 896 l 331 896 m 392 -11 q 193 45 269 -11 q 117 196 117 101 l 257 196 q 295 131 257 154 q 394 107 333 107 l 453 107 q 594 211 594 107 q 467 322 594 300 l 363 338 q 191 411 247 357 q 135 558 135 465 q 204 719 135 664 q 403 775 274 775 l 456 775 q 647 722 575 775 q 719 581 719 669 l 579 581 q 545 636 579 615 q 453 657 511 657 l 400 657 q 269 558 269 657 q 383 460 269 479 l 488 443 q 671 370 613 424 q 729 217 729 317 q 658 49 729 108 q 450 -11 588 -11 l 392 -11 z "},"Ŝ":{"ha":833,"x_min":94,"x_max":739,"o":"m 160 1125 l 353 1319 l 479 1319 l 674 1125 l 528 1125 l 417 1232 l 308 1125 l 160 1125 m 421 -14 q 183 63 272 -14 q 94 268 94 139 l 232 268 q 284 152 232 196 q 422 108 336 108 q 554 152 506 108 q 603 268 603 196 q 572 369 603 326 q 489 428 542 413 l 346 471 q 180 578 239 503 q 121 754 121 653 q 203 953 121 879 q 424 1028 285 1028 q 643 953 561 1028 q 725 756 725 879 l 588 756 q 543 866 588 825 q 424 907 499 907 q 301 866 347 907 q 256 757 256 825 q 286 664 256 703 q 374 608 317 625 l 521 563 q 681 453 622 531 q 739 269 739 375 q 652 63 739 140 q 421 -14 565 -14 z "},"ŝ":{"ha":833,"x_min":117,"x_max":729,"o":"m 160 896 l 353 1090 l 479 1090 l 674 896 l 528 896 l 417 1003 l 308 896 l 160 896 m 392 -11 q 193 45 269 -11 q 117 196 117 101 l 257 196 q 295 131 257 154 q 394 107 333 107 l 453 107 q 594 211 594 107 q 467 322 594 300 l 363 338 q 191 411 247 357 q 135 558 135 465 q 204 719 135 664 q 403 775 274 775 l 456 775 q 647 722 575 775 q 719 581 719 669 l 579 581 q 545 636 579 615 q 453 657 511 657 l 400 657 q 269 558 269 657 q 383 460 269 479 l 488 443 q 671 370 613 424 q 729 217 729 317 q 658 49 729 108 q 450 -11 588 -11 l 392 -11 z "},"Ş":{"ha":833,"x_min":94,"x_max":739,"o":"m 283 -286 l 283 -207 l 382 -207 q 432 -192 413 -207 q 451 -157 451 -176 q 411 -113 451 -131 q 303 -96 371 -96 l 336 -7 q 159 87 224 14 q 94 268 94 160 l 232 268 q 284 152 232 196 q 422 108 336 108 q 554 152 506 108 q 603 268 603 196 q 572 369 603 326 q 489 428 542 413 l 346 471 q 180 578 239 503 q 121 754 121 653 q 203 953 121 879 q 424 1028 285 1028 q 643 953 561 1028 q 725 756 725 879 l 588 756 q 543 866 588 825 q 424 907 499 907 q 301 866 347 907 q 256 757 256 825 q 286 664 256 703 q 374 608 317 625 l 521 563 q 681 453 622 531 q 739 269 739 375 q 652 63 739 140 q 421 -14 565 -14 l 418 -14 l 406 -50 q 523 -87 469 -56 q 576 -169 576 -119 q 528 -252 576 -218 q 406 -286 481 -286 l 283 -286 z "},"ş":{"ha":833,"x_min":117,"x_max":729,"o":"m 296 -286 l 296 -207 l 394 -207 q 444 -192 425 -207 q 464 -157 464 -176 q 424 -113 464 -131 q 317 -96 385 -96 l 349 -10 q 180 56 243 1 q 117 196 117 110 l 257 196 q 295 131 257 154 q 394 107 333 107 l 453 107 q 594 211 594 107 q 467 322 594 300 l 363 338 q 191 411 247 357 q 135 558 135 465 q 204 719 135 664 q 403 775 274 775 l 456 775 q 647 722 575 775 q 719 581 719 669 l 579 581 q 545 636 579 615 q 453 657 511 657 l 400 657 q 269 558 269 657 q 383 460 269 479 l 488 443 q 671 370 613 424 q 729 217 729 317 q 658 49 729 108 q 450 -11 588 -11 l 432 -11 l 418 -50 q 537 -87 483 -56 q 590 -169 590 -119 q 542 -252 590 -218 q 419 -286 494 -286 l 296 -286 z "},"Š":{"ha":833,"x_min":94,"x_max":739,"o":"m 354 1125 l 160 1319 l 306 1319 l 417 1213 l 525 1319 l 674 1319 l 481 1125 l 354 1125 m 421 -14 q 183 63 272 -14 q 94 268 94 139 l 232 268 q 284 152 232 196 q 422 108 336 108 q 554 152 506 108 q 603 268 603 196 q 572 369 603 326 q 489 428 542 413 l 346 471 q 180 578 239 503 q 121 754 121 653 q 203 953 121 879 q 424 1028 285 1028 q 643 953 561 1028 q 725 756 725 879 l 588 756 q 543 866 588 825 q 424 907 499 907 q 301 866 347 907 q 256 757 256 825 q 286 664 256 703 q 374 608 317 625 l 521 563 q 681 453 622 531 q 739 269 739 375 q 652 63 739 140 q 421 -14 565 -14 z "},"š":{"ha":833,"x_min":117,"x_max":729,"o":"m 354 896 l 160 1090 l 306 1090 l 417 983 l 525 1090 l 674 1090 l 481 896 l 354 896 m 392 -11 q 193 45 269 -11 q 117 196 117 101 l 257 196 q 295 131 257 154 q 394 107 333 107 l 453 107 q 594 211 594 107 q 467 322 594 300 l 363 338 q 191 411 247 357 q 135 558 135 465 q 204 719 135 664 q 403 775 274 775 l 456 775 q 647 722 575 775 q 719 581 719 669 l 579 581 q 545 636 579 615 q 453 657 511 657 l 400 657 q 269 558 269 657 q 383 460 269 479 l 488 443 q 671 370 613 424 q 729 217 729 317 q 658 49 729 108 q 450 -11 588 -11 l 392 -11 z "},"Ţ":{"ha":833,"x_min":74,"x_max":760,"o":"m 349 0 l 349 889 l 74 889 l 74 1014 l 760 1014 l 760 889 l 486 889 l 486 0 l 468 -50 q 587 -87 533 -56 q 640 -169 640 -119 q 592 -252 640 -218 q 469 -286 544 -286 l 346 -286 l 346 -207 l 444 -207 q 494 -192 475 -207 q 514 -157 514 -176 q 474 -113 514 -131 q 367 -96 435 -96 l 401 0 l 349 0 z "},"ţ":{"ha":833,"x_min":72,"x_max":725,"o":"m 365 -286 l 365 -207 l 464 -207 q 514 -192 494 -207 q 533 -157 533 -176 q 494 -113 533 -131 q 386 -96 454 -96 l 425 10 q 323 81 360 29 q 286 208 286 133 l 286 639 l 72 639 l 72 764 l 286 764 l 286 979 l 424 979 l 424 764 l 725 764 l 725 639 l 424 639 l 424 210 q 445 148 424 171 q 503 125 467 125 l 711 125 l 711 0 l 504 0 l 488 -50 q 606 -87 553 -56 q 660 -169 660 -119 q 612 -252 660 -218 q 489 -286 564 -286 l 365 -286 z "},"Ť":{"ha":833,"x_min":74,"x_max":760,"o":"m 354 1125 l 160 1319 l 306 1319 l 417 1213 l 525 1319 l 674 1319 l 481 1125 l 354 1125 m 349 0 l 349 889 l 74 889 l 74 1014 l 760 1014 l 760 889 l 486 889 l 486 0 l 349 0 z "},"ť":{"ha":833,"x_min":72,"x_max":772,"o":"m 518 861 l 642 1078 l 772 1078 l 636 861 l 518 861 m 500 0 q 344 57 403 0 q 286 208 286 114 l 286 639 l 72 639 l 72 764 l 286 764 l 286 979 l 424 979 l 424 764 l 725 764 l 725 639 l 424 639 l 424 210 q 445 148 424 171 q 503 125 467 125 l 711 125 l 711 0 l 500 0 z "},"Ŧ":{"ha":833,"x_min":74,"x_max":760,"o":"m 349 0 l 349 404 l 151 404 l 151 518 l 349 518 l 349 889 l 74 889 l 74 1014 l 760 1014 l 760 889 l 486 889 l 486 518 l 683 518 l 683 404 l 486 404 l 486 0 l 349 0 z "},"ŧ":{"ha":833,"x_min":72,"x_max":725,"o":"m 115 328 l 115 440 l 286 440 l 286 639 l 72 639 l 72 764 l 286 764 l 286 979 l 424 979 l 424 764 l 725 764 l 725 639 l 424 639 l 424 440 l 663 440 l 663 328 l 424 328 l 424 210 q 445 148 424 171 q 503 125 467 125 l 711 125 l 711 0 l 500 0 q 344 57 403 0 q 286 208 286 114 l 286 328 l 115 328 z "},"Ũ":{"ha":833,"x_min":119,"x_max":715,"o":"m 514 1129 q 432 1153 465 1129 q 374 1200 399 1176 q 326 1224 350 1224 q 285 1176 285 1224 l 285 1136 l 190 1136 l 190 1179 q 226 1278 190 1242 q 319 1315 261 1315 q 401 1292 368 1315 q 459 1244 435 1268 q 507 1221 483 1221 q 549 1268 549 1221 l 549 1308 l 643 1308 l 643 1267 q 608 1166 643 1203 q 514 1129 572 1129 m 417 -14 q 197 65 275 -14 q 119 281 119 143 l 119 1014 l 257 1014 l 257 281 q 297 153 257 199 q 417 108 338 108 q 536 153 494 108 q 578 281 578 199 l 578 1014 l 715 1014 l 715 281 q 638 64 715 142 q 417 -14 560 -14 z "},"ũ":{"ha":833,"x_min":119,"x_max":714,"o":"m 514 900 q 432 924 465 900 q 374 971 399 947 q 326 994 350 994 q 285 947 285 994 l 285 907 l 190 907 l 190 950 q 226 1049 190 1013 q 319 1086 261 1086 q 401 1063 368 1086 q 459 1015 435 1039 q 507 992 483 992 q 549 1039 549 992 l 549 1079 l 643 1079 l 643 1038 q 608 937 643 974 q 514 900 572 900 m 633 65 q 592 26 633 65 q 415 -14 551 -14 q 199 66 279 -14 q 119 281 119 146 l 119 764 l 257 764 l 257 281 q 299 152 257 197 q 415 107 340 107 q 533 152 490 107 q 576 281 576 197 l 576 764 l 714 764 l 714 281 q 633 65 714 144 z "},"Ū":{"ha":833,"x_min":119,"x_max":715,"o":"m 190 1163 l 190 1274 l 643 1274 l 643 1163 l 190 1163 m 417 -14 q 197 65 275 -14 q 119 281 119 143 l 119 1014 l 257 1014 l 257 281 q 297 153 257 199 q 417 108 338 108 q 536 153 494 108 q 578 281 578 199 l 578 1014 l 715 1014 l 715 281 q 638 64 715 142 q 417 -14 560 -14 z "},"ū":{"ha":833,"x_min":119,"x_max":714,"o":"m 190 928 l 190 1039 l 643 1039 l 643 928 l 190 928 m 633 65 q 592 26 633 65 q 415 -14 551 -14 q 199 66 279 -14 q 119 281 119 146 l 119 764 l 257 764 l 257 281 q 299 152 257 197 q 415 107 340 107 q 533 152 490 107 q 576 281 576 197 l 576 764 l 714 764 l 714 281 q 633 65 714 144 z "},"Ŭ":{"ha":833,"x_min":119,"x_max":715,"o":"m 581 1173 q 550 1145 581 1173 q 417 1117 518 1117 q 252 1173 315 1117 q 189 1319 189 1229 l 297 1319 q 330 1236 297 1268 q 415 1204 363 1204 q 503 1236 469 1204 q 536 1319 536 1268 l 644 1319 q 581 1173 644 1229 m 417 -14 q 197 65 275 -14 q 119 281 119 143 l 119 1014 l 257 1014 l 257 281 q 297 153 257 199 q 417 108 338 108 q 536 153 494 108 q 578 281 578 199 l 578 1014 l 715 1014 l 715 281 q 638 64 715 142 q 417 -14 560 -14 z "},"ŭ":{"ha":833,"x_min":119,"x_max":714,"o":"m 581 944 q 550 916 581 944 q 417 888 518 888 q 252 944 315 888 q 189 1090 189 1000 l 297 1090 q 330 1007 297 1039 q 415 975 363 975 q 503 1007 469 975 q 536 1090 536 1039 l 644 1090 q 581 944 644 1000 m 633 65 q 592 26 633 65 q 415 -14 551 -14 q 199 66 279 -14 q 119 281 119 146 l 119 764 l 257 764 l 257 281 q 299 152 257 197 q 415 107 340 107 q 533 152 490 107 q 576 281 576 197 l 576 764 l 714 764 l 714 281 q 633 65 714 144 z "},"Ů":{"ha":833,"x_min":119,"x_max":715,"o":"m 540 1106 q 517 1083 540 1106 q 417 1061 493 1061 q 293 1106 340 1061 q 246 1222 246 1150 q 293 1339 246 1294 q 417 1383 340 1383 q 540 1339 493 1383 q 588 1222 588 1294 q 540 1106 588 1150 m 356 1161 q 368 1150 356 1161 q 417 1139 379 1139 q 477 1161 454 1139 q 500 1222 500 1183 q 477 1284 500 1261 q 417 1307 454 1307 q 356 1284 379 1307 q 333 1222 333 1261 q 356 1161 333 1183 m 417 -14 q 197 65 275 -14 q 119 281 119 143 l 119 1014 l 257 1014 l 257 281 q 297 153 257 199 q 417 108 338 108 q 536 153 494 108 q 578 281 578 199 l 578 1014 l 715 1014 l 715 281 q 638 64 715 142 q 417 -14 560 -14 z "},"ů":{"ha":833,"x_min":119,"x_max":714,"o":"m 541 888 q 518 865 541 888 q 417 843 494 843 q 292 888 339 843 q 246 1004 246 932 q 293 1121 246 1076 q 417 1165 340 1165 q 540 1121 493 1165 q 588 1004 588 1076 q 541 888 588 932 m 356 942 q 368 931 356 942 q 417 919 379 919 q 477 942 454 919 q 500 1004 500 965 q 477 1065 500 1042 q 417 1089 454 1089 q 356 1065 379 1089 q 333 1004 333 1042 q 356 942 333 965 m 633 65 q 592 26 633 65 q 415 -14 551 -14 q 199 66 279 -14 q 119 281 119 146 l 119 764 l 257 764 l 257 281 q 299 152 257 197 q 415 107 340 107 q 533 152 490 107 q 576 281 576 197 l 576 764 l 714 764 l 714 281 q 633 65 714 144 z "},"Ű":{"ha":833,"x_min":119,"x_max":742,"o":"m 451 1125 l 604 1319 l 742 1319 l 582 1125 l 451 1125 m 196 1125 l 347 1319 l 486 1319 l 326 1125 l 196 1125 m 417 -14 q 197 65 275 -14 q 119 281 119 143 l 119 1014 l 257 1014 l 257 281 q 297 153 257 199 q 417 108 338 108 q 536 153 494 108 q 578 281 578 199 l 578 1014 l 715 1014 l 715 281 q 638 64 715 142 q 417 -14 560 -14 z "},"ű":{"ha":833,"x_min":119,"x_max":742,"o":"m 451 896 l 604 1090 l 742 1090 l 582 896 l 451 896 m 196 896 l 347 1090 l 486 1090 l 326 896 l 196 896 m 633 65 q 592 26 633 65 q 415 -14 551 -14 q 199 66 279 -14 q 119 281 119 146 l 119 764 l 257 764 l 257 281 q 299 152 257 197 q 415 107 340 107 q 533 152 490 107 q 576 281 576 197 l 576 764 l 714 764 l 714 281 q 633 65 714 144 z "},"Ų":{"ha":833,"x_min":119,"x_max":715,"o":"m 521 -286 q 397 -249 443 -286 q 350 -154 350 -212 q 442 -7 350 -85 q 417 -14 431 -14 q 199 65 278 -14 q 119 281 119 143 l 119 1014 l 257 1014 l 257 281 q 298 153 257 197 q 417 108 339 108 q 536 153 494 108 q 578 281 578 197 l 578 1014 l 715 1014 l 715 281 q 599 33 715 113 l 554 -3 q 476 -126 476 -65 q 497 -175 476 -156 q 550 -194 517 -194 l 636 -194 l 636 -286 l 521 -286 z "},"ų":{"ha":833,"x_min":119,"x_max":714,"o":"m 514 -286 q 390 -249 436 -286 q 343 -154 343 -212 q 438 -7 343 -83 q 417 -14 431 -14 q 199 65 278 -14 q 119 281 119 143 l 119 764 l 257 764 l 257 281 q 417 108 257 108 q 576 281 576 108 l 576 764 l 714 764 l 714 281 q 593 32 714 106 l 553 -3 q 469 -126 469 -72 q 490 -175 469 -156 q 543 -194 510 -194 l 629 -194 l 629 -286 l 514 -286 z "},"Ŵ":{"ha":833,"x_min":32,"x_max":801,"o":"m 160 1125 l 353 1319 l 479 1319 l 674 1125 l 528 1125 l 417 1232 l 308 1125 l 160 1125 m 144 0 l 32 1014 l 158 1014 l 232 275 q 243 97 242 138 q 261 275 257 236 l 353 1014 l 486 1014 l 571 275 q 590 97 583 175 q 604 275 597 196 l 679 1014 l 801 1014 l 685 0 l 519 0 l 436 750 q 419 921 425 851 q 412 846 418 907 q 401 750 406 785 l 311 0 l 144 0 z "},"ŵ":{"ha":833,"x_min":43,"x_max":790,"o":"m 160 896 l 353 1090 l 479 1090 l 674 896 l 528 896 l 417 1003 l 308 896 l 160 896 m 164 0 l 43 764 l 160 764 l 233 242 q 247 104 242 178 l 253 104 q 271 242 258 176 l 351 764 l 482 764 l 563 242 q 581 104 575 172 l 586 104 q 603 242 599 208 l 679 764 l 790 764 l 664 0 l 517 0 l 438 514 q 418 658 418 657 l 413 658 q 394 514 407 590 l 313 0 l 164 0 z "},"Ŷ":{"ha":833,"x_min":44,"x_max":789,"o":"m 160 1125 l 353 1319 l 479 1319 l 674 1125 l 528 1125 l 417 1232 l 308 1125 l 160 1125 m 349 0 l 349 376 l 44 1014 l 188 1014 l 378 614 q 418 507 410 544 q 461 614 433 557 l 647 1014 l 789 1014 l 486 376 l 486 0 l 349 0 z "},"ŷ":{"ha":833,"x_min":63,"x_max":771,"o":"m 160 896 l 353 1090 l 479 1090 l 674 896 l 528 896 l 417 1003 l 308 896 l 160 896 m 244 -250 l 356 46 l 63 764 l 213 764 l 390 313 q 425 192 410 258 q 461 313 442 263 l 626 764 l 771 764 l 388 -250 l 244 -250 z "},"Ÿ":{"ha":833,"x_min":44,"x_max":789,"o":"m 574 1132 q 506 1156 531 1132 q 481 1222 481 1181 q 506 1290 481 1265 q 574 1315 531 1315 q 640 1290 615 1315 q 665 1222 665 1265 q 640 1156 665 1181 q 574 1132 615 1132 m 260 1132 q 193 1156 218 1132 q 168 1222 168 1181 q 193 1290 168 1265 q 260 1315 218 1315 q 328 1290 303 1315 q 353 1222 353 1265 q 328 1156 353 1181 q 260 1132 303 1132 m 349 0 l 349 376 l 44 1014 l 188 1014 l 378 614 q 418 507 410 544 q 461 614 433 557 l 647 1014 l 789 1014 l 486 376 l 486 0 l 349 0 z "},"Ź":{"ha":833,"x_min":117,"x_max":718,"o":"m 331 1125 l 476 1319 l 625 1319 l 469 1125 l 331 1125 m 117 0 l 117 135 l 560 889 l 124 889 l 124 1014 l 703 1014 l 703 879 l 258 125 l 718 125 l 718 0 l 117 0 z "},"ź":{"ha":833,"x_min":121,"x_max":713,"o":"m 331 896 l 476 1090 l 625 1090 l 469 896 l 331 896 m 121 0 l 121 133 l 542 640 l 132 640 l 132 764 l 697 764 l 697 631 l 269 124 l 713 124 l 713 0 l 121 0 z "},"Ż":{"ha":833,"x_min":117,"x_max":718,"o":"m 492 1156 q 478 1143 492 1156 q 417 1131 464 1131 q 342 1156 369 1131 q 314 1222 314 1181 q 342 1289 314 1264 q 417 1314 369 1314 q 492 1289 464 1314 q 519 1222 519 1264 q 492 1156 519 1181 m 117 0 l 117 135 l 560 889 l 124 889 l 124 1014 l 703 1014 l 703 879 l 258 125 l 718 125 l 718 0 l 117 0 z "},"ż":{"ha":833,"x_min":121,"x_max":713,"o":"m 492 923 q 478 911 492 923 q 417 899 464 899 q 342 923 369 899 q 314 989 314 947 q 341 1057 314 1032 q 417 1082 368 1082 q 492 1057 465 1082 q 519 989 519 1032 q 492 923 519 947 m 121 0 l 121 133 l 542 640 l 132 640 l 132 764 l 697 764 l 697 631 l 269 124 l 713 124 l 713 0 l 121 0 z "},"Ž":{"ha":833,"x_min":117,"x_max":718,"o":"m 354 1125 l 160 1319 l 306 1319 l 417 1213 l 525 1319 l 674 1319 l 481 1125 l 354 1125 m 117 0 l 117 135 l 560 889 l 124 889 l 124 1014 l 703 1014 l 703 879 l 258 125 l 718 125 l 718 0 l 117 0 z "},"ž":{"ha":833,"x_min":121,"x_max":713,"o":"m 354 896 l 160 1090 l 306 1090 l 417 983 l 525 1090 l 674 1090 l 481 896 l 354 896 m 121 0 l 121 133 l 542 640 l 132 640 l 132 764 l 697 764 l 697 631 l 269 124 l 713 124 l 713 0 l 121 0 z "},"ſ":{"ha":833,"x_min":224,"x_max":714,"o":"m 224 0 l 224 783 q 290 951 224 888 q 467 1014 357 1014 l 714 1014 l 714 893 l 469 893 q 391 863 421 893 q 361 782 361 832 l 361 0 l 224 0 z "},"Ə":{"ha":833,"x_min":119,"x_max":715,"o":"m 417 -14 q 200 67 281 -14 q 119 281 119 147 l 119 558 l 578 558 l 578 735 q 537 863 578 818 q 417 907 496 907 q 298 863 339 907 q 257 735 257 818 l 119 735 q 199 949 119 869 q 417 1028 279 1028 q 636 950 557 1028 q 715 735 715 872 l 715 281 q 635 66 715 146 q 417 -14 554 -14 m 417 99 q 578 281 578 99 l 578 453 l 257 453 l 257 281 q 417 99 257 99 z "},"Ɛ":{"ha":833,"x_min":92,"x_max":763,"o":"m 431 -14 q 185 69 278 -14 q 92 288 92 151 q 142 453 92 388 q 281 538 193 519 q 158 613 203 556 q 114 757 114 671 q 200 953 114 879 q 428 1028 286 1028 q 663 949 574 1028 q 751 740 751 869 l 614 740 q 564 861 614 815 q 432 907 514 907 q 302 863 351 907 q 253 746 253 818 q 301 631 253 674 q 432 588 350 588 l 560 588 l 560 468 l 432 468 q 287 419 342 468 q 232 288 232 369 q 287 158 232 207 q 432 108 342 108 q 570 153 517 108 q 625 269 624 197 l 763 269 q 669 64 760 142 q 431 -14 578 -14 z "},"ƒ":{"ha":833,"x_min":0,"x_max":749,"o":"m 0 -250 l 0 -124 l 150 -124 q 262 -83 221 -124 q 303 26 303 -43 l 303 429 l 82 429 l 82 553 l 303 553 l 303 814 q 360 960 303 907 q 521 1014 418 1014 l 747 1014 l 747 893 l 525 893 q 440 813 440 893 l 440 553 l 749 553 l 749 429 l 440 429 l 440 24 q 360 -175 440 -100 q 149 -250 281 -250 l 0 -250 z "},"ƛ":{"ha":833,"x_min":64,"x_max":769,"o":"m 64 0 l 349 753 l 347 758 l 125 647 l 125 764 l 308 856 l 246 1014 l 392 1014 l 429 915 l 653 1028 l 653 911 l 465 818 l 769 0 l 624 0 l 450 483 q 433 540 440 511 q 419 594 425 568 q 410 628 413 619 q 382 483 410 565 l 213 0 l 64 0 z "},"Ơ":{"ha":833,"x_min":117,"x_max":747,"o":"m 636 65 q 596 25 636 65 q 417 -14 556 -14 q 197 65 278 -14 q 117 281 117 143 l 117 735 q 197 949 117 871 q 417 1028 278 1028 q 604 975 531 1028 q 635 1021 635 986 l 635 1125 l 747 1125 l 747 1015 q 679 894 747 929 q 717 735 717 828 l 717 281 q 636 65 717 143 m 297 153 q 318 131 297 153 q 417 108 339 108 q 537 153 494 108 q 579 281 579 197 l 579 735 q 537 861 579 817 q 417 906 494 906 q 297 861 339 906 q 254 735 254 817 l 254 281 q 297 153 254 197 z "},"ơ":{"ha":833,"x_min":113,"x_max":758,"o":"m 639 67 q 598 28 639 67 q 417 -11 557 -11 q 194 67 276 -11 q 113 282 113 146 l 113 482 q 194 697 113 618 q 417 775 276 775 q 585 736 514 775 l 596 736 q 644 785 644 736 l 644 889 l 758 889 l 758 779 q 675 651 758 688 q 721 483 721 579 l 721 282 q 639 67 721 146 m 294 154 q 316 132 294 154 q 417 110 338 110 q 540 154 496 110 q 583 282 583 199 l 583 482 q 540 610 583 565 q 417 654 496 654 q 294 610 338 654 q 250 482 250 565 l 250 282 q 294 154 250 199 z "},"Ư":{"ha":833,"x_min":119,"x_max":838,"o":"m 417 -14 q 197 65 275 -14 q 119 281 119 143 l 119 1014 l 257 1014 l 257 281 q 297 153 257 199 q 417 108 338 108 q 536 153 494 108 q 578 281 578 199 l 578 1014 l 676 1014 q 712 1027 699 1014 q 725 1063 725 1040 l 725 1167 l 838 1167 l 838 1057 q 805 963 838 1000 q 715 918 772 926 l 715 281 q 638 64 715 142 q 417 -14 560 -14 z "},"ư":{"ha":833,"x_min":119,"x_max":840,"o":"m 119 279 l 119 764 l 257 764 l 257 279 q 298 152 257 197 q 411 107 339 107 q 526 152 485 107 q 568 279 568 197 l 568 764 l 679 764 q 728 813 728 764 l 728 917 l 840 917 l 840 807 q 807 704 840 742 q 706 667 774 667 l 706 279 q 625 65 706 144 q 411 -14 544 -14 q 199 65 278 -14 q 119 279 119 144 z "},"Ǎ":{"ha":833,"x_min":64,"x_max":769,"o":"m 354 1125 l 160 1319 l 306 1319 l 417 1213 l 525 1319 l 674 1319 l 481 1125 l 354 1125 m 64 0 l 326 1014 l 508 1014 l 769 0 l 629 0 l 565 264 l 268 264 l 204 0 l 64 0 m 296 378 l 538 378 l 465 681 q 417 901 426 836 q 369 682 407 840 l 296 378 z "},"ǎ":{"ha":833,"x_min":88,"x_max":714,"o":"m 361 896 l 167 1090 l 313 1090 l 424 983 l 532 1090 l 681 1090 l 488 896 l 361 896 m 346 -14 q 156 47 225 -14 q 88 215 88 108 q 159 385 88 324 q 354 447 231 447 l 576 447 l 576 519 q 534 623 576 586 q 419 660 492 660 q 310 630 353 660 q 260 557 267 600 l 125 557 q 218 717 136 656 q 424 778 300 778 q 635 710 557 778 q 714 524 714 642 l 714 0 l 579 0 l 579 142 l 578 142 q 506 28 568 69 q 346 -14 444 -14 m 383 93 q 522 135 468 93 q 576 244 576 178 l 576 349 l 357 349 q 260 315 296 349 q 225 225 225 282 q 267 128 225 163 q 383 93 308 93 z "},"ǐ":{"ha":833,"x_min":115,"x_max":772,"o":"m 375 896 l 182 1090 l 328 1090 l 439 983 l 547 1090 l 694 1090 l 503 896 l 375 896 m 115 0 l 115 125 l 383 125 l 383 639 l 143 639 l 143 764 l 521 764 l 521 125 l 772 125 l 772 0 l 115 0 z "},"ǒ":{"ha":833,"x_min":113,"x_max":721,"o":"m 354 896 l 160 1090 l 306 1090 l 417 983 l 525 1090 l 674 1090 l 481 896 l 354 896 m 639 67 q 598 28 639 67 q 417 -11 557 -11 q 194 67 276 -11 q 113 282 113 146 l 113 482 q 194 697 113 618 q 417 775 276 775 q 639 697 557 775 q 721 483 721 618 l 721 282 q 639 67 721 146 m 294 154 q 316 132 294 154 q 417 110 338 110 q 540 154 496 110 q 583 282 583 199 l 583 482 q 540 610 583 565 q 417 654 496 654 q 294 610 338 654 q 250 482 250 565 l 250 282 q 294 154 250 199 z "},"ǔ":{"ha":833,"x_min":119,"x_max":714,"o":"m 354 896 l 160 1090 l 306 1090 l 417 983 l 525 1090 l 674 1090 l 481 896 l 354 896 m 633 65 q 592 26 633 65 q 415 -14 551 -14 q 199 66 279 -14 q 119 281 119 146 l 119 764 l 257 764 l 257 281 q 299 152 257 197 q 415 107 340 107 q 533 152 490 107 q 576 281 576 197 l 576 764 l 714 764 l 714 281 q 633 65 714 144 z "},"ǖ":{"ha":833,"x_min":119,"x_max":714,"o":"m 190 1246 l 190 1357 l 643 1357 l 643 1246 l 190 1246 m 574 899 q 506 923 531 899 q 481 989 481 947 q 506 1057 481 1032 q 574 1082 531 1082 q 640 1057 615 1082 q 665 989 665 1032 q 640 923 665 947 q 574 899 615 899 m 260 899 q 193 923 218 899 q 168 989 168 947 q 193 1057 168 1032 q 260 1082 218 1082 q 328 1057 303 1082 q 353 989 353 1032 q 328 923 353 947 q 260 899 303 899 m 633 65 q 592 26 633 65 q 415 -14 551 -14 q 199 66 279 -14 q 119 281 119 146 l 119 764 l 257 764 l 257 281 q 299 152 257 197 q 415 107 340 107 q 533 152 490 107 q 576 281 576 197 l 576 764 l 714 764 l 714 281 q 633 65 714 144 z "},"ǘ":{"ha":833,"x_min":119,"x_max":714,"o":"m 331 1214 l 476 1408 l 625 1408 l 469 1214 l 331 1214 m 574 899 q 506 923 531 899 q 481 989 481 947 q 506 1057 481 1032 q 574 1082 531 1082 q 640 1057 615 1082 q 665 989 665 1032 q 640 923 665 947 q 574 899 615 899 m 260 899 q 193 923 218 899 q 168 989 168 947 q 193 1057 168 1032 q 260 1082 218 1082 q 328 1057 303 1082 q 353 989 353 1032 q 328 923 353 947 q 260 899 303 899 m 633 65 q 592 26 633 65 q 415 -14 551 -14 q 199 66 279 -14 q 119 281 119 146 l 119 764 l 257 764 l 257 281 q 299 152 257 197 q 415 107 340 107 q 533 152 490 107 q 576 281 576 197 l 576 764 l 714 764 l 714 281 q 633 65 714 144 z "},"ǚ":{"ha":833,"x_min":119,"x_max":714,"o":"m 354 1214 l 160 1408 l 306 1408 l 417 1303 l 525 1408 l 674 1408 l 481 1214 l 354 1214 m 574 899 q 506 923 531 899 q 481 989 481 947 q 506 1057 481 1032 q 574 1082 531 1082 q 640 1057 615 1082 q 665 989 665 1032 q 640 923 665 947 q 574 899 615 899 m 260 899 q 193 923 218 899 q 168 989 168 947 q 193 1057 168 1032 q 260 1082 218 1082 q 328 1057 303 1082 q 353 989 353 1032 q 328 923 353 947 q 260 899 303 899 m 633 65 q 592 26 633 65 q 415 -14 551 -14 q 199 66 279 -14 q 119 281 119 146 l 119 764 l 257 764 l 257 281 q 299 152 257 197 q 415 107 340 107 q 533 152 490 107 q 576 281 576 197 l 576 764 l 714 764 l 714 281 q 633 65 714 144 z "},"ǜ":{"ha":833,"x_min":119,"x_max":714,"o":"m 365 1214 l 204 1408 l 357 1408 l 508 1214 l 365 1214 m 574 899 q 506 923 531 899 q 481 989 481 947 q 506 1057 481 1032 q 574 1082 531 1082 q 640 1057 615 1082 q 665 989 665 1032 q 640 923 665 947 q 574 899 615 899 m 260 899 q 193 923 218 899 q 168 989 168 947 q 193 1057 168 1032 q 260 1082 218 1082 q 328 1057 303 1082 q 353 989 353 1032 q 328 923 353 947 q 260 899 303 899 m 633 65 q 592 26 633 65 q 415 -14 551 -14 q 199 66 279 -14 q 119 281 119 146 l 119 764 l 257 764 l 257 281 q 299 152 257 197 q 415 107 340 107 q 533 152 490 107 q 576 281 576 197 l 576 764 l 714 764 l 714 281 q 633 65 714 144 z "},"Ǧ":{"ha":833,"x_min":117,"x_max":726,"o":"m 354 1125 l 160 1319 l 306 1319 l 417 1213 l 525 1319 l 674 1319 l 481 1125 l 354 1125 m 422 -14 q 199 65 281 -14 q 117 281 117 143 l 117 735 q 199 949 117 871 q 422 1028 281 1028 q 644 949 561 1028 q 726 735 726 869 l 589 735 q 545 861 589 817 q 422 906 501 906 q 299 861 343 906 q 254 735 254 817 l 254 281 q 299 153 254 197 q 422 108 343 108 q 545 153 501 108 q 589 281 589 197 l 589 399 l 392 399 l 392 522 l 726 522 l 726 281 q 644 66 726 146 q 422 -14 561 -14 z "},"ǧ":{"ha":833,"x_min":117,"x_max":710,"o":"m 350 896 l 156 1090 l 301 1090 l 413 983 l 521 1090 l 669 1090 l 476 896 l 350 896 m 221 -250 l 221 -128 l 460 -128 q 574 -19 574 -128 l 574 68 l 576 207 l 574 207 q 511 90 565 133 q 371 47 457 47 q 185 125 253 47 q 117 335 117 203 l 117 492 q 185 701 117 624 q 371 778 253 778 q 511 735 457 778 q 574 618 565 693 l 575 618 l 574 764 l 710 764 l 710 -21 q 643 -189 710 -128 q 460 -250 576 -250 l 221 -250 m 414 167 q 531 213 488 167 q 574 342 574 260 l 574 485 q 531 613 574 567 q 414 658 489 658 q 296 613 338 658 q 254 485 254 568 l 254 342 q 296 212 254 257 q 414 167 338 167 z "},"Ǫ":{"ha":833,"x_min":117,"x_max":717,"o":"m 521 -286 q 397 -249 443 -286 q 350 -154 350 -212 q 442 -7 350 -85 q 417 -14 431 -14 q 197 65 278 -14 q 117 281 117 143 l 117 735 q 197 949 117 871 q 417 1028 278 1028 q 636 949 556 1028 q 717 735 717 871 l 717 281 q 599 33 717 114 l 554 -3 q 476 -126 476 -65 q 497 -175 476 -156 q 550 -194 517 -194 l 636 -194 l 636 -286 l 521 -286 m 297 153 q 318 131 297 153 q 417 108 339 108 q 537 153 494 108 q 579 281 579 197 l 579 735 q 537 861 579 817 q 417 906 494 906 q 297 861 339 906 q 254 735 254 817 l 254 281 q 297 153 254 197 z "},"ǫ":{"ha":833,"x_min":117,"x_max":717,"o":"m 514 -286 q 390 -249 436 -286 q 343 -154 343 -212 q 438 -7 343 -83 q 417 -14 431 -14 q 197 65 278 -14 q 117 281 117 143 l 117 485 q 197 699 117 621 q 417 778 278 778 q 636 699 556 778 q 717 485 717 621 l 717 281 q 593 32 717 107 l 553 -3 q 469 -126 469 -72 q 490 -175 469 -156 q 543 -194 510 -194 l 629 -194 l 629 -286 l 514 -286 m 296 153 q 317 131 296 153 q 417 108 338 108 q 538 153 496 108 q 579 281 579 197 l 579 485 q 537 613 579 568 q 417 657 494 657 q 297 613 339 657 q 254 485 254 568 l 254 281 q 296 153 254 197 z "},"Ǵ":{"ha":833,"x_min":117,"x_max":726,"o":"m 331 1125 l 476 1319 l 625 1319 l 469 1125 l 331 1125 m 422 -14 q 199 65 281 -14 q 117 281 117 143 l 117 735 q 199 949 117 871 q 422 1028 281 1028 q 644 949 561 1028 q 726 735 726 869 l 589 735 q 545 861 589 817 q 422 906 501 906 q 299 861 343 906 q 254 735 254 817 l 254 281 q 299 153 254 197 q 422 108 343 108 q 545 153 501 108 q 589 281 589 197 l 589 399 l 392 399 l 392 522 l 726 522 l 726 281 q 644 66 726 146 q 422 -14 561 -14 z "},"ǵ":{"ha":833,"x_min":117,"x_max":710,"o":"m 326 896 l 472 1090 l 621 1090 l 465 896 l 326 896 m 221 -250 l 221 -128 l 460 -128 q 574 -19 574 -128 l 574 68 l 576 207 l 574 207 q 511 90 565 133 q 371 47 457 47 q 185 125 253 47 q 117 335 117 203 l 117 492 q 185 701 117 624 q 371 778 253 778 q 511 735 457 778 q 574 618 565 693 l 575 618 l 574 764 l 710 764 l 710 -21 q 643 -189 710 -128 q 460 -250 576 -250 l 221 -250 m 414 167 q 531 213 488 167 q 574 342 574 260 l 574 485 q 531 613 574 567 q 414 658 489 658 q 296 613 338 658 q 254 485 254 568 l 254 342 q 296 212 254 257 q 414 167 338 167 z "},"Ǽ":{"ha":833,"x_min":36,"x_max":794,"o":"m 331 1125 l 476 1319 l 625 1319 l 469 1125 l 331 1125 m 36 0 l 235 1014 l 794 1014 l 794 892 l 544 892 l 544 586 l 760 586 l 760 463 l 544 463 l 544 124 l 794 124 l 794 0 l 417 0 l 417 274 l 225 274 l 172 0 l 36 0 m 246 385 l 417 385 l 417 892 l 340 892 l 246 385 z "},"ǽ":{"ha":833,"x_min":49,"x_max":785,"o":"m 331 896 l 476 1090 l 625 1090 l 469 896 l 331 896 m 236 -14 q 99 40 150 -14 q 49 183 49 93 l 49 264 q 108 401 49 350 q 264 453 167 453 l 360 453 l 360 557 q 272 667 360 667 q 210 643 233 667 q 188 579 188 619 l 63 579 q 114 723 63 668 q 250 778 165 778 q 367 744 324 778 q 417 668 410 710 l 424 668 q 472 744 431 710 q 583 778 514 778 q 731 719 676 778 q 785 558 785 660 l 785 353 l 479 353 l 479 207 q 503 127 479 157 q 568 97 528 97 q 636 120 611 97 q 661 183 661 143 l 785 183 q 729 40 785 94 q 583 -14 674 -14 q 471 20 513 -14 q 424 96 429 54 l 417 96 q 363 20 410 54 q 236 -14 317 -14 m 479 453 l 661 453 l 661 558 q 636 638 661 608 q 568 667 611 667 q 503 638 526 667 q 479 558 479 608 l 479 453 m 265 97 q 334 127 308 97 q 360 207 360 157 l 360 353 l 267 353 q 202 329 225 353 q 179 264 179 306 l 179 183 q 202 120 179 143 q 265 97 225 97 z "},"Ǿ":{"ha":833,"x_min":44,"x_max":789,"o":"m 331 1125 l 476 1319 l 625 1319 l 469 1125 l 331 1125 m 44 -56 l 150 129 q 117 281 117 194 l 117 735 q 197 949 117 871 q 417 1028 278 1028 q 621 964 542 1028 l 665 1042 l 789 1042 l 692 869 q 717 735 717 811 l 717 281 q 636 65 717 143 q 417 -14 556 -14 q 224 42 300 -14 l 168 -56 l 44 -56 m 253 735 l 253 313 l 553 843 q 417 906 510 906 q 296 861 339 906 q 253 735 253 817 m 417 108 q 538 153 494 108 q 581 281 581 197 l 581 674 l 290 160 q 417 108 333 108 z "},"ǿ":{"ha":833,"x_min":47,"x_max":788,"o":"m 331 896 l 476 1090 l 625 1090 l 469 896 l 331 896 m 47 -42 l 157 115 q 117 281 117 183 l 117 485 q 197 699 117 621 q 417 778 278 778 q 594 732 522 778 l 656 819 l 788 819 l 671 657 q 717 485 717 588 l 717 281 q 636 65 717 143 q 417 -14 556 -14 q 232 36 308 -14 l 176 -42 l 47 -42 m 246 281 q 249 244 246 267 l 521 629 q 417 657 478 657 q 291 611 336 657 q 246 485 246 565 l 246 281 m 417 108 q 542 153 497 108 q 588 281 588 199 l 588 483 q 583 532 588 508 l 306 140 q 417 108 349 108 z "},"Ș":{"ha":833,"x_min":94,"x_max":739,"o":"m 421 -14 q 183 63 272 -14 q 94 268 94 139 l 232 268 q 284 152 232 196 q 422 108 336 108 q 554 152 506 108 q 603 268 603 196 q 572 369 603 326 q 489 428 542 413 l 346 471 q 180 578 239 503 q 121 754 121 653 q 203 953 121 879 q 424 1028 285 1028 q 643 953 561 1028 q 725 756 725 879 l 588 756 q 543 866 588 825 q 424 907 499 907 q 301 866 347 907 q 256 757 256 825 q 286 664 256 703 q 374 608 317 625 l 521 563 q 681 453 622 531 q 739 269 739 375 q 652 63 739 140 q 421 -14 565 -14 m 261 -333 l 393 -132 l 549 -132 l 400 -333 l 261 -333 z "},"ș":{"ha":833,"x_min":117,"x_max":729,"o":"m 392 -11 q 193 45 269 -11 q 117 196 117 101 l 257 196 q 295 131 257 154 q 394 107 333 107 l 453 107 q 594 211 594 107 q 467 322 594 300 l 363 338 q 191 411 247 357 q 135 558 135 465 q 204 719 135 664 q 403 775 274 775 l 456 775 q 647 722 575 775 q 719 581 719 669 l 579 581 q 545 636 579 615 q 453 657 511 657 l 400 657 q 269 558 269 657 q 383 460 269 479 l 488 443 q 671 370 613 424 q 729 217 729 317 q 658 49 729 108 q 450 -11 588 -11 l 392 -11 m 261 -333 l 393 -132 l 549 -132 l 400 -333 l 261 -333 z "},"Ț":{"ha":833,"x_min":74,"x_max":760,"o":"m 349 0 l 349 889 l 74 889 l 74 1014 l 760 1014 l 760 889 l 486 889 l 486 0 l 349 0 m 261 -333 l 393 -132 l 549 -132 l 400 -333 l 261 -333 z "},"ț":{"ha":833,"x_min":72,"x_max":725,"o":"m 500 0 q 344 57 403 0 q 286 208 286 114 l 286 639 l 72 639 l 72 764 l 286 764 l 286 979 l 424 979 l 424 764 l 725 764 l 725 639 l 424 639 l 424 210 q 445 148 424 171 q 503 125 467 125 l 711 125 l 711 0 l 500 0 m 344 -333 l 476 -132 l 632 -132 l 483 -333 l 344 -333 z "},"Ȳ":{"ha":833,"x_min":44,"x_max":789,"o":"m 190 1163 l 190 1274 l 643 1274 l 643 1163 l 190 1163 m 349 0 l 349 376 l 44 1014 l 188 1014 l 378 614 q 418 507 410 544 q 461 614 433 557 l 647 1014 l 789 1014 l 486 376 l 486 0 l 349 0 z "},"ȳ":{"ha":833,"x_min":63,"x_max":771,"o":"m 190 928 l 190 1039 l 643 1039 l 643 928 l 190 928 m 244 -250 l 356 46 l 63 764 l 213 764 l 390 313 q 425 192 410 258 q 461 313 442 263 l 626 764 l 771 764 l 388 -250 l 244 -250 z "},"ȷ":{"ha":833,"x_min":96,"x_max":611,"o":"m 96 -250 l 96 -124 l 301 -124 q 428 -79 383 -124 q 474 46 474 -35 l 474 639 l 124 639 l 124 764 l 611 764 l 611 44 q 528 -170 611 -90 q 304 -250 444 -250 l 96 -250 z "},"ə":{"ha":833,"x_min":119,"x_max":715,"o":"m 635 67 q 594 26 635 67 q 417 -14 554 -14 q 199 66 279 -14 q 119 281 119 146 l 119 415 l 581 415 l 581 485 q 417 664 581 664 q 260 568 279 664 l 122 568 q 217 721 138 664 q 417 778 296 778 q 635 698 554 778 q 715 485 715 618 l 715 281 q 635 67 715 147 m 253 281 q 417 99 253 99 q 581 281 581 99 l 581 317 l 253 317 l 253 281 z "},"ʹ":{"ha":833,"x_min":224,"x_max":526,"o":"m 224 569 l 335 1001 l 526 1001 l 346 569 l 224 569 z "},"ʺ":{"ha":833,"x_min":74,"x_max":757,"o":"m 456 568 l 567 1000 l 757 1000 l 576 568 l 456 568 m 74 568 l 185 1000 l 375 1000 l 194 568 l 74 568 z "},"ʼ":{"ha":833,"x_min":224,"x_max":526,"o":"m 224 646 l 335 1078 l 526 1078 l 346 646 l 224 646 z "},"ˆ":{"ha":833,"x_min":160,"x_max":674,"o":"m 160 896 l 353 1090 l 479 1090 l 674 896 l 528 896 l 417 1003 l 308 896 l 160 896 z "},"ˇ":{"ha":833,"x_min":160,"x_max":674,"o":"m 354 896 l 160 1090 l 306 1090 l 417 983 l 525 1090 l 674 1090 l 481 896 l 354 896 z "},"ˉ":{"ha":833,"x_min":190,"x_max":643,"o":"m 190 928 l 190 1039 l 643 1039 l 643 928 l 190 928 z "},"˘":{"ha":833,"x_min":189,"x_max":644,"o":"m 581 944 q 550 916 581 944 q 417 888 518 888 q 252 944 315 888 q 189 1090 189 1000 l 297 1090 q 330 1007 297 1039 q 415 975 363 975 q 503 1007 469 975 q 536 1090 536 1039 l 644 1090 q 581 944 644 1000 z "},"˙":{"ha":833,"x_min":314,"x_max":519,"o":"m 492 923 q 478 911 492 923 q 417 899 464 899 q 342 923 369 899 q 314 989 314 947 q 341 1057 314 1032 q 417 1082 368 1082 q 492 1057 465 1082 q 519 989 519 1032 q 492 923 519 947 z "},"˚":{"ha":833,"x_min":246,"x_max":588,"o":"m 541 888 q 518 865 541 888 q 417 843 494 843 q 292 888 339 843 q 246 1004 246 932 q 293 1121 246 1076 q 417 1165 340 1165 q 540 1121 493 1165 q 588 1004 588 1076 q 541 888 588 932 m 356 942 q 368 931 356 942 q 417 919 379 919 q 477 942 454 919 q 500 1004 500 965 q 477 1065 500 1042 q 417 1089 454 1089 q 356 1065 379 1089 q 333 1004 333 1042 q 356 942 333 965 z "},"˛":{"ha":833,"x_min":253,"x_max":539,"o":"m 424 -286 q 299 -249 346 -286 q 253 -154 253 -212 q 376 14 253 -67 l 483 14 l 463 -3 q 379 -126 379 -72 q 399 -176 379 -157 q 454 -194 419 -194 l 539 -194 l 539 -286 l 424 -286 z "},"˜":{"ha":833,"x_min":190,"x_max":643,"o":"m 514 900 q 432 924 465 900 q 374 971 399 947 q 326 994 350 994 q 285 947 285 994 l 285 907 l 190 907 l 190 950 q 226 1049 190 1013 q 319 1086 261 1086 q 401 1063 368 1086 q 459 1015 435 1039 q 507 992 483 992 q 549 1039 549 992 l 549 1079 l 643 1079 l 643 1038 q 608 937 643 974 q 514 900 572 900 z "},"˝":{"ha":833,"x_min":196,"x_max":742,"o":"m 451 896 l 604 1090 l 742 1090 l 582 896 l 451 896 m 196 896 l 347 1090 l 486 1090 l 326 896 l 196 896 z "},"˳":{"ha":833,"x_min":-585,"x_max":-247,"o":"m -294 -310 q -317 -330 -294 -310 q -417 -349 -340 -349 q -539 -310 -493 -349 q -585 -210 -585 -272 q -539 -108 -585 -146 q -417 -69 -493 -69 q -294 -108 -340 -69 q -247 -210 -247 -146 q -294 -310 -247 -272 m -418 -278 q -356 -259 -379 -278 q -333 -210 -333 -240 q -418 -140 -333 -140 q -477 -160 -454 -140 q -500 -210 -500 -179 q -477 -259 -500 -240 q -418 -278 -454 -278 z "},"˷":{"ha":833,"x_min":190,"x_max":643,"o":"m 514 -297 q 432 -274 465 -297 q 374 -226 399 -250 q 326 -203 350 -203 q 285 -251 285 -203 l 285 -290 l 190 -290 l 190 -249 q 226 -148 190 -185 q 319 -111 261 -111 q 401 -135 368 -111 q 459 -182 435 -158 q 507 -206 483 -206 q 549 -160 549 -206 l 549 -118 l 643 -118 l 643 -161 q 608 -260 643 -224 q 514 -297 572 -297 z "},"̀":{"ha":0,"x_min":-615,"x_max":-311,"o":"m -454 896 l -615 1090 l -462 1090 l -311 896 l -454 896 z "},"́":{"ha":0,"x_min":-517,"x_max":-222,"o":"m -517 896 l -371 1090 l -222 1090 l -378 896 l -517 896 z "},"̂":{"ha":0,"x_min":-674,"x_max":-160,"o":"m -674 896 l -481 1090 l -354 1090 l -160 896 l -306 896 l -417 1003 l -525 896 l -674 896 z "},"̃":{"ha":0,"x_min":-643,"x_max":-190,"o":"m -319 900 q -401 924 -368 900 q -459 971 -435 947 q -507 994 -483 994 q -549 947 -549 994 l -549 907 l -643 907 l -643 950 q -608 1049 -643 1013 q -514 1086 -572 1086 q -432 1063 -465 1086 q -374 1015 -399 1039 q -326 992 -350 992 q -285 1039 -285 992 l -285 1079 l -190 1079 l -190 1038 q -226 937 -190 974 q -319 900 -261 900 z "},"̄":{"ha":0,"x_min":-643,"x_max":-190,"o":"m -643 928 l -643 1039 l -190 1039 l -190 928 l -643 928 z "},"̆":{"ha":0,"x_min":-644,"x_max":-189,"o":"m -252 944 q -284 916 -252 944 q -417 888 -315 888 q -581 944 -518 888 q -644 1090 -644 1000 l -536 1090 q -503 1007 -536 1039 q -418 975 -471 975 q -331 1007 -364 975 q -297 1090 -297 1039 l -189 1090 q -252 944 -189 1000 z "},"̇":{"ha":0,"x_min":-519,"x_max":-314,"o":"m -342 923 q -356 911 -342 923 q -417 899 -369 899 q -492 923 -464 899 q -519 989 -519 947 q -492 1057 -519 1032 q -417 1082 -465 1082 q -341 1057 -368 1082 q -314 989 -314 1032 q -342 923 -314 947 z "},"̈":{"ha":0,"x_min":-665,"x_max":-168,"o":"m -260 899 q -328 923 -303 899 q -353 989 -353 947 q -328 1057 -353 1032 q -260 1082 -303 1082 q -193 1057 -218 1082 q -168 989 -168 1032 q -193 923 -168 947 q -260 899 -218 899 m -574 899 q -640 923 -615 899 q -665 989 -665 947 q -640 1057 -665 1032 q -574 1082 -615 1082 q -506 1057 -531 1082 q -481 989 -481 1032 q -506 923 -481 947 q -574 899 -531 899 z "},"̉":{"ha":0,"x_min":-543,"x_max":-275,"o":"m -478 896 l -408 982 q -389 1026 -389 1008 q -432 1053 -389 1053 l -543 1053 l -543 1147 l -397 1147 q -309 1119 -343 1147 q -275 1043 -275 1090 q -300 967 -275 999 l -354 896 l -478 896 z "},"̊":{"ha":0,"x_min":-587,"x_max":-246,"o":"m -292 888 q -316 865 -292 888 q -417 843 -339 843 q -541 888 -494 843 q -587 1004 -587 932 q -540 1121 -587 1076 q -417 1165 -493 1165 q -293 1121 -340 1165 q -246 1004 -246 1076 q -292 888 -246 932 m -477 942 q -466 931 -477 942 q -417 919 -454 919 q -356 942 -379 919 q -333 1004 -333 965 q -356 1065 -333 1042 q -417 1089 -379 1089 q -477 1065 -454 1089 q -500 1004 -500 1042 q -477 942 -500 965 z "},"̋":{"ha":0,"x_min":-637,"x_max":-92,"o":"m -382 896 l -229 1090 l -92 1090 l -251 896 l -382 896 m -637 896 l -486 1090 l -347 1090 l -507 896 l -637 896 z "},"̌":{"ha":0,"x_min":-674,"x_max":-160,"o":"m -479 896 l -674 1090 l -528 1090 l -417 983 l -308 1090 l -160 1090 l -353 896 l -479 896 z "},"̏":{"ha":0,"x_min":-742,"x_max":-196,"o":"m -451 896 l -582 896 l -742 1090 l -604 1090 l -451 896 m -196 896 l -326 896 l -486 1090 l -347 1090 l -196 896 z "},"̒":{"ha":0,"x_min":-546,"x_max":-251,"o":"m -251 1222 l -362 896 l -546 896 l -365 1222 l -251 1222 z "},"̛":{"ha":0,"x_min":-326,"x_max":-122,"o":"m -326 667 l -326 764 l -285 764 q -236 813 -236 764 l -236 917 l -122 917 l -122 807 q -165 705 -122 743 q -276 667 -207 667 l -326 667 z "},"̣":{"ha":0,"x_min":-519,"x_max":-314,"o":"m -342 -276 q -356 -288 -342 -276 q -417 -300 -369 -300 q -492 -276 -464 -300 q -519 -210 -519 -251 q -492 -142 -519 -167 q -417 -117 -464 -117 q -342 -142 -369 -117 q -314 -210 -314 -167 q -342 -276 -314 -251 z "},"̥":{"ha":0,"x_min":-585,"x_max":-247,"o":"m -294 -310 q -317 -330 -294 -310 q -417 -349 -340 -349 q -539 -310 -493 -349 q -585 -210 -585 -272 q -539 -108 -585 -146 q -417 -69 -493 -69 q -294 -108 -340 -69 q -247 -210 -247 -146 q -294 -310 -247 -272 m -418 -278 q -356 -259 -379 -278 q -333 -210 -333 -240 q -418 -140 -333 -140 q -477 -160 -454 -140 q -500 -210 -500 -179 q -477 -259 -500 -240 q -418 -278 -454 -278 z "},"̦":{"ha":0,"x_min":-572,"x_max":-285,"o":"m -572 -333 l -440 -132 l -285 -132 l -433 -333 l -572 -333 z "},"̧":{"ha":0,"x_min":-551,"x_max":-257,"o":"m -551 -286 l -551 -207 l -453 -207 q -403 -192 -422 -207 q -383 -157 -383 -176 q -423 -113 -383 -131 q -531 -96 -462 -96 l -482 35 l -400 35 l -429 -50 q -310 -87 -364 -56 q -257 -169 -257 -119 q -305 -252 -257 -218 q -428 -286 -353 -286 l -551 -286 z "},"̨":{"ha":0,"x_min":-581,"x_max":-294,"o":"m -410 -286 q -534 -249 -487 -286 q -581 -154 -581 -212 q -457 14 -581 -67 l -350 14 l -371 -3 q -454 -126 -454 -72 q -434 -176 -454 -157 q -379 -194 -414 -194 l -294 -194 l -294 -286 l -410 -286 z "},"̶":{"ha":0,"x_min":-875,"x_max":42,"o":"m -875 397 l -875 503 l 42 503 l 42 397 l -875 397 z "},"̷":{"ha":0,"x_min":-786,"x_max":-46,"o":"m -786 -42 l -178 819 l -46 819 l -657 -42 l -786 -42 z "},"̸":{"ha":0,"x_min":-682,"x_max":-151,"o":"m -682 -153 l -244 917 l -151 917 l -589 -153 l -682 -153 z "},"ʹ":{"ha":833,"x_min":224,"x_max":526,"o":"m 224 569 l 335 1001 l 526 1001 l 346 569 l 224 569 z "},"͵":{"ha":833,"x_min":285,"x_max":519,"o":"m 285 -222 l 360 210 l 519 210 l 419 -222 l 285 -222 z "},";":{"ha":833,"x_min":278,"x_max":538,"o":"m 403 564 q 326 594 356 564 q 296 671 296 624 q 326 747 296 717 q 403 778 357 778 l 431 778 q 507 747 476 778 q 538 671 538 717 q 508 594 538 624 q 431 564 478 564 l 403 564 m 278 -222 l 353 210 l 513 210 l 413 -222 l 278 -222 z "},"΄":{"ha":833,"x_min":289,"x_max":583,"o":"m 289 896 l 435 1090 l 583 1090 l 428 896 l 289 896 z "},"΅":{"ha":833,"x_min":168,"x_max":665,"o":"m 354 1074 l 463 1256 l 583 1256 l 463 1074 l 354 1074 m 574 899 q 506 923 531 899 q 481 989 481 947 q 506 1057 481 1032 q 574 1082 531 1082 q 640 1057 615 1082 q 665 989 665 1032 q 640 923 665 947 q 574 899 615 899 m 260 899 q 193 923 218 899 q 168 989 168 947 q 193 1057 168 1032 q 260 1082 218 1082 q 328 1057 303 1082 q 353 989 353 1032 q 328 923 353 947 q 260 899 303 899 z "},"Ά":{"ha":833,"x_min":4,"x_max":769,"o":"m 64 0 l 326 1014 l 508 1014 l 769 0 l 629 0 l 565 264 l 268 264 l 204 0 l 64 0 m 4 792 l 83 1014 l 221 1014 l 132 792 l 4 792 m 296 378 l 538 378 l 465 681 q 417 901 426 836 q 369 682 407 840 l 296 378 z "},"·":{"ha":833,"x_min":297,"x_max":536,"o":"m 504 399 q 488 384 504 399 q 417 368 472 368 q 329 399 361 368 q 297 485 297 431 q 329 573 297 540 q 417 606 361 606 q 504 573 472 606 q 536 485 536 540 q 504 399 536 431 z "},"Έ":{"ha":833,"x_min":-165,"x_max":725,"o":"m 135 0 l 135 1014 l 725 1014 l 725 890 l 271 890 l 271 589 l 676 589 l 676 469 l 271 469 l 271 124 l 725 124 l 725 0 l 135 0 m -165 792 l -87 1014 l 51 1014 l -39 792 l -165 792 z "},"Ή":{"ha":833,"x_min":-165,"x_max":710,"o":"m -165 792 l -87 1014 l 51 1014 l -39 792 l -165 792 m 124 0 l 124 1014 l 261 1014 l 261 588 l 572 588 l 572 1014 l 710 1014 l 710 0 l 572 0 l 572 463 l 261 463 l 261 0 l 124 0 z "},"Ί":{"ha":833,"x_min":-165,"x_max":693,"o":"m -165 792 l -87 1014 l 51 1014 l -39 792 l -165 792 m 140 0 l 140 125 l 347 125 l 347 889 l 140 889 l 140 1014 l 693 1014 l 693 889 l 486 889 l 486 125 l 693 125 l 693 0 l 140 0 z "},"Ό":{"ha":833,"x_min":-118,"x_max":717,"o":"m 636 65 q 596 25 636 65 q 417 -14 556 -14 q 197 65 278 -14 q 117 281 117 143 l 117 735 q 197 949 117 871 q 417 1028 278 1028 q 636 949 556 1028 q 717 735 717 871 l 717 281 q 636 65 717 143 m -118 792 l -40 1014 l 99 1014 l 8 792 l -118 792 m 297 153 q 318 131 297 153 q 417 108 339 108 q 537 153 494 108 q 579 281 579 197 l 579 735 q 537 861 579 817 q 417 906 494 906 q 297 861 339 906 q 254 735 254 817 l 254 281 q 297 153 254 197 z "},"Ύ":{"ha":833,"x_min":-186,"x_max":789,"o":"m -186 792 l -108 1014 l 31 1014 l -58 792 l -186 792 m 349 0 l 349 376 l 44 1014 l 188 1014 l 378 614 q 418 507 410 544 q 461 614 433 557 l 647 1014 l 789 1014 l 486 376 l 486 0 l 349 0 z "},"Ώ":{"ha":833,"x_min":-118,"x_max":765,"o":"m 69 0 l 69 124 l 271 124 l 271 131 q 156 194 208 138 q 104 353 104 251 l 104 728 q 189 947 104 865 q 417 1028 274 1028 q 644 947 560 1028 q 729 728 729 865 l 729 353 q 678 196 729 253 q 563 132 626 139 l 563 124 l 765 124 l 765 0 l 472 0 l 472 178 q 558 225 525 178 q 592 346 592 272 l 592 728 q 544 858 592 808 q 417 907 496 907 q 290 858 338 907 q 242 728 242 808 l 242 346 q 275 225 242 272 q 361 178 308 178 l 361 0 l 69 0 m -118 792 l -40 1014 l 99 1014 l 8 792 l -118 792 z "},"ΐ":{"ha":833,"x_min":74,"x_max":767,"o":"m 354 1074 l 463 1256 l 583 1256 l 463 1074 l 354 1074 m 574 899 q 506 923 531 899 q 481 989 481 947 q 506 1057 481 1032 q 574 1082 531 1082 q 640 1057 615 1082 q 665 989 665 1032 q 640 923 665 947 q 574 899 615 899 m 260 899 q 193 923 218 899 q 168 989 168 947 q 193 1057 168 1032 q 260 1082 218 1082 q 328 1057 303 1082 q 353 989 353 1032 q 328 923 353 947 q 260 899 303 899 m 578 0 q 410 61 474 0 q 347 224 347 122 l 347 639 l 74 639 l 74 764 l 485 764 l 485 224 q 510 151 485 178 q 581 125 536 125 l 767 125 l 767 0 l 578 0 z "},"Α":{"ha":833,"x_min":64,"x_max":769,"o":"m 64 0 l 326 1014 l 508 1014 l 769 0 l 629 0 l 565 264 l 268 264 l 204 0 l 64 0 m 296 378 l 538 378 l 465 681 q 417 901 426 836 q 369 682 407 840 l 296 378 z "},"Β":{"ha":833,"x_min":124,"x_max":743,"o":"m 124 0 l 124 1014 l 417 1014 q 638 944 557 1014 q 719 751 719 874 q 678 613 719 669 q 564 536 638 556 q 695 447 647 514 q 743 283 743 381 q 660 76 743 153 q 436 0 578 0 l 124 0 m 258 586 l 415 586 q 538 627 493 586 q 582 739 582 668 q 538 852 582 811 q 417 893 493 893 l 258 893 l 258 586 m 258 121 l 424 121 q 557 166 508 121 q 606 289 606 211 q 556 419 606 369 q 424 469 507 469 l 258 469 l 258 121 z "},"Γ":{"ha":833,"x_min":178,"x_max":772,"o":"m 178 0 l 178 1014 l 772 1014 l 772 889 l 315 889 l 315 0 l 178 0 z "},"Δ":{"ha":833,"x_min":64,"x_max":769,"o":"m 64 0 l 326 1014 l 508 1014 l 769 0 l 64 0 m 369 682 l 233 122 l 600 122 l 464 681 q 417 903 444 761 q 369 682 396 792 z "},"Ε":{"ha":833,"x_min":135,"x_max":725,"o":"m 135 0 l 135 1014 l 725 1014 l 725 890 l 271 890 l 271 589 l 676 589 l 676 469 l 271 469 l 271 124 l 725 124 l 725 0 l 135 0 z "},"Ζ":{"ha":833,"x_min":117,"x_max":718,"o":"m 117 0 l 117 135 l 560 889 l 124 889 l 124 1014 l 703 1014 l 703 879 l 258 125 l 718 125 l 718 0 l 117 0 z "},"Η":{"ha":833,"x_min":124,"x_max":710,"o":"m 124 0 l 124 1014 l 261 1014 l 261 588 l 572 588 l 572 1014 l 710 1014 l 710 0 l 572 0 l 572 463 l 261 463 l 261 0 l 124 0 z "},"Θ":{"ha":833,"x_min":117,"x_max":717,"o":"m 636 65 q 596 25 636 65 q 417 -14 556 -14 q 197 65 278 -14 q 117 281 117 143 l 117 735 q 197 949 117 871 q 417 1028 278 1028 q 636 949 556 1028 q 717 735 717 871 l 717 281 q 636 65 717 143 m 297 153 q 318 131 297 153 q 417 108 339 108 q 537 153 494 108 q 579 281 579 197 l 579 735 q 537 861 579 817 q 417 906 494 906 q 297 861 339 906 q 254 735 254 817 l 254 281 q 297 153 254 197 m 297 447 l 297 574 l 536 574 l 536 447 l 297 447 z "},"Ι":{"ha":833,"x_min":140,"x_max":693,"o":"m 140 0 l 140 125 l 347 125 l 347 889 l 140 889 l 140 1014 l 693 1014 l 693 889 l 486 889 l 486 125 l 693 125 l 693 0 l 140 0 z "},"Κ":{"ha":833,"x_min":122,"x_max":781,"o":"m 122 0 l 122 1014 l 260 1014 l 260 585 l 401 585 l 618 1014 l 768 1014 l 522 528 l 781 0 l 625 0 l 399 464 l 260 464 l 260 0 l 122 0 z "},"Λ":{"ha":833,"x_min":64,"x_max":769,"o":"m 64 0 l 326 1014 l 508 1014 l 769 0 l 629 0 l 464 681 l 417 903 q 369 682 399 804 l 204 0 l 64 0 z "},"Μ":{"ha":833,"x_min":99,"x_max":735,"o":"m 99 0 l 99 1014 l 274 1014 l 379 688 q 419 535 394 639 q 458 689 433 610 l 560 1014 l 735 1014 l 735 0 l 603 0 l 603 465 q 639 942 603 674 l 481 443 l 353 443 l 193 939 q 231 465 231 676 l 231 0 l 99 0 z "},"Ν":{"ha":833,"x_min":119,"x_max":715,"o":"m 119 0 l 119 1014 l 297 1014 l 600 158 q 585 468 585 321 l 585 1014 l 715 1014 l 715 0 l 536 0 l 236 856 q 249 551 249 696 l 249 0 l 119 0 z "},"Ξ":{"ha":833,"x_min":108,"x_max":725,"o":"m 108 888 l 108 1014 l 725 1014 l 725 888 l 108 888 m 150 451 l 150 576 l 683 576 l 683 451 l 150 451 m 108 0 l 108 126 l 725 126 l 725 0 l 108 0 z "},"Ο":{"ha":833,"x_min":117,"x_max":717,"o":"m 636 65 q 596 25 636 65 q 417 -14 556 -14 q 197 65 278 -14 q 117 281 117 143 l 117 735 q 197 949 117 871 q 417 1028 278 1028 q 636 949 556 1028 q 717 735 717 871 l 717 281 q 636 65 717 143 m 297 153 q 318 131 297 153 q 417 108 339 108 q 537 153 494 108 q 579 281 579 197 l 579 735 q 537 861 579 817 q 417 906 494 906 q 297 861 339 906 q 254 735 254 817 l 254 281 q 297 153 254 197 z "},"Π":{"ha":833,"x_min":125,"x_max":708,"o":"m 125 0 l 125 1014 l 708 1014 l 708 0 l 571 0 l 571 889 l 263 889 l 263 0 l 125 0 z "},"Ρ":{"ha":833,"x_min":122,"x_max":768,"o":"m 122 0 l 122 1014 l 451 1014 q 682 932 596 1014 q 768 711 768 850 q 682 492 768 574 q 451 410 596 410 l 260 410 l 260 0 l 122 0 m 260 532 l 451 532 q 579 581 532 532 q 626 711 626 629 q 579 842 626 793 q 451 892 532 892 l 260 892 l 260 532 z "},"Σ":{"ha":833,"x_min":103,"x_max":764,"o":"m 103 0 l 103 122 l 415 515 l 103 893 l 103 1014 l 764 1014 l 764 892 l 265 892 l 581 521 l 264 122 l 764 122 l 764 0 l 103 0 z "},"Τ":{"ha":833,"x_min":74,"x_max":760,"o":"m 349 0 l 349 889 l 74 889 l 74 1014 l 760 1014 l 760 889 l 486 889 l 486 0 l 349 0 z "},"Υ":{"ha":833,"x_min":44,"x_max":789,"o":"m 349 0 l 349 376 l 44 1014 l 188 1014 l 378 614 q 418 507 410 544 q 461 614 433 557 l 647 1014 l 789 1014 l 486 376 l 486 0 l 349 0 z "},"Φ":{"ha":833,"x_min":69,"x_max":764,"o":"m 354 -35 l 354 63 q 148 142 226 63 q 69 354 69 222 l 69 675 q 147 891 69 810 q 354 972 225 972 l 354 1069 l 479 1069 l 479 972 q 686 891 608 972 q 764 675 764 810 l 764 354 q 685 142 764 222 q 479 63 607 63 l 479 -35 l 354 -35 m 356 176 l 356 858 q 239 809 282 858 q 196 675 196 760 l 196 354 q 239 224 196 272 q 356 176 282 176 m 478 176 q 595 224 553 176 q 638 354 638 272 l 638 675 q 595 810 638 761 q 478 858 553 858 l 478 176 z "},"Χ":{"ha":833,"x_min":51,"x_max":782,"o":"m 51 0 l 340 515 l 67 1014 l 224 1014 l 374 725 q 390 693 381 711 q 408 657 399 675 q 419 633 417 639 q 464 725 435 669 l 615 1014 l 767 1014 l 493 522 l 782 0 l 626 0 l 460 311 q 415 407 425 379 q 369 313 389 347 l 203 0 l 51 0 z "},"Ψ":{"ha":833,"x_min":69,"x_max":764,"o":"m 354 0 l 354 236 q 148 316 226 236 q 69 528 69 396 l 69 1014 l 196 1014 l 196 528 q 239 398 196 446 q 356 350 282 350 l 356 1014 l 478 1014 l 478 350 q 595 398 553 350 q 638 528 638 446 l 638 1014 l 764 1014 l 764 528 q 685 316 764 396 q 479 236 607 236 l 479 0 l 354 0 z "},"Ω":{"ha":833,"x_min":69,"x_max":765,"o":"m 69 0 l 69 124 l 271 124 l 271 131 q 156 194 208 138 q 104 353 104 251 l 104 728 q 189 947 104 865 q 417 1028 274 1028 q 644 947 560 1028 q 729 728 729 865 l 729 353 q 678 196 729 253 q 563 132 626 139 l 563 124 l 765 124 l 765 0 l 472 0 l 472 178 q 558 225 525 178 q 592 346 592 272 l 592 728 q 544 858 592 808 q 417 907 496 907 q 290 858 338 907 q 242 728 242 808 l 242 346 q 275 225 242 272 q 361 178 308 178 l 361 0 l 69 0 z "},"Ϊ":{"ha":833,"x_min":140,"x_max":693,"o":"m 574 1132 q 506 1156 531 1132 q 481 1222 481 1181 q 506 1290 481 1265 q 574 1315 531 1315 q 640 1290 615 1315 q 665 1222 665 1265 q 640 1156 665 1181 q 574 1132 615 1132 m 260 1132 q 193 1156 218 1132 q 168 1222 168 1181 q 193 1290 168 1265 q 260 1315 218 1315 q 328 1290 303 1315 q 353 1222 353 1265 q 328 1156 353 1181 q 260 1132 303 1132 m 140 0 l 140 125 l 347 125 l 347 889 l 140 889 l 140 1014 l 693 1014 l 693 889 l 486 889 l 486 125 l 693 125 l 693 0 l 140 0 z "},"Ϋ":{"ha":833,"x_min":44,"x_max":789,"o":"m 574 1132 q 506 1156 531 1132 q 481 1222 481 1181 q 506 1290 481 1265 q 574 1315 531 1315 q 640 1290 615 1315 q 665 1222 665 1265 q 640 1156 665 1181 q 574 1132 615 1132 m 260 1132 q 193 1156 218 1132 q 168 1222 168 1181 q 193 1290 168 1265 q 260 1315 218 1315 q 328 1290 303 1315 q 353 1222 353 1265 q 328 1156 353 1181 q 260 1132 303 1132 m 349 0 l 349 376 l 44 1014 l 188 1014 l 378 614 q 418 507 410 544 q 461 614 433 557 l 647 1014 l 789 1014 l 486 376 l 486 0 l 349 0 z "},"ά":{"ha":833,"x_min":119,"x_max":708,"o":"m 321 896 l 468 1090 l 617 1090 l 461 896 l 321 896 m 367 -14 q 185 63 251 -14 q 119 274 119 140 l 119 492 q 186 701 119 624 q 367 778 253 778 q 506 735 453 778 q 569 618 560 693 l 572 618 l 572 764 l 708 764 l 708 0 l 572 0 l 572 146 l 569 146 q 506 29 560 72 q 367 -14 451 -14 m 414 106 q 529 151 488 106 q 571 281 571 197 l 571 485 q 529 613 571 567 q 414 658 488 658 q 297 613 338 658 q 257 485 257 568 l 257 281 q 297 151 257 196 q 414 106 338 106 z "},"έ":{"ha":833,"x_min":106,"x_max":747,"o":"m 307 896 l 454 1090 l 603 1090 l 447 896 l 307 896 m 453 -10 l 386 -10 q 181 50 256 -10 q 106 213 106 110 q 158 346 106 294 q 299 403 210 397 l 299 406 q 165 454 214 410 q 117 572 117 499 q 190 719 117 664 q 388 774 263 774 l 456 774 q 644 719 571 774 q 732 571 717 665 l 589 571 q 547 632 582 610 q 456 654 511 654 l 388 654 q 294 628 328 654 q 260 554 260 601 q 294 480 260 507 q 385 453 328 453 l 544 453 l 544 338 l 386 338 q 285 306 322 338 q 249 222 249 275 q 285 140 249 169 q 386 110 322 110 l 453 110 q 555 131 514 110 q 606 188 596 151 l 747 188 q 653 44 732 97 q 453 -10 575 -10 z "},"ή":{"ha":833,"x_min":122,"x_max":714,"o":"m 338 896 l 483 1090 l 632 1090 l 476 896 l 338 896 m 122 0 l 122 764 l 258 764 l 258 618 l 261 618 q 324 736 271 694 q 464 778 376 778 q 646 706 578 778 q 714 511 714 633 l 714 -250 l 576 -250 l 576 496 q 535 617 576 574 q 421 661 493 661 q 303 615 346 661 q 260 485 260 568 l 260 0 l 122 0 z "},"ί":{"ha":833,"x_min":74,"x_max":767,"o":"m 331 896 l 476 1090 l 625 1090 l 469 896 l 331 896 m 578 0 q 410 61 474 0 q 347 224 347 122 l 347 639 l 74 639 l 74 764 l 485 764 l 485 224 q 510 151 485 178 q 581 125 536 125 l 767 125 l 767 0 l 578 0 z "},"ΰ":{"ha":833,"x_min":119,"x_max":714,"o":"m 354 1074 l 463 1256 l 583 1256 l 463 1074 l 354 1074 m 574 899 q 506 923 531 899 q 481 989 481 947 q 506 1057 481 1032 q 574 1082 531 1082 q 640 1057 615 1082 q 665 989 665 1032 q 640 923 665 947 q 574 899 615 899 m 260 899 q 193 923 218 899 q 168 989 168 947 q 193 1057 168 1032 q 260 1082 218 1082 q 328 1057 303 1082 q 353 989 353 1032 q 328 923 353 947 q 260 899 303 899 m 633 65 q 592 26 633 65 q 415 -14 551 -14 q 199 66 279 -14 q 119 281 119 146 l 119 764 l 257 764 l 257 281 q 299 152 257 197 q 415 107 340 107 q 533 152 490 107 q 576 281 576 197 l 576 764 l 714 764 l 714 281 q 633 65 714 144 z "},"α":{"ha":833,"x_min":119,"x_max":708,"o":"m 367 -14 q 185 63 251 -14 q 119 274 119 140 l 119 492 q 186 701 119 624 q 367 778 253 778 q 506 735 453 778 q 569 618 560 693 l 572 618 l 572 764 l 708 764 l 708 0 l 572 0 l 572 146 l 569 146 q 506 29 560 72 q 367 -14 451 -14 m 414 106 q 529 151 488 106 q 571 281 571 197 l 571 485 q 529 613 571 567 q 414 658 488 658 q 297 613 338 658 q 257 485 257 568 l 257 281 q 297 151 257 196 q 414 106 338 106 z "},"β":{"ha":833,"x_min":121,"x_max":743,"o":"m 121 -250 l 121 738 q 204 948 121 868 q 424 1028 288 1028 q 641 957 558 1028 q 724 769 724 886 q 680 624 724 683 q 558 542 636 564 q 694 453 644 519 q 743 289 743 388 q 658 81 743 161 q 438 0 574 0 l 256 0 l 256 -250 l 121 -250 m 256 122 l 424 122 q 551 169 504 122 q 599 296 599 217 q 552 417 599 374 q 424 461 506 461 l 363 461 l 363 576 l 419 576 q 538 622 494 576 q 581 743 581 668 q 537 862 581 818 q 418 906 493 906 q 299 860 343 906 q 256 738 256 815 l 256 122 z "},"γ":{"ha":833,"x_min":76,"x_max":757,"o":"m 349 -250 l 349 0 l 76 764 l 221 764 l 388 268 q 422 122 396 243 q 454 268 440 229 l 617 764 l 757 764 l 486 0 l 486 -250 l 349 -250 z "},"δ":{"ha":833,"x_min":119,"x_max":715,"o":"m 635 67 q 595 26 635 67 q 417 -14 556 -14 q 199 66 278 -14 q 119 286 119 146 l 119 404 q 174 602 119 528 q 319 676 229 676 q 446 629 385 676 l 451 635 l 147 903 l 147 1014 l 669 1014 l 669 900 l 318 900 l 585 671 q 715 410 715 560 l 715 286 q 635 67 715 147 m 299 155 q 319 132 299 155 q 417 108 340 108 q 535 155 493 108 q 578 286 578 201 l 578 410 q 535 545 578 497 q 415 593 493 593 q 298 545 339 593 q 257 410 257 497 l 257 286 q 299 155 257 201 z "},"ε":{"ha":833,"x_min":106,"x_max":747,"o":"m 453 -10 l 386 -10 q 181 50 256 -10 q 106 213 106 110 q 158 346 106 294 q 299 403 210 397 l 299 406 q 165 454 214 410 q 117 572 117 499 q 190 719 117 664 q 388 774 263 774 l 456 774 q 644 719 571 774 q 732 571 717 665 l 589 571 q 547 632 582 610 q 456 654 511 654 l 388 654 q 294 628 328 654 q 260 554 260 601 q 294 480 260 507 q 385 453 328 453 l 544 453 l 544 338 l 386 338 q 285 306 322 338 q 249 222 249 275 q 285 140 249 169 q 386 110 322 110 l 453 110 q 555 131 514 110 q 606 188 596 151 l 747 188 q 653 44 732 97 q 453 -10 575 -10 z "},"ζ":{"ha":833,"x_min":89,"x_max":749,"o":"m 611 -250 l 611 -68 q 543 0 611 0 l 376 0 q 165 65 240 0 q 89 240 89 129 q 364 703 89 439 l 557 888 l 122 888 l 122 1014 l 703 1014 l 703 879 l 450 625 q 226 250 226 399 q 266 156 226 189 q 378 122 306 122 l 550 122 q 701 78 654 122 q 749 -64 749 35 l 749 -250 l 611 -250 z "},"η":{"ha":833,"x_min":122,"x_max":714,"o":"m 122 0 l 122 764 l 258 764 l 258 618 l 261 618 q 324 736 271 694 q 464 778 376 778 q 646 706 578 778 q 714 511 714 633 l 714 -250 l 576 -250 l 576 496 q 535 617 576 574 q 421 661 493 661 q 303 615 346 661 q 260 485 260 568 l 260 0 l 122 0 z "},"θ":{"ha":833,"x_min":117,"x_max":717,"o":"m 636 65 q 596 25 636 65 q 417 -14 556 -14 q 197 65 278 -14 q 117 281 117 143 l 117 721 q 197 935 117 857 q 417 1014 278 1014 q 636 935 556 1014 q 717 721 717 857 l 717 281 q 636 65 717 143 m 254 565 l 579 565 l 579 721 q 537 849 579 804 q 417 893 494 893 q 297 849 339 893 q 254 721 254 804 l 254 565 m 296 153 q 317 131 296 153 q 417 108 338 108 q 538 153 496 108 q 579 281 579 197 l 579 447 l 254 447 l 254 281 q 296 153 254 197 z "},"ι":{"ha":833,"x_min":74,"x_max":767,"o":"m 578 0 q 410 61 474 0 q 347 224 347 122 l 347 639 l 74 639 l 74 764 l 485 764 l 485 224 q 510 151 485 178 q 581 125 536 125 l 767 125 l 767 0 l 578 0 z "},"κ":{"ha":833,"x_min":126,"x_max":778,"o":"m 126 0 l 126 764 l 264 764 l 264 453 l 404 453 l 618 764 l 774 764 l 524 399 l 778 0 l 618 0 l 406 335 l 264 335 l 264 0 l 126 0 z "},"λ":{"ha":833,"x_min":64,"x_max":769,"o":"m 64 0 l 349 753 l 246 1014 l 392 1014 l 769 0 l 624 0 l 450 483 q 433 540 440 511 q 419 594 425 568 q 410 628 413 619 q 382 483 410 565 l 213 0 l 64 0 z "},"μ":{"ha":833,"x_min":124,"x_max":711,"o":"m 124 -250 l 124 764 l 261 764 l 261 281 q 301 151 261 197 q 415 106 342 106 q 532 151 490 106 q 574 281 574 197 l 574 764 l 711 764 l 711 0 l 576 0 l 576 146 l 574 146 q 414 -14 560 -14 q 302 27 338 -14 q 261 146 267 68 l 258 146 l 261 -29 l 261 -250 l 124 -250 z "},"ν":{"ha":833,"x_min":64,"x_max":771,"o":"m 328 0 l 64 764 l 206 764 l 378 263 q 394 206 386 236 q 410 146 403 175 q 419 108 417 117 q 429 146 422 117 q 444 206 436 175 q 461 263 451 236 l 628 764 l 771 764 l 506 0 l 328 0 z "},"ξ":{"ha":833,"x_min":114,"x_max":785,"o":"m 647 -247 l 647 -68 q 629 -18 647 -36 q 579 0 611 0 l 456 0 q 206 81 299 0 q 114 297 114 161 q 165 463 114 397 q 308 549 217 529 q 182 623 228 567 q 136 763 136 679 q 218 946 136 878 q 440 1014 300 1014 l 703 1014 l 703 889 l 439 889 q 320 850 364 889 q 276 744 276 811 q 320 637 276 676 q 439 597 364 597 l 657 597 l 657 476 l 447 476 q 308 428 360 476 q 257 300 257 381 q 311 172 257 219 q 457 125 365 125 l 588 125 q 731 74 678 125 q 785 -64 785 24 l 785 -247 l 647 -247 z "},"ο":{"ha":833,"x_min":113,"x_max":721,"o":"m 639 67 q 598 28 639 67 q 417 -11 557 -11 q 194 67 276 -11 q 113 282 113 146 l 113 482 q 194 697 113 618 q 417 775 276 775 q 639 697 557 775 q 721 483 721 618 l 721 282 q 639 67 721 146 m 294 154 q 316 132 294 154 q 417 110 338 110 q 540 154 496 110 q 583 282 583 199 l 583 482 q 540 610 583 565 q 417 654 496 654 q 294 610 338 654 q 250 482 250 565 l 250 282 q 294 154 250 199 z "},"π":{"ha":833,"x_min":32,"x_max":775,"o":"m 744 -7 q 572 60 636 -7 q 507 240 507 128 l 507 643 l 279 643 l 279 0 l 146 0 l 146 643 l 32 643 l 32 764 l 774 764 l 774 643 l 639 643 l 639 235 q 666 151 639 181 q 742 121 693 121 l 775 121 l 775 -7 l 744 -7 z "},"ρ":{"ha":833,"x_min":125,"x_max":715,"o":"m 125 -250 l 125 492 q 205 701 125 624 q 421 778 285 778 q 636 701 557 778 q 715 492 715 625 l 715 274 q 649 63 715 140 q 467 -14 582 -14 q 328 29 382 -14 q 264 146 274 72 l 258 146 l 263 -29 l 263 -250 l 125 -250 m 419 106 q 537 151 496 106 q 578 281 578 196 l 578 485 q 537 613 578 568 q 419 658 496 658 q 303 613 343 658 q 263 485 263 568 l 263 281 q 304 151 263 197 q 419 106 346 106 z "},"ς":{"ha":833,"x_min":113,"x_max":758,"o":"m 621 -250 l 621 -68 q 553 0 621 0 l 422 0 q 196 74 279 0 q 113 282 113 147 l 113 485 q 197 699 113 621 q 422 778 281 778 q 639 706 557 778 q 725 511 721 635 l 588 511 q 540 619 583 581 q 422 657 496 657 q 296 612 342 657 q 250 485 250 567 l 250 282 q 295 162 250 201 q 422 122 340 122 l 561 122 q 707 74 656 122 q 758 -64 758 25 l 758 -250 l 621 -250 z "},"σ":{"ha":833,"x_min":113,"x_max":789,"o":"m 413 -14 q 195 67 278 -14 q 113 281 113 149 l 113 471 q 195 683 113 603 q 413 764 278 764 l 789 764 l 789 642 l 561 642 l 561 638 q 673 582 632 629 q 714 458 714 535 l 714 281 q 631 67 714 149 q 413 -14 549 -14 m 293 154 q 315 131 293 154 q 413 108 336 108 q 533 154 489 108 q 576 281 576 200 l 576 471 q 533 597 576 551 q 413 643 490 643 q 293 597 336 643 q 250 471 250 550 l 250 281 q 293 154 250 200 z "},"τ":{"ha":833,"x_min":79,"x_max":732,"o":"m 535 0 q 377 55 433 0 q 321 208 321 110 l 321 639 l 79 639 l 79 764 l 732 764 l 732 639 l 458 639 l 458 208 q 538 125 458 125 l 713 125 l 713 0 l 535 0 z "},"υ":{"ha":833,"x_min":119,"x_max":714,"o":"m 633 65 q 592 26 633 65 q 415 -14 551 -14 q 199 66 279 -14 q 119 281 119 146 l 119 764 l 257 764 l 257 281 q 299 152 257 197 q 415 107 340 107 q 533 152 490 107 q 576 281 576 197 l 576 764 l 714 764 l 714 281 q 633 65 714 144 z "},"φ":{"ha":833,"x_min":74,"x_max":760,"o":"m 356 -250 l 356 0 q 149 76 224 0 q 74 282 74 151 l 74 764 l 197 764 l 197 282 q 241 154 197 200 q 364 108 285 108 l 364 764 l 517 764 q 694 703 629 764 q 760 536 760 642 l 760 282 q 685 76 760 151 q 478 0 610 0 l 478 -250 l 356 -250 m 469 108 q 592 154 549 108 q 636 282 636 200 l 636 536 q 604 624 636 592 q 515 657 572 657 l 469 657 l 469 108 z "},"χ":{"ha":833,"x_min":51,"x_max":782,"o":"m 51 -250 l 340 265 l 67 764 l 224 764 l 374 475 q 390 443 381 461 q 408 407 399 425 q 419 383 417 389 q 464 475 435 419 l 615 764 l 767 764 l 493 272 l 782 -250 l 626 -250 l 460 61 q 415 157 425 129 q 369 63 389 97 l 203 -250 l 51 -250 z "},"ψ":{"ha":833,"x_min":71,"x_max":763,"o":"m 356 -250 l 356 0 q 147 76 224 0 q 71 282 71 151 l 71 764 l 194 764 l 194 282 q 239 156 194 201 q 364 111 283 111 l 364 764 l 469 764 l 469 111 q 594 156 550 111 q 639 282 639 201 l 639 764 l 763 764 l 763 282 q 686 76 763 151 q 478 0 610 0 l 478 -250 l 356 -250 z "},"ω":{"ha":833,"x_min":74,"x_max":760,"o":"m 250 -14 q 121 47 168 -14 q 74 213 74 107 l 74 493 q 128 687 74 610 q 275 778 182 764 l 275 636 q 219 590 239 629 q 199 493 199 551 l 199 208 q 219 127 199 156 q 279 99 240 99 q 340 127 318 99 q 363 208 363 156 l 363 478 l 471 478 l 471 208 q 493 127 471 156 q 554 99 515 99 q 614 127 593 99 q 635 208 635 156 l 635 493 q 613 585 635 549 q 553 631 592 622 l 553 772 q 704 682 649 757 q 760 493 760 607 l 760 213 q 712 47 760 107 q 582 -14 664 -14 q 470 26 514 -14 q 417 138 426 67 q 363 26 407 67 q 250 -14 318 -14 z "},"ϊ":{"ha":833,"x_min":74,"x_max":767,"o":"m 574 899 q 506 923 531 899 q 481 989 481 947 q 506 1057 481 1032 q 574 1082 531 1082 q 640 1057 615 1082 q 665 989 665 1032 q 640 923 665 947 q 574 899 615 899 m 260 899 q 193 923 218 899 q 168 989 168 947 q 193 1057 168 1032 q 260 1082 218 1082 q 328 1057 303 1082 q 353 989 353 1032 q 328 923 353 947 q 260 899 303 899 m 578 0 q 410 61 474 0 q 347 224 347 122 l 347 639 l 74 639 l 74 764 l 485 764 l 485 224 q 510 151 485 178 q 581 125 536 125 l 767 125 l 767 0 l 578 0 z "},"ϋ":{"ha":833,"x_min":119,"x_max":714,"o":"m 574 899 q 506 923 531 899 q 481 989 481 947 q 506 1057 481 1032 q 574 1082 531 1082 q 640 1057 615 1082 q 665 989 665 1032 q 640 923 665 947 q 574 899 615 899 m 260 899 q 193 923 218 899 q 168 989 168 947 q 193 1057 168 1032 q 260 1082 218 1082 q 328 1057 303 1082 q 353 989 353 1032 q 328 923 353 947 q 260 899 303 899 m 633 65 q 592 26 633 65 q 415 -14 551 -14 q 199 66 279 -14 q 119 281 119 146 l 119 764 l 257 764 l 257 281 q 299 152 257 197 q 415 107 340 107 q 533 152 490 107 q 576 281 576 197 l 576 764 l 714 764 l 714 281 q 633 65 714 144 z "},"ό":{"ha":833,"x_min":113,"x_max":721,"o":"m 331 896 l 476 1090 l 625 1090 l 469 896 l 331 896 m 639 67 q 598 28 639 67 q 417 -11 557 -11 q 194 67 276 -11 q 113 282 113 146 l 113 482 q 194 697 113 618 q 417 775 276 775 q 639 697 557 775 q 721 483 721 618 l 721 282 q 639 67 721 146 m 294 154 q 316 132 294 154 q 417 110 338 110 q 540 154 496 110 q 583 282 583 199 l 583 482 q 540 610 583 565 q 417 654 496 654 q 294 610 338 654 q 250 482 250 565 l 250 282 q 294 154 250 199 z "},"ύ":{"ha":833,"x_min":119,"x_max":714,"o":"m 331 896 l 476 1090 l 625 1090 l 469 896 l 331 896 m 633 65 q 592 26 633 65 q 415 -14 551 -14 q 199 66 279 -14 q 119 281 119 146 l 119 764 l 257 764 l 257 281 q 299 152 257 197 q 415 107 340 107 q 533 152 490 107 q 576 281 576 197 l 576 764 l 714 764 l 714 281 q 633 65 714 144 z "},"ώ":{"ha":833,"x_min":74,"x_max":760,"o":"m 315 896 l 463 1090 l 611 1090 l 456 896 l 315 896 m 250 -14 q 121 47 168 -14 q 74 213 74 107 l 74 493 q 128 687 74 610 q 275 778 182 764 l 275 636 q 219 590 239 629 q 199 493 199 551 l 199 208 q 219 127 199 156 q 279 99 240 99 q 340 127 318 99 q 363 208 363 156 l 363 478 l 471 478 l 471 208 q 493 127 471 156 q 554 99 515 99 q 614 127 593 99 q 635 208 635 156 l 635 493 q 613 585 635 549 q 553 631 592 622 l 553 772 q 704 682 649 757 q 760 493 760 607 l 760 213 q 712 47 760 107 q 582 -14 664 -14 q 470 26 514 -14 q 417 138 426 67 q 363 26 407 67 q 250 -14 318 -14 z "},"Ϗ":{"ha":833,"x_min":122,"x_max":806,"o":"m 122 0 l 122 1014 l 260 1014 l 260 585 l 401 585 l 618 1014 l 768 1014 l 522 528 l 729 104 l 806 104 l 806 -1 q 740 -186 806 -122 q 549 -250 674 -250 l 500 -250 l 500 -131 l 546 -131 q 641 -95 606 -131 q 676 0 676 -60 l 625 0 l 399 464 l 260 464 l 260 0 l 122 0 z "},"ϕ":{"ha":833,"x_min":71,"x_max":763,"o":"m 357 -250 l 357 0 q 147 75 224 0 q 71 282 71 150 l 71 485 q 148 690 71 615 q 357 764 225 764 l 357 1014 l 476 1014 l 476 764 q 686 689 610 764 q 763 485 763 614 l 763 282 q 686 75 763 150 q 476 0 610 0 l 476 -250 l 357 -250 m 361 108 l 361 656 q 241 610 285 656 q 197 485 197 565 l 197 282 q 241 154 197 200 q 361 108 285 108 m 472 108 q 593 154 550 108 q 636 282 636 200 l 636 485 q 593 610 636 565 q 472 656 550 656 l 472 108 z "},"ϖ":{"ha":833,"x_min":19,"x_max":814,"o":"m 250 -14 q 121 47 168 -14 q 74 213 74 107 l 74 457 q 178 640 74 590 l 19 640 l 19 764 l 814 764 l 814 640 l 657 640 q 760 457 760 590 l 760 213 q 712 47 760 107 q 582 -14 664 -14 q 471 26 514 -14 q 417 138 428 67 q 363 26 406 67 q 250 -14 319 -14 m 219 127 q 230 113 219 127 q 279 99 240 99 q 340 127 318 99 q 363 208 363 156 l 363 475 l 471 475 l 471 208 q 493 127 471 156 q 554 99 515 99 q 614 127 593 99 q 635 208 635 156 l 635 531 q 554 640 635 640 l 279 640 q 199 531 199 640 l 199 208 q 219 127 199 156 z "},"ϗ":{"ha":833,"x_min":122,"x_max":771,"o":"m 122 0 l 122 764 l 251 764 l 251 358 q 235 114 251 254 l 538 764 l 711 764 l 711 104 l 771 104 l 771 -1 q 705 -186 771 -122 q 513 -250 639 -250 l 464 -250 l 464 -131 l 511 -131 q 606 -95 569 -131 q 642 0 642 -60 l 582 0 l 582 407 q 599 647 582 511 l 296 0 l 122 0 z "},"Ё":{"ha":833,"x_min":135,"x_max":725,"o":"m 601 1132 q 533 1156 558 1132 q 508 1222 508 1181 q 533 1290 508 1265 q 601 1315 558 1315 q 668 1290 643 1315 q 693 1222 693 1265 q 668 1156 693 1181 q 601 1132 643 1132 m 288 1132 q 221 1156 246 1132 q 196 1222 196 1181 q 221 1290 196 1265 q 288 1315 246 1315 q 356 1290 331 1315 q 381 1222 381 1265 q 356 1156 381 1181 q 288 1132 331 1132 m 135 0 l 135 1014 l 725 1014 l 725 890 l 271 890 l 271 589 l 676 589 l 676 469 l 271 469 l 271 124 l 725 124 l 725 0 l 135 0 z "},"Ђ":{"ha":833,"x_min":0,"x_max":751,"o":"m 367 -250 l 367 -124 l 461 -124 q 573 -83 532 -124 q 614 26 614 -43 l 614 408 q 499 571 614 571 q 347 489 424 571 l 289 426 l 289 0 l 151 0 l 151 892 l 0 892 l 0 1014 l 453 1014 l 453 892 l 289 892 l 289 556 l 310 578 q 531 688 414 688 q 691 618 631 688 q 751 433 751 549 l 751 24 q 672 -175 751 -100 q 460 -250 592 -250 l 367 -250 z "},"Ѓ":{"ha":833,"x_min":178,"x_max":772,"o":"m 358 1125 l 504 1319 l 653 1319 l 497 1125 l 358 1125 m 178 0 l 178 1014 l 772 1014 l 772 889 l 315 889 l 315 0 l 178 0 z "},"Є":{"ha":833,"x_min":119,"x_max":724,"o":"m 422 -14 q 201 65 282 -14 q 119 281 119 143 l 119 735 q 201 949 119 871 q 422 1028 282 1028 q 642 949 561 1028 q 724 735 724 869 l 586 735 q 543 862 586 817 q 422 907 500 907 q 300 862 343 907 q 257 735 257 817 l 257 574 l 565 574 l 565 449 l 257 449 l 257 281 q 300 153 257 197 q 422 108 343 108 q 543 153 500 108 q 586 281 586 197 l 724 281 q 642 66 724 146 q 422 -14 561 -14 z "},"Ѕ":{"ha":833,"x_min":94,"x_max":739,"o":"m 421 -14 q 183 63 272 -14 q 94 268 94 139 l 232 268 q 284 152 232 196 q 422 108 336 108 q 554 152 506 108 q 603 268 603 196 q 572 369 603 326 q 489 428 542 413 l 346 471 q 180 578 239 503 q 121 754 121 653 q 203 953 121 879 q 424 1028 285 1028 q 643 953 561 1028 q 725 756 725 879 l 588 756 q 543 866 588 825 q 424 907 499 907 q 301 866 347 907 q 256 757 256 825 q 286 664 256 703 q 374 608 317 625 l 521 563 q 681 453 622 531 q 739 269 739 375 q 652 63 739 140 q 421 -14 565 -14 z "},"І":{"ha":833,"x_min":140,"x_max":693,"o":"m 140 0 l 140 125 l 347 125 l 347 889 l 140 889 l 140 1014 l 693 1014 l 693 889 l 486 889 l 486 125 l 693 125 l 693 0 l 140 0 z "},"Ї":{"ha":833,"x_min":140,"x_max":693,"o":"m 574 1132 q 506 1156 531 1132 q 481 1222 481 1181 q 506 1290 481 1265 q 574 1315 531 1315 q 640 1290 615 1315 q 665 1222 665 1265 q 640 1156 665 1181 q 574 1132 615 1132 m 260 1132 q 193 1156 218 1132 q 168 1222 168 1181 q 193 1290 168 1265 q 260 1315 218 1315 q 328 1290 303 1315 q 353 1222 353 1265 q 328 1156 353 1181 q 260 1132 303 1132 m 140 0 l 140 125 l 347 125 l 347 889 l 140 889 l 140 1014 l 693 1014 l 693 889 l 486 889 l 486 125 l 693 125 l 693 0 l 140 0 z "},"Ј":{"ha":833,"x_min":57,"x_max":693,"o":"m 608 69 q 565 27 608 69 q 375 -14 522 -14 q 142 69 228 -14 q 57 294 57 151 l 194 294 q 242 157 194 206 q 375 108 289 108 q 508 157 460 108 q 556 293 556 206 l 556 889 l 271 889 l 271 1014 l 693 1014 l 693 293 q 608 69 693 151 z "},"Љ":{"ha":833,"x_min":-8,"x_max":808,"o":"m -8 -7 l -8 111 l 18 111 q 74 154 53 111 q 96 272 94 197 l 103 1014 l 507 1014 l 507 600 l 579 600 q 745 540 682 600 q 808 379 808 479 l 808 222 q 745 60 808 121 q 579 0 682 0 l 388 0 l 388 903 l 221 903 l 214 272 q 160 68 213 143 q 17 -7 107 -7 l -8 -7 m 507 111 l 579 111 q 658 142 628 111 q 689 222 689 172 l 689 378 q 658 458 689 428 q 579 489 628 489 l 507 489 l 507 111 z "},"Њ":{"ha":833,"x_min":71,"x_max":808,"o":"m 71 0 l 71 1014 l 190 1014 l 190 603 l 388 603 l 388 1014 l 507 1014 l 507 603 l 579 603 q 747 542 685 603 q 808 381 808 482 l 808 222 q 747 60 808 121 q 579 0 685 0 l 388 0 l 388 492 l 190 492 l 190 0 l 71 0 m 507 111 l 579 111 q 660 141 631 111 q 689 222 689 171 l 689 381 q 660 462 689 432 q 579 492 631 492 l 507 492 l 507 111 z "},"Ћ":{"ha":833,"x_min":0,"x_max":751,"o":"m 151 0 l 151 892 l 0 892 l 0 1014 l 453 1014 l 453 892 l 289 892 l 289 556 l 310 578 q 531 688 414 688 q 691 618 631 688 q 751 433 751 549 l 751 0 l 614 0 l 614 408 q 499 571 614 571 q 347 489 424 571 l 289 426 l 289 0 l 151 0 z "},"Ќ":{"ha":833,"x_min":122,"x_max":781,"o":"m 331 1125 l 476 1319 l 625 1319 l 469 1125 l 331 1125 m 122 0 l 122 1014 l 260 1014 l 260 585 l 401 585 l 618 1014 l 768 1014 l 522 528 l 781 0 l 625 0 l 399 464 l 260 464 l 260 0 l 122 0 z "},"Ў":{"ha":833,"x_min":64,"x_max":769,"o":"m 581 1173 q 550 1145 581 1173 q 417 1117 518 1117 q 252 1173 315 1117 q 189 1319 189 1229 l 297 1319 q 330 1236 297 1268 q 415 1204 363 1204 q 503 1236 469 1204 q 536 1319 536 1268 l 644 1319 q 581 1173 644 1229 m 260 0 l 363 261 l 64 1014 l 214 1014 l 389 531 q 431 379 415 457 q 467 531 442 457 l 621 1014 l 769 1014 l 406 0 l 260 0 z "},"Џ":{"ha":833,"x_min":125,"x_max":708,"o":"m 349 -174 l 349 0 l 125 0 l 125 1014 l 263 1014 l 263 126 l 571 126 l 571 1014 l 708 1014 l 708 0 l 486 0 l 486 -174 l 349 -174 z "},"А":{"ha":833,"x_min":64,"x_max":769,"o":"m 64 0 l 326 1014 l 508 1014 l 769 0 l 629 0 l 565 264 l 268 264 l 204 0 l 64 0 m 296 378 l 538 378 l 465 681 q 417 901 426 836 q 369 682 407 840 l 296 378 z "},"Б":{"ha":833,"x_min":125,"x_max":743,"o":"m 125 0 l 125 1014 l 700 1014 l 700 889 l 261 889 l 261 597 l 425 597 q 657 516 571 597 q 743 299 743 435 q 657 81 743 163 q 425 0 571 0 l 125 0 m 261 122 l 425 122 q 554 169 507 122 q 601 299 601 217 q 554 428 601 381 q 425 475 507 475 l 261 475 l 261 122 z "},"В":{"ha":833,"x_min":124,"x_max":743,"o":"m 124 0 l 124 1014 l 417 1014 q 638 944 557 1014 q 719 751 719 874 q 678 613 719 669 q 564 536 638 556 q 695 447 647 514 q 743 283 743 381 q 660 76 743 153 q 436 0 578 0 l 124 0 m 258 586 l 415 586 q 538 627 493 586 q 582 739 582 668 q 538 852 582 811 q 417 893 493 893 l 258 893 l 258 586 m 258 121 l 424 121 q 557 166 508 121 q 606 289 606 211 q 556 419 606 369 q 424 469 507 469 l 258 469 l 258 121 z "},"Г":{"ha":833,"x_min":178,"x_max":772,"o":"m 178 0 l 178 1014 l 772 1014 l 772 889 l 315 889 l 315 0 l 178 0 z "},"Д":{"ha":833,"x_min":35,"x_max":799,"o":"m 35 -194 l 35 117 l 93 117 q 144 249 121 165 q 168 422 167 333 l 178 1014 l 704 1014 l 704 117 l 799 117 l 799 -194 l 675 -194 l 675 0 l 158 0 l 158 -194 l 35 -194 m 235 117 l 568 117 l 568 893 l 308 893 l 301 422 q 280 243 300 326 q 235 117 260 160 z "},"Е":{"ha":833,"x_min":135,"x_max":725,"o":"m 135 0 l 135 1014 l 725 1014 l 725 890 l 271 890 l 271 589 l 676 589 l 676 469 l 271 469 l 271 124 l 725 124 l 725 0 l 135 0 z "},"Ж":{"ha":833,"x_min":17,"x_max":817,"o":"m 17 0 l 192 521 l 29 1014 l 165 1014 l 304 563 l 361 563 l 361 1014 l 472 1014 l 472 563 l 529 563 l 668 1014 l 803 1014 l 643 521 l 817 0 l 682 0 l 532 475 l 472 475 l 472 0 l 363 0 l 361 475 l 300 475 l 150 0 l 17 0 z "},"З":{"ha":833,"x_min":71,"x_max":742,"o":"m 403 -14 q 165 64 256 -14 q 71 269 74 142 l 208 269 q 263 153 210 197 q 401 108 317 108 q 547 158 492 108 q 601 288 601 207 q 547 419 601 369 q 401 468 492 468 l 274 468 l 274 588 l 401 588 q 532 631 483 588 q 581 746 581 674 q 531 863 581 818 q 401 907 482 907 q 269 861 319 907 q 219 740 219 815 l 82 740 q 171 949 82 869 q 407 1028 260 1028 q 633 953 547 1028 q 719 757 719 879 q 675 613 719 671 q 553 538 631 556 q 691 453 640 519 q 742 288 742 388 q 649 69 742 151 q 403 -14 556 -14 z "},"И":{"ha":833,"x_min":119,"x_max":715,"o":"m 119 0 l 119 1014 l 249 1014 l 249 464 q 236 158 249 318 l 536 1014 l 715 1014 l 715 0 l 585 0 l 585 547 q 600 856 585 693 l 297 0 l 119 0 z "},"Й":{"ha":833,"x_min":119,"x_max":715,"o":"m 581 1173 q 550 1145 581 1173 q 417 1117 518 1117 q 252 1173 315 1117 q 189 1319 189 1229 l 297 1319 q 330 1236 297 1268 q 415 1204 363 1204 q 503 1236 469 1204 q 536 1319 536 1268 l 644 1319 q 581 1173 644 1229 m 119 0 l 119 1014 l 249 1014 l 249 464 q 236 158 249 318 l 536 1014 l 715 1014 l 715 0 l 585 0 l 585 547 q 600 856 585 693 l 297 0 l 119 0 z "},"К":{"ha":833,"x_min":122,"x_max":781,"o":"m 122 0 l 122 1014 l 260 1014 l 260 585 l 401 585 l 618 1014 l 768 1014 l 522 528 l 781 0 l 625 0 l 399 464 l 260 464 l 260 0 l 122 0 z "},"Л":{"ha":833,"x_min":26,"x_max":708,"o":"m 26 -7 l 26 121 l 54 121 q 138 174 111 121 q 167 347 165 226 l 178 1014 l 708 1014 l 708 0 l 571 0 l 571 889 l 313 889 l 303 347 q 242 80 300 167 q 63 -7 183 -7 l 26 -7 z "},"М":{"ha":833,"x_min":99,"x_max":735,"o":"m 99 0 l 99 1014 l 274 1014 l 379 688 q 419 535 394 639 q 458 689 433 610 l 560 1014 l 735 1014 l 735 0 l 603 0 l 603 465 q 639 942 603 674 l 481 443 l 353 443 l 193 939 q 231 465 231 676 l 231 0 l 99 0 z "},"Н":{"ha":833,"x_min":124,"x_max":710,"o":"m 124 0 l 124 1014 l 261 1014 l 261 588 l 572 588 l 572 1014 l 710 1014 l 710 0 l 572 0 l 572 463 l 261 463 l 261 0 l 124 0 z "},"О":{"ha":833,"x_min":117,"x_max":717,"o":"m 636 65 q 596 25 636 65 q 417 -14 556 -14 q 197 65 278 -14 q 117 281 117 143 l 117 735 q 197 949 117 871 q 417 1028 278 1028 q 636 949 556 1028 q 717 735 717 871 l 717 281 q 636 65 717 143 m 297 153 q 318 131 297 153 q 417 108 339 108 q 537 153 494 108 q 579 281 579 197 l 579 735 q 537 861 579 817 q 417 906 494 906 q 297 861 339 906 q 254 735 254 817 l 254 281 q 297 153 254 197 z "},"П":{"ha":833,"x_min":125,"x_max":708,"o":"m 125 0 l 125 1014 l 708 1014 l 708 0 l 571 0 l 571 889 l 263 889 l 263 0 l 125 0 z "},"Р":{"ha":833,"x_min":122,"x_max":768,"o":"m 122 0 l 122 1014 l 451 1014 q 682 932 596 1014 q 768 711 768 850 q 682 492 768 574 q 451 410 596 410 l 260 410 l 260 0 l 122 0 m 260 532 l 451 532 q 579 581 532 532 q 626 711 626 629 q 579 842 626 793 q 451 892 532 892 l 260 892 l 260 532 z "},"С":{"ha":833,"x_min":117,"x_max":726,"o":"m 422 -14 q 199 65 281 -14 q 117 281 117 143 l 117 735 q 199 949 117 871 q 422 1028 281 1028 q 644 949 561 1028 q 726 735 726 869 l 589 735 q 545 861 589 817 q 422 906 501 906 q 299 861 343 906 q 254 735 254 817 l 254 281 q 299 153 254 197 q 422 108 343 108 q 545 153 501 108 q 589 281 589 197 l 726 281 q 644 66 726 146 q 422 -14 561 -14 z "},"Т":{"ha":833,"x_min":74,"x_max":760,"o":"m 349 0 l 349 889 l 74 889 l 74 1014 l 760 1014 l 760 889 l 486 889 l 486 0 l 349 0 z "},"У":{"ha":833,"x_min":64,"x_max":769,"o":"m 260 0 l 363 261 l 64 1014 l 214 1014 l 389 531 q 431 379 415 457 q 467 531 442 457 l 621 1014 l 769 1014 l 406 0 l 260 0 z "},"Ф":{"ha":833,"x_min":69,"x_max":764,"o":"m 354 -35 l 354 63 q 148 142 226 63 q 69 354 69 222 l 69 675 q 147 891 69 810 q 354 972 225 972 l 354 1069 l 479 1069 l 479 972 q 686 891 608 972 q 764 675 764 810 l 764 354 q 685 142 764 222 q 479 63 607 63 l 479 -35 l 354 -35 m 356 176 l 356 858 q 239 809 282 858 q 196 675 196 760 l 196 354 q 239 224 196 272 q 356 176 282 176 m 478 176 q 595 224 553 176 q 638 354 638 272 l 638 675 q 595 810 638 761 q 478 858 553 858 l 478 176 z "},"Х":{"ha":833,"x_min":51,"x_max":782,"o":"m 51 0 l 340 515 l 67 1014 l 224 1014 l 374 725 q 390 693 381 711 q 408 657 399 675 q 419 633 417 639 q 464 725 435 669 l 615 1014 l 767 1014 l 493 522 l 782 0 l 626 0 l 460 311 q 415 407 425 379 q 369 313 389 347 l 203 0 l 51 0 z "},"Ц":{"ha":833,"x_min":125,"x_max":788,"o":"m 664 -194 l 664 0 l 125 0 l 125 1014 l 263 1014 l 263 122 l 546 122 l 546 1014 l 683 1014 l 683 122 l 788 122 l 788 -194 l 664 -194 z "},"Ч":{"ha":833,"x_min":99,"x_max":707,"o":"m 569 0 l 569 396 q 383 375 507 375 q 171 440 243 375 q 99 629 99 504 l 99 1014 l 236 1014 l 236 632 q 408 497 236 497 q 569 517 525 497 l 569 1014 l 707 1014 l 707 0 l 569 0 z "},"Ш":{"ha":833,"x_min":83,"x_max":750,"o":"m 86 0 l 83 1014 l 208 1014 l 208 101 l 364 101 l 364 1014 l 471 1014 l 471 101 l 626 101 l 626 1014 l 750 1014 l 750 0 l 86 0 z "},"Щ":{"ha":833,"x_min":83,"x_max":801,"o":"m 679 -194 l 679 0 l 83 0 l 83 1014 l 203 1014 l 203 111 l 357 111 l 357 1014 l 460 1014 l 460 111 l 613 111 l 613 1014 l 732 1014 l 732 111 l 801 111 l 801 -194 l 679 -194 z "},"Ъ":{"ha":833,"x_min":-7,"x_max":768,"o":"m 182 0 l 182 892 l -7 892 l -7 1014 l 319 1014 l 319 600 l 454 600 q 681 517 594 600 q 768 300 768 435 q 681 83 768 165 q 454 0 594 0 l 182 0 m 319 124 l 449 124 q 578 172 529 124 q 626 300 626 221 q 578 428 626 381 q 449 476 529 476 l 319 476 l 319 124 z "},"Ы":{"ha":833,"x_min":85,"x_max":749,"o":"m 85 0 l 85 1014 l 210 1014 l 210 600 l 264 600 q 463 529 390 600 q 535 336 535 458 l 535 263 q 463 70 535 140 q 264 0 390 0 l 85 0 m 624 0 l 624 1014 l 749 1014 l 749 0 l 624 0 m 210 117 l 264 117 q 370 156 332 117 q 408 264 408 194 l 408 336 q 370 444 408 406 q 264 483 332 483 l 210 483 l 210 117 z "},"Ь":{"ha":833,"x_min":125,"x_max":768,"o":"m 125 0 l 125 1014 l 263 1014 l 263 600 l 454 600 q 681 517 594 600 q 768 300 768 435 q 681 83 768 165 q 454 0 594 0 l 125 0 m 263 124 l 449 124 q 578 172 529 124 q 626 300 626 221 q 578 428 626 381 q 449 476 529 476 l 263 476 l 263 124 z "},"Э":{"ha":833,"x_min":110,"x_max":715,"o":"m 411 -14 q 191 66 272 -14 q 110 281 110 146 l 247 281 q 290 153 247 197 q 411 108 333 108 q 534 153 490 108 q 578 281 578 197 l 578 449 l 269 449 l 269 574 l 578 574 l 578 735 q 534 862 578 817 q 411 907 490 907 q 290 862 333 907 q 247 735 247 817 l 110 735 q 191 949 110 869 q 411 1028 272 1028 q 633 949 551 1028 q 715 735 715 871 l 715 281 q 633 65 715 143 q 411 -14 551 -14 z "},"Ю":{"ha":833,"x_min":79,"x_max":781,"o":"m 540 -14 q 373 57 435 -14 q 311 249 311 128 l 311 463 l 203 463 l 203 0 l 79 0 l 79 1014 l 203 1014 l 203 579 l 311 579 l 311 767 q 373 958 311 888 q 540 1028 435 1028 q 716 958 651 1028 q 781 767 781 888 l 781 249 q 716 57 781 128 q 540 -14 651 -14 m 540 101 q 627 139 597 101 q 657 246 657 176 l 657 768 q 627 875 657 838 q 540 913 597 913 q 456 875 485 913 q 426 768 426 838 l 426 246 q 456 139 426 176 q 540 101 485 101 z "},"Я":{"ha":833,"x_min":74,"x_max":707,"o":"m 74 0 l 279 440 q 137 544 189 469 q 85 719 85 618 q 170 933 85 851 q 394 1014 256 1014 l 707 1014 l 707 0 l 571 0 l 571 424 l 418 424 l 231 0 l 74 0 m 394 544 l 571 544 l 571 893 l 394 893 q 272 845 318 893 q 226 718 226 797 q 272 592 226 639 q 394 544 318 544 z "},"а":{"ha":833,"x_min":88,"x_max":714,"o":"m 346 -14 q 156 47 225 -14 q 88 215 88 108 q 159 385 88 324 q 354 447 231 447 l 576 447 l 576 519 q 534 623 576 586 q 419 660 492 660 q 310 630 353 660 q 260 557 267 600 l 125 557 q 218 717 136 656 q 424 778 300 778 q 635 710 557 778 q 714 524 714 642 l 714 0 l 579 0 l 579 142 l 578 142 q 506 28 568 69 q 346 -14 444 -14 m 383 93 q 522 135 468 93 q 576 244 576 178 l 576 349 l 357 349 q 260 315 296 349 q 225 225 225 282 q 267 128 225 163 q 383 93 308 93 z "},"б":{"ha":833,"x_min":115,"x_max":724,"o":"m 642 67 q 601 26 642 67 q 419 -14 560 -14 q 197 67 279 -14 q 115 286 115 147 l 115 632 q 214 911 115 808 q 482 1014 313 1014 l 682 1014 l 682 879 l 482 879 q 313 813 375 879 q 250 632 250 746 l 250 553 l 253 553 q 319 660 263 622 q 463 699 375 699 q 653 620 583 699 q 724 407 724 542 l 724 286 q 642 67 724 147 m 297 156 q 319 132 297 156 q 419 108 342 108 q 542 156 497 108 q 586 286 586 204 l 586 407 q 542 537 586 489 q 419 585 497 585 q 297 537 342 585 q 253 407 253 489 l 253 286 q 297 156 253 204 z "},"в":{"ha":833,"x_min":122,"x_max":735,"o":"m 122 0 l 122 764 l 454 764 q 640 712 572 764 q 708 569 708 660 q 664 457 708 500 q 543 411 619 414 l 543 406 q 682 351 629 403 q 735 215 735 300 q 663 58 735 117 q 467 0 590 0 l 122 0 m 257 446 l 453 446 q 542 473 510 446 q 574 549 574 500 q 542 622 574 596 q 453 649 510 649 l 257 649 l 257 446 m 257 115 l 464 115 q 563 145 528 115 q 599 228 599 175 q 563 310 599 281 q 464 340 528 340 l 257 340 l 257 115 z "},"г":{"ha":833,"x_min":178,"x_max":732,"o":"m 178 0 l 178 764 l 732 764 l 732 638 l 315 638 l 315 0 l 178 0 z "},"д":{"ha":833,"x_min":40,"x_max":788,"o":"m 40 -194 l 40 118 l 100 118 q 151 216 128 146 q 176 381 175 286 l 185 764 l 692 764 l 692 118 l 788 118 l 788 -194 l 664 -194 l 664 0 l 164 0 l 164 -194 l 40 -194 m 243 118 l 557 118 l 557 643 l 314 643 l 308 378 q 287 213 307 282 q 243 118 267 143 z "},"е":{"ha":833,"x_min":113,"x_max":721,"o":"m 417 -14 q 196 67 279 -14 q 113 281 113 147 l 113 485 q 196 697 113 617 q 417 778 279 778 q 638 697 556 778 q 721 485 721 617 l 721 349 l 247 349 l 247 281 q 291 146 247 192 q 417 100 335 100 q 581 197 560 100 l 717 197 q 621 44 703 101 q 417 -14 539 -14 m 247 485 l 247 447 l 588 447 l 588 485 q 544 619 588 572 q 417 665 500 665 q 291 619 335 665 q 247 485 247 572 z "},"ж":{"ha":833,"x_min":22,"x_max":811,"o":"m 22 0 l 186 392 l 33 764 l 163 764 l 293 429 l 361 429 l 361 764 l 472 764 l 472 429 l 538 429 l 674 764 l 800 764 l 649 396 l 811 0 l 679 0 l 542 349 l 472 349 l 472 0 l 361 0 l 361 349 l 292 349 l 154 0 l 22 0 z "},"з":{"ha":833,"x_min":86,"x_max":729,"o":"m 374 -10 q 177 43 254 -10 q 86 188 100 96 l 229 188 q 274 131 235 151 q 374 110 313 110 l 447 110 q 548 141 511 110 q 585 222 585 172 q 549 306 585 275 q 447 338 514 338 l 264 338 l 264 453 l 438 453 q 529 480 497 453 q 561 556 561 507 q 438 654 561 654 l 374 654 q 279 632 317 654 q 235 571 242 610 l 92 571 q 181 719 106 665 q 374 774 257 774 l 438 774 q 633 718 563 774 q 704 565 704 663 q 660 453 704 494 q 535 408 617 413 l 535 406 q 729 214 729 393 q 652 51 729 113 q 447 -10 575 -10 l 374 -10 z "},"и":{"ha":833,"x_min":122,"x_max":711,"o":"m 122 0 l 122 764 l 251 764 l 251 358 q 235 114 251 254 l 538 764 l 711 764 l 711 0 l 582 0 l 582 407 q 599 647 582 511 l 296 0 l 122 0 z "},"й":{"ha":833,"x_min":122,"x_max":711,"o":"m 581 944 q 550 916 581 944 q 417 888 518 888 q 252 944 315 888 q 189 1090 189 1000 l 297 1090 q 330 1007 297 1039 q 415 975 363 975 q 503 1007 469 975 q 536 1090 536 1039 l 644 1090 q 581 944 644 1000 m 122 0 l 122 764 l 251 764 l 251 358 q 235 114 251 254 l 538 764 l 711 764 l 711 0 l 582 0 l 582 407 q 599 647 582 511 l 296 0 l 122 0 z "},"к":{"ha":833,"x_min":126,"x_max":778,"o":"m 126 0 l 126 764 l 264 764 l 264 453 l 404 453 l 618 764 l 774 764 l 524 399 l 778 0 l 618 0 l 406 335 l 264 335 l 264 0 l 126 0 z "},"л":{"ha":833,"x_min":33,"x_max":711,"o":"m 33 -10 l 33 118 l 61 118 q 147 165 121 118 q 174 329 172 213 l 182 764 l 711 764 l 711 0 l 574 0 l 574 639 l 317 639 l 311 322 q 249 69 307 149 q 69 -10 192 -10 l 33 -10 z "},"м":{"ha":833,"x_min":99,"x_max":735,"o":"m 99 0 l 99 764 l 278 764 l 376 472 q 421 318 389 438 q 463 474 431 369 l 556 764 l 735 764 l 735 0 l 604 0 l 604 121 q 624 690 604 313 l 486 228 l 351 228 l 211 683 q 229 121 229 282 l 229 0 l 99 0 z "},"н":{"ha":833,"x_min":122,"x_max":711,"o":"m 122 0 l 122 764 l 260 764 l 260 454 l 574 454 l 574 764 l 711 764 l 711 0 l 574 0 l 574 329 l 260 329 l 260 0 l 122 0 z "},"о":{"ha":833,"x_min":113,"x_max":721,"o":"m 639 67 q 598 28 639 67 q 417 -11 557 -11 q 194 67 276 -11 q 113 282 113 146 l 113 482 q 194 697 113 618 q 417 775 276 775 q 639 697 557 775 q 721 483 721 618 l 721 282 q 639 67 721 146 m 294 154 q 316 132 294 154 q 417 110 338 110 q 540 154 496 110 q 583 282 583 199 l 583 482 q 540 610 583 565 q 417 654 496 654 q 294 610 338 654 q 250 482 250 565 l 250 282 q 294 154 250 199 z "},"п":{"ha":833,"x_min":122,"x_max":711,"o":"m 122 0 l 122 764 l 711 764 l 711 0 l 574 0 l 574 639 l 260 639 l 260 0 l 122 0 z "},"р":{"ha":833,"x_min":124,"x_max":722,"o":"m 124 -250 l 124 764 l 260 764 l 260 621 l 261 621 q 330 736 275 694 q 469 778 385 778 q 653 701 585 778 q 722 492 722 624 l 722 274 q 653 64 722 142 q 469 -14 585 -14 q 331 28 386 -14 q 261 144 275 71 l 258 144 l 261 -29 l 261 -250 l 124 -250 m 422 106 q 542 151 499 106 q 585 281 585 197 l 585 485 q 542 613 585 568 q 422 658 499 658 q 304 612 347 658 q 261 483 261 565 l 261 281 q 304 152 261 199 q 422 106 347 106 z "},"с":{"ha":833,"x_min":113,"x_max":725,"o":"m 422 -14 q 197 65 281 -14 q 113 281 113 144 l 113 485 q 197 699 113 621 q 422 778 281 778 q 639 706 557 778 q 725 511 721 635 l 589 511 q 540 618 585 579 q 422 657 496 657 q 296 612 342 657 q 250 485 250 567 l 250 281 q 296 153 250 199 q 422 108 342 108 q 540 147 496 108 q 589 253 585 185 l 725 253 q 639 58 721 129 q 422 -14 557 -14 z "},"т":{"ha":833,"x_min":75,"x_max":760,"o":"m 349 0 l 349 642 l 75 642 l 75 764 l 760 764 l 760 642 l 486 642 l 486 0 l 349 0 z "},"у":{"ha":833,"x_min":63,"x_max":771,"o":"m 244 -250 l 356 46 l 63 764 l 213 764 l 390 313 q 425 192 410 258 q 461 313 442 263 l 626 764 l 771 764 l 388 -250 l 244 -250 z "},"ф":{"ha":833,"x_min":71,"x_max":763,"o":"m 357 -250 l 357 0 q 147 75 224 0 q 71 282 71 150 l 71 485 q 148 690 71 615 q 357 764 225 764 l 357 1014 l 476 1014 l 476 764 q 686 689 610 764 q 763 485 763 614 l 763 282 q 686 75 763 150 q 476 0 610 0 l 476 -250 l 357 -250 m 361 108 l 361 656 q 241 610 285 656 q 197 485 197 565 l 197 282 q 241 154 197 200 q 361 108 285 108 m 472 108 q 593 154 550 108 q 636 282 636 200 l 636 485 q 593 610 636 565 q 472 656 550 656 l 472 108 z "},"х":{"ha":833,"x_min":64,"x_max":769,"o":"m 64 0 l 335 393 l 82 764 l 242 764 l 385 540 q 418 476 403 511 q 450 540 431 511 l 594 764 l 753 764 l 500 392 l 769 0 l 608 0 l 453 240 q 418 308 450 244 q 381 240 394 261 l 224 0 l 64 0 z "},"ц":{"ha":833,"x_min":122,"x_max":788,"o":"m 664 -194 l 664 0 l 122 0 l 122 764 l 260 764 l 260 124 l 546 124 l 546 764 l 683 764 l 683 124 l 788 124 l 788 -194 l 664 -194 z "},"ч":{"ha":833,"x_min":103,"x_max":701,"o":"m 564 0 l 564 268 q 404 257 517 257 q 176 317 250 257 q 103 503 103 376 l 103 764 l 240 764 l 240 504 q 281 411 240 440 q 413 382 322 382 q 564 389 533 382 l 564 764 l 701 764 l 701 0 l 564 0 z "},"ш":{"ha":833,"x_min":79,"x_max":754,"o":"m 82 0 l 79 764 l 204 764 l 204 111 l 364 111 l 364 764 l 471 764 l 471 111 l 631 111 l 631 764 l 754 764 l 754 0 l 82 0 z "},"щ":{"ha":833,"x_min":79,"x_max":801,"o":"m 679 -194 l 679 0 l 79 0 l 79 764 l 199 764 l 199 113 l 354 113 l 354 764 l 457 764 l 457 113 l 613 113 l 613 764 l 732 764 l 732 113 l 801 113 l 801 -194 l 679 -194 z "},"ъ":{"ha":833,"x_min":0,"x_max":761,"o":"m 190 0 l 190 640 l 0 640 l 0 764 l 328 764 l 328 492 l 479 492 q 686 426 611 492 q 761 246 761 360 q 685 66 761 132 q 479 0 610 0 l 190 0 m 328 124 l 478 124 q 619 246 619 124 q 478 367 619 367 l 328 367 l 328 124 z "},"ы":{"ha":833,"x_min":85,"x_max":749,"o":"m 85 0 l 85 764 l 210 764 l 210 489 l 269 489 q 465 424 393 489 q 538 244 538 358 q 465 65 538 131 q 269 0 393 0 l 85 0 m 624 0 l 624 764 l 749 764 l 749 0 l 624 0 m 210 108 l 269 108 q 378 144 339 108 q 418 244 418 181 q 378 344 418 308 q 269 381 339 381 l 210 381 l 210 108 z "},"ь":{"ha":833,"x_min":131,"x_max":761,"o":"m 131 0 l 131 764 l 268 764 l 268 492 l 479 492 q 686 426 611 492 q 761 246 761 360 q 685 66 761 132 q 479 0 610 0 l 131 0 m 268 124 l 478 124 q 619 246 619 124 q 478 367 619 367 l 268 367 l 268 124 z "},"э":{"ha":833,"x_min":111,"x_max":722,"o":"m 414 -14 q 197 58 279 -14 q 111 249 115 129 l 249 249 q 297 146 253 183 q 414 108 340 108 q 540 153 494 108 q 585 279 585 197 l 585 329 l 336 329 l 336 447 l 585 447 l 585 485 q 539 612 585 567 q 414 657 493 657 q 297 619 340 657 q 249 517 253 582 l 111 517 q 197 707 115 636 q 414 778 279 778 q 639 699 556 778 q 722 485 722 621 l 722 281 q 639 65 722 144 q 414 -14 556 -14 z "},"ю":{"ha":833,"x_min":78,"x_max":781,"o":"m 549 -14 q 390 49 449 -14 q 332 221 332 113 l 332 335 l 201 335 l 201 0 l 78 0 l 78 764 l 201 764 l 201 440 l 332 440 l 332 543 q 390 715 332 651 q 549 778 449 778 q 717 714 654 778 q 781 543 781 650 l 781 221 q 717 50 781 114 q 549 -14 654 -14 m 549 92 q 628 127 599 92 q 657 221 657 163 l 657 543 q 628 637 657 601 q 549 672 599 672 q 473 637 501 672 q 444 543 444 601 l 444 221 q 473 127 444 163 q 549 92 501 92 z "},"я":{"ha":833,"x_min":88,"x_max":711,"o":"m 88 0 l 276 290 q 147 373 194 311 q 100 519 100 435 q 176 698 100 632 q 383 764 253 764 l 711 764 l 711 0 l 574 0 l 574 281 l 417 281 l 246 0 l 88 0 m 385 396 l 574 396 l 574 646 l 385 646 q 278 612 318 646 q 239 519 239 578 q 278 429 239 463 q 385 396 318 396 z "},"ё":{"ha":833,"x_min":113,"x_max":721,"o":"m 574 899 q 506 923 531 899 q 481 989 481 947 q 506 1057 481 1032 q 574 1082 531 1082 q 640 1057 615 1082 q 665 989 665 1032 q 640 923 665 947 q 574 899 615 899 m 260 899 q 193 923 218 899 q 168 989 168 947 q 193 1057 168 1032 q 260 1082 218 1082 q 328 1057 303 1082 q 353 989 353 1032 q 328 923 353 947 q 260 899 303 899 m 417 -14 q 196 67 279 -14 q 113 281 113 147 l 113 485 q 196 697 113 617 q 417 778 279 778 q 638 697 556 778 q 721 485 721 617 l 721 349 l 247 349 l 247 281 q 291 146 247 192 q 417 100 335 100 q 581 197 560 100 l 717 197 q 621 44 703 101 q 417 -14 539 -14 m 247 485 l 247 447 l 588 447 l 588 485 q 544 619 588 572 q 417 665 500 665 q 291 619 335 665 q 247 485 247 572 z "},"ђ":{"ha":833,"x_min":0,"x_max":711,"o":"m 347 -250 l 347 -122 l 401 -122 q 528 -78 483 -122 q 574 46 574 -35 l 574 413 q 533 534 574 490 q 421 578 493 578 q 304 531 346 578 q 263 401 263 485 l 263 0 l 125 0 l 125 789 l 0 789 l 0 896 l 125 896 l 125 1014 l 263 1014 l 263 896 l 489 896 l 489 789 l 263 789 l 263 681 l 261 535 l 263 535 q 324 653 272 611 q 464 694 376 694 q 644 622 578 694 q 711 428 711 550 l 711 44 q 628 -170 711 -90 q 404 -250 544 -250 l 347 -250 z "},"ѓ":{"ha":833,"x_min":178,"x_max":732,"o":"m 372 896 l 518 1090 l 667 1090 l 511 896 l 372 896 m 178 0 l 178 764 l 732 764 l 732 638 l 315 638 l 315 0 l 178 0 z "},"є":{"ha":833,"x_min":111,"x_max":724,"o":"m 419 -14 q 194 65 278 -14 q 111 281 111 144 l 111 485 q 194 699 111 621 q 419 778 278 778 q 636 707 554 778 q 724 517 718 636 l 586 517 q 538 619 582 582 q 419 657 493 657 q 294 612 340 657 q 249 485 249 567 l 249 447 l 497 447 l 497 329 l 249 329 l 249 279 q 294 153 249 197 q 419 108 339 108 q 538 146 493 108 q 586 249 582 183 l 724 249 q 636 57 718 128 q 419 -14 554 -14 z "},"ѕ":{"ha":833,"x_min":117,"x_max":729,"o":"m 392 -11 q 193 45 269 -11 q 117 196 117 101 l 257 196 q 295 131 257 154 q 394 107 333 107 l 453 107 q 594 211 594 107 q 467 322 594 300 l 363 338 q 191 411 247 357 q 135 558 135 465 q 204 719 135 664 q 403 775 274 775 l 456 775 q 647 722 575 775 q 719 581 719 669 l 579 581 q 545 636 579 615 q 453 657 511 657 l 400 657 q 269 558 269 657 q 383 460 269 479 l 488 443 q 671 370 613 424 q 729 217 729 317 q 658 49 729 108 q 450 -11 588 -11 l 392 -11 z "},"і":{"ha":833,"x_min":115,"x_max":772,"o":"m 514 923 q 500 911 514 923 q 439 899 486 899 q 364 923 392 899 q 336 989 336 947 q 363 1057 336 1032 q 439 1082 390 1082 q 514 1057 486 1082 q 542 989 542 1032 q 514 923 542 947 m 115 0 l 115 125 l 383 125 l 383 639 l 143 639 l 143 764 l 521 764 l 521 125 l 772 125 l 772 0 l 115 0 z "},"ї":{"ha":833,"x_min":115,"x_max":772,"o":"m 594 899 q 528 923 553 899 q 503 989 503 947 q 528 1057 503 1032 q 594 1082 553 1082 q 663 1057 638 1082 q 688 989 688 1032 q 663 923 688 947 q 594 899 638 899 m 282 899 q 215 923 240 899 q 190 989 190 947 q 215 1057 190 1032 q 282 1082 240 1082 q 350 1057 325 1082 q 375 989 375 1032 q 350 923 375 947 q 282 899 325 899 m 115 0 l 115 125 l 383 125 l 383 639 l 143 639 l 143 764 l 521 764 l 521 125 l 772 125 l 772 0 l 115 0 z "},"ј":{"ha":833,"x_min":96,"x_max":639,"o":"m 612 923 q 598 911 612 923 q 538 899 585 899 q 463 923 490 899 q 435 989 435 947 q 462 1057 435 1032 q 538 1082 489 1082 q 612 1057 585 1082 q 639 989 639 1032 q 612 923 639 947 m 96 -250 l 96 -124 l 301 -124 q 428 -79 383 -124 q 474 46 474 -35 l 474 639 l 124 639 l 124 764 l 611 764 l 611 44 q 528 -170 611 -90 q 304 -250 444 -250 l 96 -250 z "},"љ":{"ha":833,"x_min":4,"x_max":807,"o":"m 4 -7 l 4 118 l 31 118 q 86 160 65 118 q 108 272 107 201 l 114 764 l 504 764 l 504 492 l 582 492 q 745 433 683 492 q 807 276 807 374 l 807 213 q 745 59 807 118 q 583 0 683 0 l 386 0 l 386 650 l 233 650 l 229 271 q 174 68 228 143 q 29 -7 121 -7 l 4 -7 m 504 110 l 582 110 q 658 138 629 110 q 686 214 686 167 l 686 276 q 658 352 686 324 q 582 381 629 381 l 504 381 l 504 110 z "},"њ":{"ha":833,"x_min":82,"x_max":807,"o":"m 82 0 l 82 764 l 206 764 l 206 490 l 393 490 l 393 764 l 503 764 l 503 490 l 582 490 q 745 431 683 490 q 807 274 807 371 l 807 214 q 745 59 807 118 q 583 0 683 0 l 393 0 l 393 379 l 206 379 l 206 0 l 82 0 m 503 111 l 582 111 q 656 140 628 111 q 683 214 683 168 l 683 275 q 656 351 683 322 q 582 379 629 379 l 503 379 l 503 111 z "},"ћ":{"ha":833,"x_min":0,"x_max":714,"o":"m 0 789 l 0 896 l 122 896 l 122 1014 l 260 1014 l 260 896 l 489 896 l 489 789 l 260 789 l 260 681 l 258 535 l 261 535 q 324 653 271 611 q 464 694 376 694 q 646 622 578 694 q 714 428 714 550 l 714 0 l 576 0 l 576 413 q 535 534 576 490 q 421 578 493 578 q 303 531 346 578 q 260 401 260 485 l 260 0 l 122 0 l 122 789 l 0 789 z "}}}
